<?xml version="1.0" encoding="UTF-8"?>
<svg xmlns="http://www.w3.org/2000/svg" xmlns:xlink="http://www.w3.org/1999/xlink" width="60px" height="59px" viewBox="0 0 80 79">
  <!-- Generator: Sketch 50 (54983) - http://www.bohemiancoding.com/sketch -->
  <title>improve-healthcare icon</title>
  <desc>Created with Sketch.</desc>
  <defs></defs>
  <g id="Page-1" stroke="none" stroke-width="1" fill="none" fill-rule="evenodd">
    <g id="About" transform="translate(-1077.000000, -870.000000)" fill="#50E3C2" fill-rule="nonzero">
      <g id="Group-5" transform="translate(996.000000, 870.000000)">
        <path d="M101.32659,78.2914155 L81,61.6642647 L92.6512015,50.1838065 C99.0080633,43.8950083 108.490998,41.9786187 116.79106,45.3054248 L131.133502,45.3054248 C134.106164,45.3054248 136.515983,47.7152437 136.515983,50.6879059 C136.515983,53.6605681 134.106164,56.070387 131.133502,56.070387 L120.027053,56.070387 C119.04365,56.070387 118.246444,56.867593 118.246444,57.8509963 C118.246444,58.8343997 119.04365,59.6316056 120.027053,59.6316056 L132.613278,59.6316056 C134.425082,59.6312331 136.150215,58.8559586 137.353439,57.501379 L150.923471,42.0287785 C152.97527,39.770393 156.459674,39.5763851 158.749503,41.5930334 C161.039332,43.6096817 161.287172,47.0906713 159.306156,49.411396 L142.361911,69.1363192 C139.837227,72.0295106 136.184835,73.689689 132.344967,73.6894755 L105.896008,73.6894755 L101.32659,78.2914155 Z M129.328501,3.79039683 L128.621136,4.49776217 L127.897509,3.77413556 C122.861496,-1.25963236 114.698326,-1.25781226 109.664558,3.77820087 C104.63079,8.814214 104.63261,16.9773844 109.668623,22.0111524 L127.238928,39.5733264 C128.007105,40.3404291 129.251428,40.3404291 130.019605,39.5733264 L147.557387,22.0680668 C150.822379,18.8117899 152.102152,14.0610139 150.914629,9.60530999 C149.727106,5.14960611 146.2527,1.66590185 141.800186,0.466474921 C137.347672,-0.732952013 132.593492,0.534119863 129.328501,3.79039683 Z" id="improve-healthcare-icon"></path>
      </g>
    </g>
  </g>
</svg>
