<svg enable-background="new 0 0 85 84.4" viewBox="0 0 85 84.4" xmlns="http://www.w3.org/2000/svg"><path d="m49.6 21.2h8.9v5.3h-8.9z"/><path d="m53.1 31.9h5.3v5.3h-5.3z"/><path d="m53.1 42.5h5.3v5.3h-5.3z"/><path d="m53.1 53.1h5.3v5.3h-5.3z"/><path d="m63.8 21.2h8.9v5.3h-8.9z"/><path d="m13.3 42.5h8.9v5.3h-8.9z"/><path d="m27.4 42.5h8.9v5.3h-8.9z"/><path d="m13.3 53.1h8.9v5.3h-8.9z"/><path d="m27.4 53.1h8.9v5.3h-8.9z"/><path d="m63.8 31.9h8.9v5.3h-8.9z"/><path d="m63.8 42.5h8.9v5.3h-8.9z"/><path d="m63.8 53.1h8.9v5.3h-8.9z"/><path d="m83.1 20.9c.2-.9-.1-1.9-.9-2.5l-19.5-16c-1-.8-2.4-.8-3.4 0l-19.5 16c-.7.6-1 1.5-.9 2.4h.1v8.4l-12.5-10.8c-1-.9-2.5-.9-3.5 0l-20.3 17.5c-.7.6-.9 1.4-.9 2.3 0 .1-.1.2-.1.3v42.1c0 1.5 1.2 2.7 2.7 2.7h40.7c.1 0 .3-.1.4-.1s.3.1.4.1h34.6c1.5 0 2.7-1.2 2.7-2.7v-59.3c0-.2 0-.3-.1-.4zm-61 57v-8.9h5.3v8.9zm10.7 0v-14.2h-16v14.2h-9.7v-38.8l17.7-15.3 17.7 15.3v38.8zm26.5 0v-8.9h5.3v8.9zm10.6 0v-14.2h-15.9v14.2h-6.2v-39.4c0-.1 0-.2-.1-.3.1-.8-.2-1.7-.9-2.3l-2.6-2.3v-12l16.9-13.8 16.8 13.8v56.3z"/></svg>