<?xml version="1.0" encoding="utf-8"?>
<!-- Generator: Adobe Illustrator 22.1.0, SVG Export Plug-In . SVG Version: 6.00 Build 0)  -->
<svg version="1.1" id="Layer_1" xmlns="http://www.w3.org/2000/svg" xmlns:xlink="http://www.w3.org/1999/xlink" x="0px" y="0px"
	 viewBox="0 0 64 58.7" style="enable-background:new 0 0 64 58.7;" xml:space="preserve">
<g>
	<rect x="36" y="36" width="8" height="16"/>
	<rect x="24" y="6" width="10" height="6"/>
	<rect x="36" y="27" width="8" height="7"/>
	<rect x="24" y="46" width="10" height="6"/>
	<polygon points="58.8,50.2 52.2,12.2 45.2,13.8 51.8,51.8 	"/>
	<rect x="36" y="20" width="8" height="5"/>
	<path d="M34,14H24v30h10V14z M31,42h-4c-0.6,0-1-0.4-1-1s0.4-1,1-1h4c0.6,0,1,0.4,1,1S31.6,42,31,42z M31,18h-4c-0.6,0-1-0.4-1-1
		s0.4-1,1-1h4c0.6,0,1,0.4,1,1S31.6,18,31,18z"/>
	<rect x="4" y="54" width="56" height="4"/>
	<path d="M12,20H4v32h8V20z M9,45c0,0.6-0.4,1-1,1s-1-0.4-1-1v-2c0-0.6,0.4-1,1-1s1,0.4,1,1V45z M9,39c0,0.6-0.4,1-1,1s-1-0.4-1-1
		V24c0-0.6,0.4-1,1-1s1,0.4,1,1V39z"/>
	<rect x="14" y="50" width="8" height="2"/>
	<rect x="14" y="13" width="8" height="31"/>
	<rect x="14" y="46" width="8" height="2"/>
</g>
</svg>
