<?xml version="1.0" encoding="utf-8"?>
<!-- Generator: Adobe Illustrator 22.1.0, SVG Export Plug-In . SVG Version: 6.00 Build 0)  -->
<svg version="1.1" id="Layer_1" xmlns="http://www.w3.org/2000/svg" xmlns:xlink="http://www.w3.org/1999/xlink" x="0px" y="0px"
	 viewBox="0 0 100 98.7" style="enable-background:new 0 0 100 98.7;" xml:space="preserve">
<title>Artboard 25</title>
<path d="M97.8,51.2l-9.4,14.5c-0.2,0.4-0.7,0.5-1.1,0.2c-0.1-0.1-0.2-0.1-0.2-0.2l-9.4-14.5c-0.2-0.4-0.1-0.8,0.2-1.1
	c0.1-0.1,0.3-0.1,0.4-0.1h4.8c0-11.7-6.2-22.6-16.3-28.5c-0.7-0.4-1-1.4-0.6-2.1c0.1-0.2,0.3-0.4,0.5-0.5l5.3-3.4
	c0.7-0.5,1.6-0.5,2.2,0c11.3,7.9,18,20.8,18,34.6h4.8c0.4,0,0.8,0.3,0.8,0.8C97.9,50.9,97.8,51.1,97.8,51.2z M81.1,66.7
	c-0.5-0.7-1.4-0.9-2.1-0.4c-0.2,0.1-0.4,0.3-0.5,0.5C72.6,76.9,61.7,83.1,50,83.1v-4.8c0-0.4-0.4-0.8-0.8-0.8c-0.1,0-0.3,0-0.4,0.1
	L34.3,87c-0.4,0.2-0.5,0.7-0.2,1.1c0.1,0.1,0.1,0.2,0.2,0.2l14.5,9.4c0.4,0.2,0.8,0.1,1.1-0.2c0.1-0.1,0.1-0.3,0.1-0.4v-4.8
	c13.8,0,26.7-6.7,34.6-18c0.5-0.7,0.5-1.6,0-2.2L81.1,66.7z M33.2,78.5c-10.1-6-16.3-16.8-16.3-28.5h4.8c0.4,0,0.8-0.4,0.8-0.8
	c0-0.1,0-0.3-0.1-0.4L13,34.3c-0.2-0.4-0.7-0.5-1.1-0.2c-0.1,0.1-0.2,0.1-0.2,0.2L2.2,48.8c-0.2,0.4-0.1,0.8,0.2,1.1
	C2.6,50,2.7,50,2.9,50h4.8c0,13.8,6.7,26.7,18,34.6c0.7,0.5,1.6,0.5,2.2,0l5.3-3.4c0.7-0.5,0.9-1.4,0.4-2.1
	C33.6,78.8,33.4,78.6,33.2,78.5z M51.2,2.3c-0.4-0.2-0.8-0.1-1.1,0.2C50,2.6,50,2.8,50,2.9v4.8c-13.8,0-26.7,6.7-34.6,18
	c-0.5,0.7-0.5,1.6,0,2.2l3.5,5.3c0.5,0.7,1.4,0.9,2.1,0.4c0.2-0.1,0.4-0.3,0.5-0.5C27.4,23.1,38.3,16.9,50,16.9v4.8
	c0,0.4,0.4,0.8,0.8,0.8c0.1,0,0.3,0,0.4-0.1L65.7,13c0.4-0.2,0.5-0.7,0.2-1.1c-0.1-0.1-0.1-0.2-0.2-0.2L51.2,2.3z M62.3,34.3
	c-1.7,0-3.2,1.1-3.7,2.7c1.4,1.2,2.2,3,2.2,4.9c0.5,0.2,1,0.3,1.6,0.3c2.2,0.3,4.2-1.3,4.5-3.5s-1.3-4.2-3.5-4.5
	C62.9,34.3,62.6,34.3,62.3,34.3L62.3,34.3z M50,36.4c2.6,0,4.7-2.1,4.7-4.7s-2.1-4.7-4.7-4.7s-4.7,2.1-4.7,4.7v0
	C45.3,34.3,47.4,36.4,50,36.4z M37.7,42.2c0.5,0,1.1-0.1,1.6-0.3C39.2,40,40,38.2,41.5,37c-0.7-2.1-3-3.2-5.1-2.5
	c-2.1,0.7-3.2,3-2.5,5.1C34.4,41.2,36,42.3,37.7,42.2L37.7,42.2z M30.6,47.4l1,7.1c0.1,1.1,0.8,2,1.9,2.4l1.6,11.2
	c0.1,0.7,0.6,1.2,1.3,1.2H39c0.7,0,1.2-0.5,1.3-1.2l1.6-11.2c0.4-0.1,0.7-0.4,1-0.6l-0.1-1.1c-1.3-0.9-2.2-2.4-2.3-4l-0.9-6.8
	l-1.5,2c-0.1,0.2-0.4,0.2-0.6,0.1c0,0,0,0-0.1-0.1l-2.1-2.6c0,0-0.1-0.1-0.1-0.1h-1.2c-1.9,0-3.4,1.5-3.4,3.4
	C30.6,47.1,30.6,47.2,30.6,47.4L30.6,47.4z M44.9,53.7l2,18c0.1,0.8,0.8,1.4,1.5,1.4h3.1c0.8,0,1.5-0.6,1.5-1.4l2-18
	c1.2-0.4,2.1-1.5,2.3-2.8l1.2-8.8c0.3-2.2-1.3-4.2-3.5-4.4c-0.2,0-0.3,0-0.5,0H53c-0.1,0-0.1,0-0.2,0.1l-2.5,3.1
	c-0.2,0.2-0.5,0.2-0.7,0.1c0,0,0,0-0.1-0.1l-2.5-3.1c0,0-0.1-0.1-0.2-0.1h-1.5c-2.2,0-4,1.8-4,4c0,0.2,0,0.3,0,0.5l1.2,8.8
	C42.8,52.1,43.7,53.2,44.9,53.7L44.9,53.7z M59.7,68.1c0.1,0.7,0.7,1.2,1.3,1.2h2.6c0.7,0,1.2-0.5,1.3-1.2l1.6-11.2
	c1-0.4,1.8-1.3,1.9-2.4l1-7.1c0.2-1.8-1.1-3.5-3-3.7c-0.1,0-0.2,0-0.4,0h-1.3c-0.1,0-0.1,0-0.1,0.1l-2,2.6c-0.1,0.2-0.4,0.2-0.6,0.1
	c0,0,0,0-0.1-0.1l-1.5-1.9l-0.9,6.7c-0.2,1.6-1.1,3.1-2.4,4l-0.1,1c0.3,0.3,0.6,0.5,1,0.7L59.7,68.1z"/>
</svg>
