<svg enable-background="new 0 0 211.8 222.9" viewBox="0 0 211.8 222.9" xmlns="http://www.w3.org/2000/svg"><path d="m103.9 14.5-3.3 6.3 5.9 1 5.1-1.2-2.6-6.4z"/><path d="m109.4 176.4.7 4.9 3.8 1.3 7.2-.2 4.1-3.5-4.2-8.1-6.5 1.2z"/><path d="m78.4 178.1 2.6 3.1 6.2 3.7 5.2-.8.9-9.1-6.2-2.5-6.6 1.1z"/><path d="m39.3 150.4-13 3-2.3 6.9-2.4-2.4-6.2 3.4-2.5 7.5 10.9.6 2.7-3.4h7l6.2.4.3-.4h120.7l-18.9 8.5 29 13.5-41.5 22.1 1.9 3.5 31.5-16.8 14.5 9.3 3.2 13.9 3.9-.9-3.5-15.5-14-8.9 13-6.9-28.3-13.2 19-8.5h8.9l7.1 13.7 21.4 4.2.8-3.9-19.6-3.8-5.2-10.1h27.9v-4h-19.4v-83.3l4.8 3.4 12-17.1-92.8-65.2-4.8 3.3 3.7 6 3.2 17.6 44.6 31.3-15.6 3.8-12.7-13.6-2.9 2.7 14.3 15.4 8.1-2 2.9 12.8-7.5 10.3 3.2 2.4 4.5-6.1 10.5 8.5 4.8 15.4 3.8-1.2-5.2-16.6-11.6-9.4 1.7-2.4-3.3-14.7 9.3-2.3 16.2 11.4v67.2l-23.7 9-24.3.7-5.5 12.4h-27.1v-9.5l-6.7-3.2v-6.5l-5-3.5 11.7-5.2v-24.8h-38v8.9l7.8 5.1-7.8 9.2v29.6h-15.9v-89.2l29-20.4 1.8 9.2-5.5 13.6-13 3.3 1 3.9 15-3.7 4.2-10.3 12.8 8.3-.6 16.2 4 .2.7-18.5-13.6-8.8-.8-3.8.1-.3-.2-.1-2.3-11.7 11.3-8-10.1-5.1 2.4-9.4-3-3.5-18.2 12.8 2.1 9.8-10.7 6.3-11.4-2.1-20.6 14.5 12 17.1 4.8-3.4v72.6zm99 3.1 22.4-.6 22.9-8.7v17.8h-49.1z"/><path d="m11.1 162.2-4.7-4.8-4.6 2.5-1.8 5.5 8.1.5z"/><path d="m20.8 151.2-4.6-4.8-4.6 2.5-1.8 5.5 8 .5z"/><path d="m49.2 184.2.8-4.3-6.2-2.8-5.4.6-3.2 5.4 1.2 3.7h7.1z"/><path d="m12.4 180.2-3.2 5.4 1.2 3.7h7.1l5.7-2.6.8-4.3-6.2-2.8z"/><path d="m50.3 209.4 9.8-4.4 1.4-7.3-10.7-4.8-9.2.9-5.4 9.3 2 6.3z"/><path d="m67.9 180.6.3-4.7-7.5-2-1.8 5.5 3 3.7z"/><path d="m51.9 47.8 6-2.5.3-4.8-4.8-1.2-2.7-.8-1.5 4.5-.3 1z"/><path d="m71.9 201.1 6-2.5.3-4.7-7.5-2-1.8 5.5z"/><path d="m18.4 65.7c.2.2.5.4.8.4.2 0 .4-.1.6-.2.4-.3.5-1 .1-1.4s-.1-.1-.2-.2c-.3-.5-1-1.7-1-3.1 0-1.2.5-2.6 2.5-4.2.4-.3.5-1 .2-1.4s-1-.5-1.4-.2c-2.4 1.8-3.3 3.9-3.3 5.8.1 2.6 1.6 4.4 1.7 4.5z"/><path d="m14.6 67.5c.2 0 .4-.1.6-.2.4-.3.5-1 .2-1.4s-.1-.1-.2-.4c-.4-.7-1.4-2.6-1.4-4.7 0-2.2.9-4.7 4.4-7.1.5-.3.6-.9.3-1.4s-.9-.6-1.4-.3c-4 2.7-5.3 6-5.3 8.8 0 3.6 1.9 6.1 2 6.2.2.4.5.5.8.5z"/><path d="m122.7 102.6h30.7v30.7h-30.7z" transform="matrix(.9896 -.1435 .1435 .9896 -15.4911 21.023)"/></svg>