<?xml version="1.0" encoding="utf-8"?>
<!-- Generator: Adobe Illustrator 22.1.0, SVG Export Plug-In . SVG Version: 6.00 Build 0)  -->
<svg version="1.1" id="Layer_1" xmlns="http://www.w3.org/2000/svg" xmlns:xlink="http://www.w3.org/1999/xlink" x="0px" y="0px"
	 viewBox="0 0 223.2 237.6" style="enable-background:new 0 0 223.2 237.6;" xml:space="preserve">
<g>
	<path d="M48.8,115.7l-0.3,0c-5.4,0-9.8-4.3-10-9.7l-1.3-43.3C37,60,38,57.4,39.9,55.4c0.9-0.9,2.9-2.7,5.9-4.5
		c3.3-1.9,8.5-4.2,15.2-4.2c0,0,0,0,0.1,0c0.2,0,0.4,0,0.7,0h6.2c-3.1-2.3-6.8-4.1-10.8-5.3c-10.1-3-22.1-2-31.1,6.8
		c-31,30.2-38.9,86.7,2.3,91.2c15.8,1.7,21.6-5.6,23.8-16.9V115C51,115.4,49.9,115.6,48.8,115.7z"/>
	<path d="M108.1,170.7c-8.9-2.5-13.7-5.2-14-5.5l-1.2-0.7l0.3-1.4l15-73.5V62.5c1.2-0.4,2.6-0.8,4.1-1.2c-0.7,0.5-1.4,1-2.1,1.6
		v19.1c0.7-1.1,1.5-2.1,2.2-3l-13.2,64.7l7.7,4.8l-9.3,3l-2.5,12.1c0,0,15,9,43.3,9c6.5,0,12.3-0.5,17.4-1.2c0.5-15.4,3.2-27.5,8-36
		c3.4-6.1,7.5-9.2,10.1-10.4l-1.9-9.1c-0.6-1.6-0.9-3.3-1-5l-6.5-31.7c0.1,0.1,0.2,0.2,0.2,0.3c3.2,4.1,6.7,10,10,18.5
		c2.7-3.6,6.6-6.3,11.1-7.4c-3.9-9.4-8.2-16.3-12.5-21.3c-1.8-2.1-3.6-3.8-5.3-5.3c3.7,2,7.2,4.5,10.4,7.7c1.6,1.6,3.6,2.4,5.7,2.4
		c2,0,4.1-0.8,5.6-2.3c3.1-3.1,3.2-8.2,0.1-11.3c-5.1-5.2-10.9-9.1-16.9-11.9l-5.5,7.2l-2.2-10.2c-2.8-0.9-5.6-1.6-8.4-2.2
		c-4.3,5.6-11,9-18.5,9c-1.8,0-3.6-0.2-5.3-0.6c-5.3-1.2-9.8-4.2-13.1-8.4c-10.2,1.7-18,4.2-21.2,5.4H68.9c0.9,2.6,1.4,7.6,1.5,12.3
		c0.9,0.2,1.7,0.5,2.5,1c4.8,2.7,6.6,8.8,3.9,13.6l-19.5,35c-0.8,1.4-1.9,2.6-3.2,3.5v44.9l9.5-2.8l-9.5,9.9v37.2l8.8-1.6l-2.7,5
		l-2.3,4l-3.8,1.8v10.3c0,6.8,5.5,12.4,12.4,12.4c6.8,0,12.4-5.5,12.4-12.4v-90.3h4.6v90.3c0,6.8,5.5,12.4,12.4,12.4
		c6.8,0,12.4-5.5,12.4-12.4L108.1,170.7L108.1,170.7z"/>
	<circle cx="81" cy="22.5" r="22.5"/>
	<path d="M49.5,113.6c0.3,0,0.6-0.1,1-0.2c0.1,0,0.1,0,0.2-0.1c0.3-0.1,0.5-0.2,0.7-0.3c0.1,0,0.1-0.1,0.2-0.1c0,0,0.1,0,0.1,0l0,0
		c1.5-0.7,2.9-1.8,3.7-3.4l19.5-35c2.1-3.9,0.8-8.7-3.1-10.9c-3.9-2.2-8.7-0.8-10.9,3.1L47.1,91.6l-0.6-3l12.7-22.8
		c1.3-2.3,3.5-4,6-4.7c-2.9-5.2-6.4-10.2-7.8-12.1c-4.4,0.6-8,2.1-10.6,3.6c-3.3,1.9-5.1,3.8-5.5,4.2c-1.5,1.5-2.3,3.6-2.2,5.8
		l1.3,43.3c0,0.1,0,0.1,0,0.2c0,0.1,0,0.3,0,0.4c0,0.1,0,0.3,0.1,0.4c0,0.1,0,0.2,0.1,0.3c0,0.2,0.1,0.3,0.1,0.5
		c0,0.1,0,0.2,0.1,0.3c0,0.2,0.1,0.3,0.2,0.5c0,0.1,0.1,0.2,0.1,0.3c0.1,0.1,0.1,0.3,0.2,0.4c0,0.1,0.1,0.2,0.1,0.3
		c0.1,0.1,0.1,0.3,0.2,0.4c0.1,0.1,0.1,0.2,0.2,0.3c0.1,0.1,0.1,0.2,0.2,0.3c0.1,0.1,0.2,0.2,0.2,0.3c0.1,0.1,0.2,0.2,0.2,0.3
		c0.1,0.1,0.2,0.2,0.3,0.3c0.1,0.1,0.2,0.2,0.3,0.3c0.1,0.1,0.2,0.2,0.3,0.3c0.1,0.1,0.2,0.2,0.3,0.3c0.1,0.1,0.2,0.1,0.3,0.2
		c0.2,0.1,0.3,0.2,0.5,0.3c0.1,0,0.1,0.1,0.1,0.1c0,0,0,0,0,0c0.3,0.2,0.6,0.3,0.9,0.4c0,0,0.1,0,0.1,0c0.2,0.1,0.5,0.2,0.8,0.2
		c0.1,0,0.2,0,0.3,0.1c0.2,0,0.4,0.1,0.6,0.1c0.1,0,0.2,0,0.3,0c0.3,0,0.5,0,0.8,0.1c0,0,0.1,0,0.1,0c0,0,0,0,0,0c0.1,0,0.2,0,0.2,0
		C49,113.7,49.2,113.6,49.5,113.6C49.5,113.6,49.5,113.6,49.5,113.6z"/>
	<path d="M116.7,172.7v6.1V225c0,5.5,4.5,10,10,10c5.5,0,10-4.5,10-10v-44.5v-6C129.1,174.5,122.4,173.7,116.7,172.7z"/>
	<path d="M156.3,202.5l-7.3-0.7l11.1-6.6v-0.8v-6.3c-2.5-1.1-4.3-3.7-4.4-6.6c0-1.5,0-2.9,0-4.3c0-1.3,0-2.5,0-3.7
		c-4.6,0.6-9.9,1.1-15.6,1.2v6V225c0,5.5,4.5,10,10,10c5.5,0,10-4.5,10-10V209l-0.1,0.2L156.3,202.5z"/>
	<ellipse transform="matrix(0.2268 -0.9739 0.9739 0.2268 78.9429 157.0942)" cx="138.4" cy="28.8" rx="21.5" ry="21.5"/>
	<path d="M170.9,168v-0.1C170.9,167.9,170.9,168,170.9,168C170.9,168,170.9,168,170.9,168z"/>
	<path d="M163.4,186.8c3-0.1,5.4-2.6,5.4-5.6c0-1.4-0.1-2.7-0.1-4c0-15.1,2-24.7,4.3-30.7v24l3.8-1l4-4v6.3l-7.8,5.6V227
		c0,4.4,3.6,8,8,8s8-3.6,8-8v-33.8h3V227c0,4.4,3.6,8,8,8c4.4,0,8-3.6,8-8v-18l-3.8-5l3.8,0.2v-57.8c2.3,6,4.3,15.7,4.3,30.7
		c0,1.3,0,2.6,0,4c-0.1,3,2.3,5.6,5.4,5.6c0,0,0.1,0,0.1,0c3,0,5.4-2.4,5.5-5.4c0-1.5,0-2.9,0-4.3c0-21-3.6-33.4-7.8-40.8
		c-0.5-1-1.1-1.8-1.6-2.6l-4.6,1.6l1.1-5.7c-2.3-2.2-4.3-3-5-3.2c-0.2-0.1-0.5-0.1-0.7-0.2c-0.5-0.2-1-0.3-1.5-0.3h-2.2
		c-3,1.9-6.5,3-10.3,3c-3.8,0-7.3-1.1-10.3-3h-2.2c-0.5,0-1.1,0.1-1.6,0.3c-0.2,0-0.5,0.1-0.7,0.2h0c-1.1,0.3-6,2.5-10.2,10
		c-4.2,7.4-7.8,19.7-7.8,40.8c0,1.4,0,2.8,0,4.3c0.1,3,2.5,5.4,5.5,5.4C163.3,186.8,163.3,186.8,163.4,186.8z"/>
	<circle cx="190.4" cy="109.5" r="17.5"/>
</g>
</svg>
