<?xml version="1.0" encoding="utf-8"?>
<!-- Generator: Adobe Illustrator 22.1.0, SVG Export Plug-In . SVG Version: 6.00 Build 0)  -->
<svg version="1.1" id="Layer_1" xmlns="http://www.w3.org/2000/svg" xmlns:xlink="http://www.w3.org/1999/xlink" x="0px" y="0px"
	 viewBox="0 0 938 1030.8" style="enable-background:new 0 0 938 1030.8;" xml:space="preserve">
<g>
	<path d="M530,745l-16,91c-20,4-41,10-60,20l3-17l-63-11l-12,63l19,4c-39,27-92,27-131,1l29-164l-128-23l-22,126c-18-2-38-2-56,1
		l29-163l235-140L530,745z M29,940c-16,16-40-8-24-24c65-65,171-64,235,0c55,44,134,44,189,0c64-64,169-65,235,0c59,48,145,46,202-6
		c7-6,17-5,24,2c6,7,5,17-2,24c-70,62-175,64-247,5c-56-56-133-50-190,0c-67,56-167,56-234,0C165,889,82,887,29,940z M19,626
		l302-179l60-36l44,54l58,71l10-57l82,14l-23,127l96,117l-61,36L365,501L63,680L19,626z M659,461C669,617,520,531,659,461z M733,608
		C742,764,593,678,733,608z M789,461C799,617,650,531,789,461z M271,315C280,470,131,384,271,315z M386,315C395,470,246,384,386,315
		z M501,315C510,470,361,384,501,315z M616,315C625,470,476,384,616,315z M731,315C740,470,591,384,731,315z M846,315
		C856,470,706,384,846,315z M258,221h1c4-26,38-46,67-33c-21-44,42-99,110-86c0-156,336-121,286,22c2-1,5-1,7-1c66,0,108,53,81,98
		c172,2,170,66-1,66H258C99,287,99,221,258,221z M306,878l64,11l11-64l-64-11L306,878z M331,738l63,11l-11,64l-64-12L331,738z
		 M471,762l-64-11l-11,64l64,11L471,762z"/>
</g>
</svg>
