<?xml version="1.0" encoding="utf-8"?>
<!-- Generator: Adobe Illustrator 22.1.0, SVG Export Plug-In . SVG Version: 6.00 Build 0)  -->
<svg version="1.1" id="Layer_1" xmlns="http://www.w3.org/2000/svg" xmlns:xlink="http://www.w3.org/1999/xlink" x="0px" y="0px"
	 viewBox="0 0 501.2 272.9" style="enable-background:new 0 0 501.2 272.9;" xml:space="preserve">
<g>
	<path d="M32.9,125.7l-0.9-2.2c-2.2-5.1,0.2-11,5.3-13.1c1.2-0.5,2.6-0.8,3.9-0.8c1.2,0,2.3,0.2,3.4,0.6c1.2-5.8,0.1-12-3.5-17.2
		c-7-10.2-21-12.9-31.3-5.8c-10.2,7-12.9,21-5.8,31.3C10.4,128,22.9,130.9,32.9,125.7z"/>
	<path d="M54.8,126.1l1.3-4.3c1.3-4.2,5.2-7.2,9.6-7.2c1,0,1.9,0.1,2.8,0.4c5.3,1.6,8.3,7.1,6.7,12.4l-8.9,30.1
		c2.3,4.4,4.5,8.9,6.2,13.5c-2.8,1.9-5.8,4.3-8.9,7.3c-5.1,5.1-10.3,11.9-14.1,20.6c-3.3,7.7-5.6,16.9-6.1,27.6l8.4,1.5l-8.5,5.5
		c0.2,7.1,1.1,14.8,3,23.1c1.3,5.8,6.5,9.8,12.2,9.8c0.9,0,1.8-0.1,2.7-0.3c6.7-1.5,11-8.2,9.5-14.9c-1.7-7.8-2.4-14.6-2.4-20.5
		c0-3.5,0.2-6.7,0.7-9.6c1,6.6,3.2,13.5,7.3,20c5.7,9.3,14.9,17.5,27.6,24c1.8,0.9,3.8,1.4,5.7,1.4c4.5,0,8.9-2.5,11.1-6.8
		c3.1-6.1,0.7-13.7-5.4-16.8c-9.5-4.9-14.6-10-17.7-14.9c-3-4.9-4.1-9.8-4.1-15.1c0-2.1,0.2-4.3,0.6-6.5l-2.4-5.1l-6-2.7l8-9.3
		l5.4,1.9c1.4-2.9,2.7-5.3,3.7-6.9c0.5-0.8,0.9-1.5,1.2-1.9c0.1-0.2,0.2-0.3,0.3-0.4c0,0,0,0,0,0c0.5-0.6,0.8-1.3,1.2-2
		c-4.8-1.8-8.9-5.5-11.1-10.3c-2.2-4.8-2.3-10.1-0.5-15c1.5-4,4.2-7.3,7.7-9.5c-0.3-0.7-0.6-1.4-0.8-2c-1.4-0.9-2.7-1.9-4.1-3.1
		l-5.4-0.1l2.1-2.9c-2.6-2.6-5.3-5.5-8-8.4l-1.9-2c-8.8-9.6-17.6-18.3-27.8-18.3c-1.9,0-3.9,0.3-5.9,1c-0.8,0.9-1.4,1.8-1.8,2.9
		c1,0.9,1.8,2.1,2.4,3.4L54.8,126.1z"/>
	<path d="M63.7,159.1c0.2-0.4,0.3-0.7,0.4-1.1l9.2-31c1.3-4.2-1.2-8.7-5.4-9.9c-4.2-1.3-8.7,1.2-9.9,5.4l-2,6.7l1.9,4.6l-1.2,2.2
		l-8.2-19.3c-1.7-4.1-6.4-6-10.5-4.2c-4.1,1.7-6,6.4-4.2,10.5l13,30.6l2.3,5.4c0.1,0.4,0.3,0.7,0.5,1c0,0.1,0.1,0.1,0.1,0.2
		c0.2,0.3,0.4,0.6,0.6,0.8c0,0,0.1,0.1,0.1,0.1c0.2,0.2,0.4,0.5,0.7,0.7c0.1,0,0.1,0.1,0.2,0.1c0.3,0.2,0.5,0.4,0.8,0.6
		c0,0,0.1,0,0.1,0c0.3,0.2,0.5,0.3,0.8,0.5c0.1,0,0.1,0.1,0.2,0.1c0.3,0.1,0.6,0.3,0.9,0.4c0,0,0,0,0,0l0,0c0,0,0,0,0.1,0
		c0.4,0.1,0.7,0.2,1.1,0.2c0.2,0,0.3,0,0.5,0c0.2,0,0.4,0,0.6,0c0.4,0,0.8,0,1.2-0.1c0.1,0,0.1,0,0.2,0c0.4-0.1,0.7-0.1,1.1-0.3
		c0.1,0,0.1,0,0.2-0.1c0.2-0.1,0.3-0.1,0.5-0.2c0.1-0.1,0.3-0.1,0.4-0.2c0.1,0,0.1-0.1,0.2-0.1c0.3-0.2,0.6-0.4,0.9-0.6
		c0.1,0,0.1-0.1,0.2-0.1c0.3-0.2,0.6-0.4,0.8-0.7c0,0,0,0,0.1-0.1c0.3-0.3,0.5-0.6,0.7-0.9c0.1-0.1,0.1-0.1,0.2-0.2
		c0.1-0.1,0.2-0.3,0.2-0.4c0.1-0.2,0.2-0.4,0.3-0.6C63.6,159.2,63.7,159.1,63.7,159.1z"/>
	<path d="M105.3,143.4c2.2-0.8,4.5-1.3,6.9-1.3c1.3,0,2.7,0.1,4,0.4c2.6-1.5,5.3-4.2,8.2-8.1c5.2-7.3,7.6-14,7.8-19.9
		c-0.5-1.1-0.9-2.2-1.3-3.3c-0.7-2.5-1.1-5-1.1-7.5c-6.5-12.9-26-19.7-47.8-17.7c-15.3,1.4-32.3,9-33.6,21.7
		C72.8,99,88.5,137,105.3,143.4z M121.1,104.1c-21.5-15-53.5-9.5-53.5-9.5S101.6,79.6,121.1,104.1z"/>
	<path d="M227.2,229.9c5.6,11.5,15.5,22.5,30.8,29.7c1.4,0.7,2.9,1,4.3,1c3.7,0,7.3-2.1,9-5.7c2.4-5,0.3-11-4.7-13.3
		c-1.6-0.8-3.1-1.6-4.5-2.4l-5.8,7.8l0.3-11.6c-5.4-4.3-8.9-9.1-11.5-14.3c-1-2-1.8-4-2.5-6.1c-5.7,2.2-12.1,4.1-19.2,5.6
		C224.5,223.6,225.7,226.7,227.2,229.9z"/>
	<path d="M200.7,232.4c0,9.3,2.5,19.5,8.3,29.7c1.8,3.3,5.2,5.1,8.7,5.1c1.7,0,3.3-0.4,4.9-1.3c4.8-2.7,6.5-8.8,3.8-13.6
		c-4.2-7.6-5.7-14.1-5.7-19.9c0-4.2,0.8-8.1,2-11.7c-6.5,1.3-13.6,2.1-21.2,2.4C201,226,200.7,229.2,200.7,232.4z"/>
	<path d="M200.9,161.3l-6.7,3.6c1.5,5.6,2.8,11.7,3.4,18.1l4.1-2.8l2.7,8.7l5,3l-11.6,6.5c-0.5,6.8-1.9,14.1-4.4,21.7c1,0,2,0,3,0
		c52,0,77.8-27.2,83.4-33.9c0.2-0.3,0.4-0.5,0.6-0.7c-0.7-1.2-2-3.7-4-7.1c-2.3-3.9-5.4-9.1-9-14.9l-10.1,0.9l5.8-7.6
		c-2.5-3.8-5.2-7.7-8-11.6c-3.8,3.8-7.7,5.7-11.8,5.7c-8.7,0-16.5-8.5-24.7-17.6l-1.9-2c-3.1-3.4-6.2-6.6-9.3-9.4l-1.8,32.1
		C205.5,157,203.6,159.9,200.9,161.3z"/>
	<path d="M188,146.5l1.5-26.3c0.2-2.8,1.6-5.2,3.7-6.7c-1.4-0.3-2.8-0.5-4.2-0.5c-2.2,0-4.4,0.4-6.6,1.2l-0.3,0.1
		c-0.7,2-1,4.1-1,6.3C181,127.8,184.3,136.4,188,146.5z"/>
	<ellipse transform="matrix(0.9586 -0.2846 0.2846 0.9586 -23.1805 48.5057)" cx="155.3" cy="104" rx="22.5" ry="22.5"/>
	<path d="M199.9,159.6c2.1-1.1,3.5-3.3,3.7-5.8l1.8-32.7c0-0.3,0-0.7,0-1c-3.1-2.6-6.3-4.6-9.6-5.8c-2.4,1-4.1,3.3-4.3,6.1h0
		l-1.6,28.7l-24.5,13.1c-3.4,1.8-4.7,6.1-2.9,9.5c1.3,2.4,3.7,3.7,6.2,3.7c1.1,0,2.2-0.3,3.3-0.8L199.9,159.6z"/>
	<path d="M181.7,112.3c33.3-12,50.3,62.7,76,26.7c22.4-31.4-6.8-51.7-42.3-48.3C200,92.1,183,99.6,181.7,112.3z M254.5,108.6
		c-21.5-15-53.5-9.5-53.5-9.5S235,84.1,254.5,108.6z"/>
	<path d="M155.5,169.6c-7.8-7.6-17.8-6.7-23.2-2.8c-4.9,3.6-4.6,11.2-0.6,16.5l3-9.3c1-3.1,3.9-5.2,7.1-5.2c0.8,0,1.6,0.1,2.3,0.4
		c1.9,0.6,3.5,1.9,4.4,3.7c0.9,1.8,1.1,3.8,0.5,5.7l-6.2,19.3c2.6,3.8,5.1,7.9,6.9,12c-1.1,0.8-2.2,1.7-3.4,2.7
		c-4,3.4-8.2,7.8-11.5,13.4c-3.3,5.5-5.6,12.4-5.6,20c0,5,1,10.4,3.1,15.9c1.3,3.4,4.5,5.5,7.9,5.5c1,0,2-0.2,3-0.6
		c4.4-1.7,6.6-6.6,4.9-11c-1.4-3.8-2-7-2-9.8c0-4.3,1.2-8,3.2-11.4c0.4-0.7,0.8-1.3,1.3-2c0.2,2.5,0.7,5.1,1.5,7.7l4.2-2.1l-3.1,5.4
		c0.5,1.2,1,2.4,1.7,3.5c3.3,6.1,8.5,11.9,16,16.8c1.4,0.9,3.1,1.4,4.7,1.4c2.8,0,5.5-1.4,7.1-3.8c2.6-3.9,1.5-9.2-2.4-11.8
		c-5.4-3.6-8.4-7.2-10.3-10.6c-1.8-3.4-2.5-6.8-2.5-10.2c0-3.9,1-7.8,2.1-11c4.5-2.9,8-7.4,6.1-15.5c-1.2-3.8-2.5-7.1-3.8-10.2l-7-2
		l4.4-3.4C166,180.8,161.7,175.6,155.5,169.6z"/>
	<path d="M133.6,220.1l13.6-42.1c0.9-2.9-0.6-6-3.5-6.9c-2.9-0.9-6,0.6-6.9,3.5l-7.6,23.6l3.9,3.3l-5.5,1.4l-4.4,13.7
		c-0.9,2.9,0.7,6,3.5,6.9c0.6,0.2,1.1,0.3,1.7,0.3C130.6,223.9,132.8,222.4,133.6,220.1z"/>
	<ellipse transform="matrix(0.911 -0.4124 0.4124 0.911 -56.7339 60.6698)" cx="112.2" cy="161.8" rx="16.6" ry="16.6"/>
	<polygon points="324.8,82.3 324.8,82.3 324.8,82.3 	"/>
	<polygon points="393.2,14.5 389.9,20.8 395.9,21.8 401,20.6 398.3,14.2 	"/>
	<polygon points="398.8,176.4 399.4,181.3 403.3,182.6 410.5,182.4 414.5,178.9 410.3,170.8 403.8,172 	"/>
	<polygon points="367.7,178.1 370.3,181.2 376.5,184.9 381.8,184.1 382.6,175 376.4,172.5 369.8,173.6 	"/>
	<path d="M328.7,150.4l-13,3l-2.3,6.9l-2.4-2.4l-6.2,3.4l-2.5,7.5l10.9,0.6l2.7-3.4h7l6.2,0.4l0.3-0.4h120.7l-18.9,8.5l29,13.5
		l-41.5,22.1l1.9,3.5l31.5-16.8l14.5,9.3l3.2,13.9l3.9-0.9l-3.5-15.5l-14-8.9l13-6.9l-28.3-13.2l19-8.5l0,0h9l7.1,13.7l21.4,4.2
		l0.8-3.9l-19.6-3.8l-5.2-10.1h27.9v-4h-19.4V78.9l4.8,3.4l12-17.1L405.7,0l-4.8,3.3l3.7,6l3.2,17.6l44.6,31.3l-15.6,3.8l-12.7-13.6
		l-2.9,2.7l14.3,15.4l8.1-2l2.9,12.8L439,87.7l3.2,2.4l4.5-6.1l10.5,8.5l4.8,15.4l3.8-1.2l-5.2-16.6l-11.6-9.4l1.7-2.4l-3.3-14.7
		l9.3-2.3L473,72.8v67.2l-23.7,9l-24.3,0.7l-5.5,12.4h-27.2v-9.5l-6.7-3.2v-6.5l-5-3.5l11.7-5.2v-24.8h-38v8.9l7.8,5.1l-7.8,9.2V162
		h-15.9V72.8l29-20.4l1.8,9.2l-5.5,13.6l-13,3.3l1,3.9l15-3.7l4.2-10.3l12.8,8.3L383,92.8l4,0.2l0.7-18.5l-13.6-8.8l-0.7-3.7
		l0.1-0.3l-0.2-0.1L371,49.9l11.3-8l-10.1-5.1l2.4-9.4l-3-3.5l-18.2,12.8l2.1,9.8l-10.7,6.3l-11.4-2.1l-20.6,14.5l12,17.1l4.8-3.4
		v72.6L328.7,150.4z M427.6,153.5l22.4-0.6l22.9-8.7V162h-49.1L427.6,153.5z"/>
	<polygon points="300.4,162.2 295.7,157.4 291.2,159.9 289.3,165.4 297.4,165.9 	"/>
	<polygon points="310.2,151.2 305.5,146.4 300.9,148.9 299.1,154.4 307.2,154.9 	"/>
	<polygon points="338.5,184.2 339.3,179.9 333.1,177.1 327.7,177.7 324.6,183.1 325.7,186.8 332.8,186.8 	"/>
	<polygon points="301.7,180.2 298.6,185.6 299.7,189.3 306.8,189.3 312.5,186.7 313.3,182.4 307.1,179.6 	"/>
	<polygon points="339.7,209.4 349.4,205 350.8,197.7 340.1,192.9 330.9,193.8 325.6,203.1 327.5,209.4 	"/>
	<polygon points="357.2,180.6 357.5,175.9 350,173.9 348.2,179.4 351.2,183.1 	"/>
	<polygon points="341.2,47.8 347.2,45.3 347.5,40.5 342.7,39.3 340,38.5 338.6,43 338.2,44 	"/>
	<polygon points="361.2,201.1 367.2,198.6 367.5,193.9 360,191.9 358.2,197.4 	"/>
	<path d="M307.7,65.7c0.2,0.2,0.5,0.4,0.8,0.4c0.2,0,0.4-0.1,0.6-0.2c0.4-0.3,0.5-1,0.1-1.4v0c0,0-0.1-0.1-0.2-0.2
		c-0.3-0.5-1-1.7-1-3.1c0-1.2,0.5-2.6,2.5-4.2c0.4-0.3,0.5-1,0.2-1.4c-0.3-0.4-1-0.5-1.4-0.2c-2.4,1.8-3.3,3.9-3.3,5.8
		C306.1,63.8,307.7,65.6,307.7,65.7z"/>
	<path d="M303.9,67.5c0.2,0,0.4-0.1,0.6-0.2c0.4-0.3,0.5-1,0.2-1.4h0c0,0-0.1-0.1-0.2-0.4c-0.4-0.7-1.4-2.6-1.4-4.7
		c0-2.2,0.9-4.7,4.4-7.1c0.5-0.3,0.6-0.9,0.3-1.4c-0.3-0.5-0.9-0.6-1.4-0.3c-4,2.7-5.3,6-5.3,8.8c0,3.6,1.9,6.1,2,6.2
		C303.3,67.4,303.6,67.5,303.9,67.5z"/>
	<rect x="412" y="102.6" transform="matrix(0.9896 -0.1435 0.1435 0.9896 -12.4973 62.5416)" width="30.7" height="30.7"/>
</g>
</svg>
