<svg xmlns="http://www.w3.org/2000/svg" viewBox="0 0 24 24.9"><circle cx="9.5" cy="15.5" r=".5"/><circle cx="8.5" cy="13.5" r=".5"/><circle cx="6.5" cy="14.5" r=".5"/><circle cx="11.5" cy="12.5" r=".5"/><circle cx="12.5" cy="15.5" r=".5"/><circle cx="13.5" cy="10.5" r=".5"/><circle cx="13.5" cy="12.5" r=".5"/><path d="M9 18H3c-1.7 0-3 1.3-3 3s1.3 3 3 3h6c1.7 0 3-1.3 3-3s-1.3-3-3-3zm-3 5H3c-1.1 0-2-.9-2-2s.9-2 2-2h3v4zm17.5-5H22V7l-2-1V1.5c0-.3-.2-.5-.5-.5s-.5.2-.5.5V6l-2 1v11h-1.5c-.3 0-.5.2-.5.5s.2.5.5.5H18v4h-1.4c-.3 0-.5.2-.5.5s.2.5.5.5h5.9c.3 0 .5-.2.5-.5s-.2-.5-.5-.5H21v-4h2.5c.3 0 .5-.2.5-.5s-.2-.5-.5-.5zM20 23h-1v-4h1v4zm1-13h-.5c-.3 0-.5.2-.5.5s.2.5.5.5h.5v1h-.5c-.3 0-.5.2-.5.5s.2.5.5.5h.5v1h-.5c-.3 0-.5.2-.5.5s.2.5.5.5h.5v1h-.5c-.3 0-.5.2-.5.5s.2.5.5.5h.5v1h-3V9h3v1zM0 9c0 .6.4 1 1 1h3v1c0 .6.4 1 1 1s1-.4 1-1v-1h3c.6 0 1-.4 1-1s-.4-1-1-1H7.4l2.3-2.3c.4-.4.4-1 0-1.4s-1-.4-1.4 0L6 6.6V3c0-.6-.4-1-1-1s-1 .4-1 1v3.6L1.7 4.3c-.4-.4-1-.4-1.4 0s-.4 1 0 1.4L2.6 8H1c-.6 0-1 .4-1 1z"/></svg>