<?xml version="1.0" encoding="utf-8"?>
<!-- Generator: Adobe Illustrator 22.1.0, SVG Export Plug-In . SVG Version: 6.00 Build 0)  -->
<svg version="1.1" id="Layer_1" xmlns="http://www.w3.org/2000/svg" xmlns:xlink="http://www.w3.org/1999/xlink" x="0px" y="0px"
	 viewBox="0 0 100 101.9" style="enable-background:new 0 0 100 101.9;" xml:space="preserve">
<g>
	<path d="M79,74.4c0,0,6.8-17,5-24.7l-2.9-24c-1-6.5-8.7-6.3-9,0.8l0,12.7c0,0.1,0.4,5.5-2.7,8.7c-0.9,1-1.8,1.7-2.7,2.4
		c-1.9,1.5-3.5,2.8-5.1,6.5c-0.9,2-1.5,5.2-1.9,9.2c-0.1,0.8-0.7,1.4-1.5,1.4c0,0-0.1,0-0.1,0c-0.9-0.1-1.5-0.8-1.4-1.7
		c0.4-4.4,1.1-7.8,2.1-10.2c1.9-4.4,4-6.1,6-7.7c0.8-0.7,1.6-1.3,2.3-2.1c0.7-0.8,1-1.5,1-1.5L45.9,4.5c-2.8-5.1-10.5-0.8-7.6,4.3
		l14.3,25.6c1,1.9-1.9,3.5-2.9,1.6L31.8,4C28.6-1.7,21,2.6,24.2,8.3l17.9,32c1,1.8-1.9,3.4-2.9,1.6L25.7,17.8
		c-3.2-5.8-10.7-1.2-7.6,4.3l13.5,24.1c1.1,2-1.9,3.4-2.9,1.6L19.8,32c-3.2-5.7-10.7-1.4-7.6,4.2l35.5,63.5h45.4L79,74.4z M38.2,67
		c-0.9-3.1,0.8-6.3,3.7-7.4c1,0.7,2.2,1.2,3.5,1.4l-5.1,9.2C39.3,69.3,38.6,68.3,38.2,67z M47.9,60.9c0.2,0,0.3,0,0.5-0.1
		c0.8,0.7,1.3,1.7,1.6,2.7c0.5,1.6,0.3,3.2-0.5,4.7c-0.8,1.4-2.1,2.5-3.7,2.9c-1.2,0.3-2.4,0.3-3.5-0.1L47.9,60.9z M46.7,58.9
		c-1.7,0-3.3-0.7-4.4-1.9c-0.9-1-1.5-2.1-1.6-3.4l12.1,0.3c-0.2,1.3-0.8,2.4-1.8,3.4C49.8,58.2,48.3,58.9,46.7,58.9z M40.7,51.3
		c0.3-1.2,0.9-2.2,1.7-3.1c1.2-1.1,2.7-1.7,4.3-1.7c1.7,0,3.3,0.7,4.4,1.9c0.8,0.9,1.4,2,1.6,3.1L40.7,51.3z"/>
	<g>
		<path d="M15.1,88.4c1,1.1,2.4,2,4,2.3c3.9,0.8,7.8-1.8,8.5-5.8c0.3-1.6,0-3.2-0.7-4.6L15.1,88.4z"/>
		<path d="M25.7,78.5c-1-1-2.3-1.8-3.9-2.1c-3.9-0.8-7.7,1.8-8.5,5.8c-0.3,1.5-0.1,3,0.5,4.3L25.7,78.5z"/>
	</g>
</g>
</svg>
