<?xml version="1.0" encoding="utf-8"?>
<!-- Generator: Adobe Illustrator 22.1.0, SVG Export Plug-In . SVG Version: 6.00 Build 0)  -->
<svg version="1.1" id="Layer_1" xmlns="http://www.w3.org/2000/svg" xmlns:xlink="http://www.w3.org/1999/xlink" x="0px" y="0px"
	 viewBox="0 0 52 51.6" style="enable-background:new 0 0 52 51.6;" xml:space="preserve">
<g>
	<path d="M10.4,29.4c1.2,0,2.5-0.3,3.6-0.8l10.2-4.9l-7.3-15L6.7,13.6c-4.1,2-5.9,7-3.9,11.1C4.3,27.7,7.3,29.4,10.4,29.4z"/>
	<path d="M36.2,17.9c4.2-2,5.9-7,3.9-11.1c-1.4-3-4.4-4.7-7.5-4.7c-1.2,0-2.5,0.3-3.6,0.8L18.7,7.8l7.3,15L36.2,17.9z"/>
	<path d="M31.7,24.5c-4,4-4.2,10.3-0.7,14.5l15.1-15.1C41.9,20.4,35.6,20.6,31.7,24.5z"/>
	<path d="M47.5,25.3L32.4,40.4c2,1.6,4.4,2.5,6.8,2.5c1.4,0,2.8-0.3,4-0.8c1.3-0.5,2.5-1.3,3.6-2.4C50.8,35.8,51,29.5,47.5,25.3z"/>
	<path d="M2,42.9v2.8c0,3,6.3,4.3,12.1,4.3s12.1-1.3,12.1-4.2V43c-3.3,2.4-9.7,2.6-12.1,2.6S5.3,45.3,2,42.9z"/>
	<path d="M14.1,35.1C8.3,35.1,2,36.5,2,39.3c0,2.9,6.3,4.2,12.1,4.2s12.1-1.3,12.1-4.2C26.3,36.5,20,35.1,14.1,35.1z"/>
</g>
</svg>
