<?xml version="1.0" encoding="utf-8"?>
<!-- Generator: Adobe Illustrator 22.1.0, SVG Export Plug-In . SVG Version: 6.00 Build 0)  -->
<svg version="1.1" id="Layer_1" xmlns="http://www.w3.org/2000/svg" xmlns:xlink="http://www.w3.org/1999/xlink" x="0px" y="0px"
	 viewBox="0 0 128 130" style="enable-background:new 0 0 128 130;" xml:space="preserve">
<g>
	<g>
		<path d="M66,65c-5.2,5.9-8,13.3-8,21.2c0,8.5,3.3,16.6,9.4,22.6c6,6,14.1,9.4,22.6,9.4c7.9,0,15.3-2.8,21.2-8L66,65z"/>
		<path d="M90,54.2c-7.9,0-15.3,2.8-21.1,8l45.2,45.2c5.2-5.8,8-13.3,8-21.1c0-8.5-3.3-16.6-9.4-22.6S98.5,54.2,90,54.2z"/>
	</g>
	<g>
		<path d="M30,0C16.8,0,6,10.9,6,24.2v79.5C6,117.1,16.8,128,30,128s24-10.9,24-24.2V24.2C54,10.9,43.2,0,30,0z M47.6,29.6
			c0,1.1-0.9,2-2,2c-1.1,0-2-0.9-2-2s0.9-2,2-2C46.7,27.6,47.6,28.5,47.6,29.6z M44.5,18.2c1.1,0,2,0.9,2,2s-0.9,2-2,2
			c-1.1,0-2-0.9-2-2S43.4,18.2,44.5,18.2z M43.6,40.2c1.1,0,2,0.9,2,2s-0.9,2-2,2c-1.1,0-2-0.9-2-2S42.5,40.2,43.6,40.2z M43.6,54.2
			c1.1,0,2,0.9,2,2s-0.9,2-2,2c-1.1,0-2-0.9-2-2S42.5,54.2,43.6,54.2z M38.4,10.6c1.1,0,2,0.9,2,2s-0.9,2-2,2c-1.1,0-2-0.9-2-2
			S37.3,10.6,38.4,10.6z M38.4,35c-1.1,0-2-0.9-2-2s0.9-2,2-2c1.1,0,2,0.9,2,2S39.5,35,38.4,35z M40.4,49.2c0,1.1-0.9,2-2,2
			c-1.1,0-2-0.9-2-2s0.9-2,2-2C39.5,47.2,40.4,48.1,40.4,49.2z M36.4,20.2c1.1,0,2,0.9,2,2s-0.9,2-2,2c-1.1,0-2-0.9-2-2
			S35.3,20.2,36.4,20.2z M34.1,40.6c1.1,0,2,0.9,2,2s-0.9,2-2,2c-1.1,0-2-0.9-2-2S33,40.6,34.1,40.6z M24.4,49.2c1.1,0,2,0.9,2,2
			s-0.9,2-2,2c-1.1,0-2-0.9-2-2S23.3,49.2,24.4,49.2z M22.1,42.2c0-1.1,0.9-2,2-2c1.1,0,2,0.9,2,2s-0.9,2-2,2
			C23,44.2,22.1,43.3,22.1,42.2z M26.1,31c0-1.1,0.9-2,2-2c1.1,0,2,0.9,2,2s-0.9,2-2,2C27,33,26.1,32.1,26.1,31z M32.1,54.2
			c1.1,0,2,0.9,2,2s-0.9,2-2,2c-1.1,0-2-0.9-2-2S31,54.2,32.1,54.2z M30.1,6.6c1.1,0,2,0.9,2,2s-0.9,2-2,2c-1.1,0-2-0.9-2-2
			S29,6.6,30.1,6.6z M26.4,17.7c1.1,0,2,0.9,2,2s-0.9,2-2,2c-1.1,0-2-0.9-2-2S25.3,17.7,26.4,17.7z M22.1,10.1c1.1,0,2,0.9,2,2
			s-0.9,2-2,2c-1.1,0-2-0.9-2-2S21,10.1,22.1,10.1z M21.1,27.1c0,1.1-0.9,2-2,2c-1.1,0-2-0.9-2-2s0.9-2,2-2
			C20.2,25.1,21.1,26,21.1,27.1z M16.1,17.7c1.1,0,2,0.9,2,2s-0.9,2-2,2c-1.1,0-2-0.9-2-2S15,17.7,16.1,17.7z M16.1,33
			c1.1,0,2,0.9,2,2s-0.9,2-2,2c-1.1,0-2-0.9-2-2S15,33,16.1,33z M18.1,55.7c0,1.1-0.9,2-2,2c-1.1,0-2-0.9-2-2s0.9-2,2-2
			C17.2,53.7,18.1,54.6,18.1,55.7z M14.1,44.1c1.1,0,2,0.9,2,2s-0.9,2-2,2c-1.1,0-2-0.9-2-2S13,44.1,14.1,44.1z M50,103.7
			c0,11.2-9,20.2-20,20.2s-20-9.1-20-20.2V64h40V103.7z"/>
		<path d="M30.8,122.5c-0.2,0-0.5,0-0.7-0.1c-6.4-1.8-14-7-14-21.6v-7.3c0-0.8,0.9-1.4,2-1.4s2,0.6,2,1.4v7.3
			c0,10.2,4,16.8,11.5,18.8c1,0.3,1.5,1.1,1.1,1.9C32.3,122.2,31.6,122.5,30.8,122.5z"/>
	</g>
	<g>
		<path d="M84,21.7c-6-5.5-13.3-9.1-18.5-9.1c-2.3,0-4.2,0.7-5.5,2c-4.9,4.9-0.3,15.9,7.1,24L84,21.7z"/>
		<path d="M94.5,36.5c-1.6-4-4.3-8.3-7.6-12L69.9,41.4c6,5.5,13.3,9.1,18.5,9.1c2.3,0,4.2-0.7,5.5-2C96.4,46.1,96.6,41.8,94.5,36.5z
			"/>
	</g>
</g>
</svg>
