<?xml version="1.0" encoding="utf-8"?>
<!-- Generator: Adobe Illustrator 22.1.0, SVG Export Plug-In . SVG Version: 6.00 Build 0)  -->
<svg version="1.1" id="Layer_1" xmlns="http://www.w3.org/2000/svg" xmlns:xlink="http://www.w3.org/1999/xlink" x="0px" y="0px"
	 viewBox="0 0 100 81" style="enable-background:new 0 0 100 81;" xml:space="preserve">
<path d="M79.9,13.5c-2.1,0-4.1,1.2-5,3L49.2,60.9c-0.3,0.6-0.5,1-0.6,1.5l-2.2,14.8c-0.1,0.9,0.3,1.8,1.1,2.2
	c0.8,0.4,1.8,0.4,2.5-0.2l11.9-9.5c0.3-0.2,0.5-0.5,0.7-0.8l23.1-39.9l1.6,0.9c0.6,0.4,0.7,0.9,0.4,1.4l-9.8,16.9
	c-0.6,1-0.2,2.5,0.8,3c1,0.6,2.5,0.2,3-0.8l9.8-17c1.4-2.6,1.7-5.3-2-7.4l-1.6-0.9l0.5-0.9c1.6-2.8,0.6-6.4-2.2-7.9l-3.3-2
	C82,13.8,81,13.5,79.9,13.5L79.9,13.5z M52.9,63.4c0.8,0.1,2,0.5,3.2,1.1c1.1,0.6,2,1.5,2.5,2.1l-7,5.6L52.9,63.4L52.9,63.4z"/>
<path d="M70.6,61.6c-1.2,0-2.2,0.9-2.3,2.2c0,1.2,0.9,2.2,2.2,2.3c0,0,0.1,0,0.1,0h21.2c1.2,0,2.2-1,2.2-2.3c0-1.2-1-2.1-2.2-2.2
	H70.6z M26.8,1.6c-1.1,0.1-2,1.1-2,2.2v4.4h-7.7c-3.5,0-6.4,1.4-8.3,3.5C6.9,13.9,6,16.6,6,19.3s0.9,5.5,2.8,7.6
	c0.4,0.5,0.9,0.9,1.4,1.3c-0.5,0.4-1,0.8-1.4,1.3C6.9,31.7,6,34.4,6,37.1c0,2.7,0.9,5.5,2.8,7.6c0.4,0.5,0.9,0.9,1.4,1.3
	c-0.5,0.4-1,0.8-1.4,1.3C6.9,49.4,6,52.2,6,54.9c0,2.7,0.9,5.5,2.8,7.6c1.9,2.1,4.8,3.5,8.3,3.5h26c1.1,0,2.2-1,2.2-2.2
	s-1-2.2-2.2-2.2h-26c-2.4,0-4-0.8-5-2c-1.1-1.2-1.7-2.9-1.7-4.7c0-1.7,0.6-3.4,1.7-4.7c1.1-1.2,2.6-2,5-2h35c1.1,0,2.2-1,2.2-2.2
	c0-1.1-1-2.2-2.2-2.2h-35c-2.4,0-4-0.8-5-2c-1.1-1.2-1.7-2.9-1.7-4.7c0-1.7,0.6-3.4,1.7-4.7c1.1-1.2,2.6-2,5-2h7.7v6.3
	c0,0.8,0.5,1.6,1.2,2c0.7,0.4,1.6,0.3,2.3-0.2l9.9-7.4l9.9,7.4c0.7,0.5,1.6,0.6,2.3,0.2s1.3-1.2,1.2-2v-6.3H63c1.1,0,2.2-1,2.2-2.2
	S64.2,26,63,26H51.8V12.6h40c1.1,0,2.2-1,2.2-2.2s-1-2.2-2.2-2.2h-40V3.8c0-1.2-1.1-2.2-2.2-2.2H27C27,1.6,26.9,1.6,26.8,1.6z
	 M17.1,12.6h7.7V26h-7.7c-2.4,0-4-0.8-5-2c-1.1-1.2-1.7-2.9-1.7-4.7s0.6-3.4,1.7-4.7S14.7,12.6,17.1,12.6z"/>
</svg>
