<svg xmlns="http://www.w3.org/2000/svg" viewBox="0 0 32 18.4"><path d="M30.8 5h-.1c-.9-2.9-3.5-5-6.7-5-2.9 0-5.5 1.8-6.5 4.4-.4-.2-1-.4-1.5-.4s-1.1.2-1.5.4C13.5 1.8 10.9 0 8 0 4.8 0 2.1 2.1 1.3 5h-.1c-.6-.1-1.1.3-1.2.8-.1.6.3 1.1.8 1.2H1c0 2.3 1.2 4.4 2.9 5.7l-2.6 2.6c-.4.4-.4 1 0 1.4.2.2.4.3.7.3s.5-.1.7-.3l3.1-3.1c.7.3 1.4.4 2.2.4 2.8 0 5.3-1.7 6.4-4.1l1.6-.3 1.6.3c1.1 2.4 3.5 4.1 6.4 4.1.8 0 1.5-.1 2.2-.4l3.1 3.1c.2.2.5.3.7.3s.5-.1.7-.3c.4-.4.4-1 0-1.4l-2.6-2.6C29.8 11.4 31 9.3 31 7h.2c.5-.1.9-.6.8-1.2s-.6-.9-1.2-.8zM24 2c2.2 0 4 1.4 4.7 3.4L19 7.1V7c0-2.8 2.2-5 5-5zm-8 4c.6 0 1 .4 1 1v.4l-1 .2-1-.2V7c0-.6.4-1 1-1zM8 2c2.8 0 5 2.2 5 5v.1L3.3 5.4C4 3.4 5.8 2 8 2zM3 7.4l7.1 1.2-.5.1c-1.4.2-2.6.9-3.5 1.8l-.7.7C4 10.4 3.2 9 3 7.4zM8 12c-.2 0-.4 0-.5-.1.7-.7 1.5-1.1 2.4-1.3l1.8-.3C10.7 11.4 9.5 12 8 12zm12.3-1.6l1.8.3c.9.2 1.8.6 2.4 1.3H24c-1.5 0-2.7-.6-3.7-1.6zm6.3.8l-.6-.7c-1-1-2.2-1.6-3.5-1.8l-.6-.1L29 7.4c-.2 1.6-1 3-2.4 3.8z"/></svg>