<?xml version="1.0" encoding="utf-8"?>
<!-- Generator: Adobe Illustrator 22.1.0, SVG Export Plug-In . SVG Version: 6.00 Build 0)  -->
<svg version="1.1" id="Layer_1" xmlns="http://www.w3.org/2000/svg" xmlns:xlink="http://www.w3.org/1999/xlink" x="0px" y="0px"
	 viewBox="0 0 100 45.5" style="enable-background:new 0 0 100 45.5;" xml:space="preserve">
<style type="text/css">
	.st0{fill:none;}
</style>
<rect x="5" y="-22.4" class="st0" width="90" height="90"/>
<g>
	<path d="M37.2,23.9c-0.4-0.1-0.8,0.2-0.9,0.6c-0.9,4.2-4.6,7.3-9,7.3c-4.3,0-8.1-3.1-9-7.3c-0.1-0.4-0.5-0.7-0.9-0.6
		c-0.4,0.1-0.7,0.5-0.6,0.9c1,4.9,5.4,8.5,10.5,8.5c5.1,0,9.5-3.6,10.5-8.5C37.9,24.4,37.6,24,37.2,23.9z"/>
	<path d="M93.9,10.9h-5.4c-0.6-0.8-1.2-1.5-1.9-2.2C82.9,5,78,3,72.7,3S62.5,5,58.8,8.7c-0.6,0.6-1.1,1.2-1.6,1.9
		C55,9.4,52.5,8.8,50,8.8c-2.5,0-5,0.6-7.2,1.8c-0.5-0.6-1.1-1.3-1.6-1.8C37.5,5,32.6,3,27.3,3c-5.3,0-10.2,2-13.9,5.8
		c-0.7,0.7-1.3,1.4-1.9,2.2H6.1c-1.9,0-3.4,1.5-3.4,3.4v1.9c0,1.9,1.5,3.4,3.4,3.4h1.7c-0.2,1-0.2,2-0.2,3.1c0,5.3,2,10.2,5.8,13.9
		c3.7,3.7,8.7,5.8,13.9,5.8c5.3,0,10.2-2,13.9-5.8c3.7-3.7,5.8-8.7,5.8-13.9c0-1.5-0.2-3-0.5-4.5c1.1-0.7,2.3-1,3.5-1
		c1.3,0,2.5,0.4,3.5,1c-0.3,1.5-0.5,3-0.5,4.5c0,5.3,2,10.2,5.8,13.9c3.7,3.7,8.7,5.8,13.9,5.8s10.2-2,13.9-5.8
		c3.7-3.7,5.8-8.7,5.8-13.9c0-1-0.1-2.1-0.2-3.1h1.7c1.9,0,3.4-1.5,3.4-3.4v-1.9C97.3,12.5,95.8,10.9,93.9,10.9z M72.7,35.9
		c-7.3,0-13.3-5.9-13.3-13.3c0-7.3,5.9-13.3,13.3-13.3S86,15.3,86,22.6C86,30,80,35.9,72.7,35.9z M27.3,35.9C20,35.9,14,30,14,22.6
		C14,15.3,20,9.4,27.3,9.4c7.3,0,13.3,5.9,13.3,13.3C40.6,30,34.6,35.9,27.3,35.9z"/>
	<path d="M82.6,23.9c-0.4-0.1-0.8,0.2-0.9,0.6c-0.9,4.2-4.6,7.3-9,7.3c-4.3,0-8.1-3.1-9-7.3c-0.1-0.4-0.5-0.7-0.9-0.6
		s-0.7,0.5-0.6,0.9c1,4.9,5.4,8.5,10.5,8.5c5.1,0,9.5-3.6,10.5-8.5C83.2,24.4,83,24,82.6,23.9z"/>
</g>
</svg>
