<?xml version="1.0" encoding="utf-8"?>
<!-- Generator: Adobe Illustrator 22.1.0, SVG Export Plug-In . SVG Version: 6.00 Build 0)  -->
<svg version="1.1" id="Layer_1" xmlns="http://www.w3.org/2000/svg" xmlns:xlink="http://www.w3.org/1999/xlink" x="0px" y="0px"
	 viewBox="0 0 811 314" style="enable-background:new 0 0 811 314;" xml:space="preserve">
<g>
	<path d="M22,126.1c4,5,6,9,7,16c16,97,19,110,60,131c52,28,162,21,214-6c54-29,75-127,76-132c1-16,51-18,53,1c1,4,21,102,76,131
		c52,27,162,34,214,6c40-21,44-34,60-131c1-7,2-11,7-16c15-16,15-74-19-80c-84-17-235-22-312,18c-40,20-65,20-105,0
		c-77-40-229-35-312-18C7,52.1,6,110.1,22,126.1z M781,80.1v14l-18-7L781,80.1z M467,100.1c13-32,137-37,176-37c61,0,107,8,107,78
		c0,32-6,88-50,109c-57,28-171,22-206-37C453,143.1,467,102.1,467,100.1z M168,63.1c40,0,162,5,176,38c0,1,14,42-28,112
		c-35,59-148,65-205,37c-44-21-50-77-50-109C61,71.1,107,63.1,168,63.1z M29,80.1l19,7l-19,7V80.1z"/>
</g>
</svg>
