<?xml version="1.0" encoding="utf-8"?>
<!-- Generator: Adobe Illustrator 22.1.0, SVG Export Plug-In . SVG Version: 6.00 Build 0)  -->
<svg version="1.1" xmlns="http://www.w3.org/2000/svg" xmlns:xlink="http://www.w3.org/1999/xlink" x="0px" y="0px"
	 viewBox="0 0 219.8 73.9" style="enable-background:new 0 0 219.8 73.9;" xml:space="preserve">
<g id="Layer_2">
</g>
<g id="Layer_1">
	<path d="M165.4,2.3c-35.7,1.9-38.1,9.5-53.5,9.9c-17,0.4-16.8-2.8-24.7-4.8S66.1,0.3,35,0.7C8.8,0.9,1.5,4.5,1.5,4.5l2.3,14.3
		c0,0,3.4,0.3,4.6,2.9c1.2,2.5,5,19,6.4,24.4s5,14.8,9.1,17.3c4.1,2.5,15.2,8.9,30.6,7.7C70,69.8,82.3,68.3,89.6,55
		c7.2-13.3,10.4-20.4,12.1-24.2c1.7-3.7,4.9-5.8,8.1-6s7.3,0.3,9.9,7.4s7.4,19.5,13.9,25.8c6.5,6.3,17.1,14.2,35.9,12.9
		c18.9-1.3,28.5-3.9,32.4-14.1s6.4-20.1,7.7-27.4s3.4-9.9,4.7-10.6c1.4-0.7,2.4-1.2,2.4-1.2l1.6-14.1C218.3,3.6,203.8,0.3,165.4,2.3
		z M12.8,13.1c-2.4,0.2-4.9-0.8-4.9-0.8s2-2.4,5.3-2.2c3.2,0.2,4.4,1.7,4.4,1.7S15.1,12.9,12.8,13.1z M88.5,42
		c-3.7,10.9-9.6,16.4-16.9,20.5S45.8,66.2,36.8,63c-8.5-3-13.1-9.5-14.9-17.1c-1.7-7.6-1.8-23.1-1.5-26.2S21,10,37.3,7.2
		c21.2-3.6,44.9,4.5,50,8.8C93.2,21,92.2,31.2,88.5,42z M198.8,45.6c-1.7,7.7-6.2,14.1-14.7,17.2c-9,3.3-27.5,3.9-34.8-0.2
		c-7.3-4-13.3-9.5-17.1-20.3c-3.8-10.9-4.9-21,0.9-26c5-4.3,28.7-12.7,49.9-9.2c16.3,2.6,16.7,9.3,17,12.3
		C200.4,22.5,200.4,38,198.8,45.6z M207.5,12.8c-2.4,0.2-4.9-0.8-4.9-0.8s2-2.4,5.3-2.2c3.2,0.2,4.4,1.7,4.4,1.7
		S209.8,12.6,207.5,12.8z"/>
</g>
</svg>
