<?xml version="1.0" encoding="utf-8"?>
<!-- Generator: Adobe Illustrator 22.1.0, SVG Export Plug-In . SVG Version: 6.00 Build 0)  -->
<svg version="1.1" id="Layer_1" xmlns="http://www.w3.org/2000/svg" xmlns:xlink="http://www.w3.org/1999/xlink" x="0px" y="0px"
	 viewBox="0 0 249.4 215.2" style="enable-background:new 0 0 249.4 215.2;" xml:space="preserve">
<g>
	<path d="M123.3,184.6l-5.1-10.3l-2.6,4.6c-2.4,4.1-0.9,9.4,3.2,11.8c3.1,1.8,6.9,1.4,9.5-0.7C126.2,188.8,124.5,186.9,123.3,184.6z
		"/>
	<path d="M154.3,145.9l8.6,3l-5.2,44c-0.6,4.7,2.8,9,7.6,9.6c4.7,0.6,9-2.8,9.6-7.5l6.7-56.6l0.2-0.6l-35.8-12.4l-0.5,1.6
		l-11.2,19.5l9.2,18.6L154.3,145.9z"/>
	<path d="M182.8,134.5l11.5-33.3c0.1,0,0.2-0.1,0.2-0.1l51.2-21.6c3-1.2,4.3-4.7,3.1-7.6c-1.2-3-4.7-4.3-7.6-3.1l-47.7,20.1
		c-0.1,0-0.2-0.1-0.3-0.1l-24.8-8.6l-23.7-43.3c-1.5-2.8-5.1-3.8-7.9-2.3c-2.8,1.5-3.8,5.1-2.3,7.9l24.5,44.7l-12.1,35L182.8,134.5z
		"/>
	<ellipse transform="matrix(0.3273 -0.9449 0.9449 0.3273 65.7353 219.8476)" cx="187.3" cy="63.8" rx="17.4" ry="17.4"/>
	<path d="M126,183.3c2.5,5.1,8.8,7.2,13.9,4.7c5.1-2.5,7.2-8.8,4.7-13.9l-30.5-61.5l-0.2-0.6l-44.3,11l0.5,1.9l4.2,72.2
		c0.3,5.7,5.2,10.1,11,9.7c5.7-0.3,10.1-5.2,9.7-11l-3.4-57.6l10.6-2.6L126,183.3z"/>
	<path d="M112.8,107.7l-10.2-41c0.1-0.1,0.1-0.2,0.2-0.2l37.5-55.5c2.2-3.2,1.3-7.6-1.9-9.7c-3.2-2.2-7.6-1.3-9.7,1.9L93.8,54.7
		c-0.1,0-0.2,0-0.4,0.1l-30.7,7.7L10.3,34.3c-3.4-1.8-7.7-0.5-9.5,2.9c-1.8,3.4-0.5,7.6,2.9,9.5l54.2,29l10.7,43L112.8,107.7z"/>
	<ellipse transform="matrix(0.9703 -0.2418 0.2418 0.9703 -6.0164 18.1264)" cx="70.9" cy="33.6" rx="20.9" ry="20.9"/>
</g>
</svg>
