<?xml version="1.0" encoding="utf-8"?>
<!-- Generator: Adobe Illustrator 22.1.0, SVG Export Plug-In . SVG Version: 6.00 Build 0)  -->
<svg version="1.1" id="Layer_1" xmlns="http://www.w3.org/2000/svg" xmlns:xlink="http://www.w3.org/1999/xlink" x="0px" y="0px"
	 viewBox="0 0 100 98.4" style="enable-background:new 0 0 100 98.4;" xml:space="preserve">
<title>healthcare</title>
<path d="M86.4,50.8c-1.5,9.3-18.6,18-10.7,8.4c7.7-9.3,1.1-14.7-1.9-8.7c-2.6,5.3-7.4,5.8-13.2,14c-3.8,5.4-4.9,7.8-4.7,13.4
	c0,0,0,10.1-1.8,15.2c-0.2,0.7-0.4,2,0.4,2h12.1c1.7,0,2.4-0.2,2.5-0.8c1.3-7.5,0.3-11.6,1-11.9c6.8-2.4,14.4-10.5,19.5-19.3
	c2.1-3.7,3.3-5.6,4.3-9.3c1.1-4-0.3-10.5,0.8-16.3C96,31.6,89.4,32.5,86.4,50.8z"/>
<path d="M44,77.8c0.2-5.5-0.8-8-4.7-13.4c-5.8-8.2-10.6-8.7-13.2-14c-3-6-9.5-0.6-1.9,8.7c7.9,9.6-9.2,0.9-10.7-8.4
	c-3-18.3-9.6-19.1-8.5-13.2c1.1,5.8-0.3,12.3,0.8,16.3c1,3.6,2.1,5.6,4.3,9.3c5.1,8.7,12.8,16.8,19.5,19.3c0.7,0.2-0.3,4.3,1,11.9
	c0.1,0.6,0.8,0.8,2.5,0.8h12.1c0.9,0,0.7-1.3,0.4-2C44,87.9,44,77.8,44,77.8z"/>
<path d="M38.9,30.4l8.6,11.2l11.6-23.1l7,11.9h13.4c1-3,1.6-6.2,1.6-9.4c0-8.8-7.1-16-16-16c-6.7,0-12.7,4.2-15,10.5
	C47,7.2,37.8,2.9,29.5,6C23.2,8.3,19,14.3,19,21c0,3.2,0.6,6.4,1.6,9.4H38.9z"/>
<path d="M77.8,34.4H63.8l-4.4-7.5L48.2,49.1L37,34.4H22.2C30,51.4,50,63,50,63S70,51.4,77.8,34.4z"/>
</svg>
