<?xml version="1.0" encoding="utf-8"?>
<!-- Generator: Adobe Illustrator 22.1.0, SVG Export Plug-In . SVG Version: 6.00 Build 0)  -->
<svg version="1.1" xmlns="http://www.w3.org/2000/svg" xmlns:xlink="http://www.w3.org/1999/xlink" x="0px" y="0px"
	 viewBox="0 0 100 77.6" style="enable-background:new 0 0 100 77.6;" xml:space="preserve">
<g id="Layer_2">
</g>
<g id="Layer_1">
	<g>
		<path d="M97.5,74c-0.3-2.8-1.5-11.9-2.1-13.9c-1.1-3.2-5.6-10.4-12.8-12.1c-0.2-0.1-3.8-1.1-4.9-1.4c-4-1.2-7.4-1-9.9-0.9
			c-1.2,0.1-2.3,0.1-2.9,0c-1-0.3-4.4-2.9-7.4-5.6c-1.3-1.2-3.3-1.1-4.5,0.3c-1.2,1.3-1.1,3.3,0.3,4.5c3.3,2.9,7.7,6.5,10.3,7
			c1.5,0.3,3,0.2,4.6,0.1c1.6-0.1,3.2-0.2,5,0.1c0.1,3.2-0.8,7.7-1.8,11.8c-3.6-2.9-7.3-5.8-9-6.7c-1.2-0.6-2.6-0.7-3.9-0.3
			c-3.6,1.2-7.3,7.5-10,13.1h-8.3c-2.1,0-3.7,1.7-3.7,3.7c0,2.1,1.7,3.7,3.7,3.7h39c1.5,0,2.8-0.9,3.4-2.2c2-3.2,4.4-10.9,4.8-16.6
			c1,1.3,1.6,2.5,1.9,3.2c0.3,1,1.2,7.4,1.8,12.7c0.2,1.6,1.6,2.8,3.2,2.8c0.1,0,0.3,0,0.4,0C96.4,77.3,97.7,75.7,97.5,74z
			 M60.3,64.7c1.6,1.2,4.2,3.2,6.9,5.4H56.9C58.1,67.8,59.4,65.8,60.3,64.7z"/>
		<ellipse cx="83.9" cy="38.2" rx="7.4" ry="7.4"/>
		<path d="M25.1,44c0.8-2.4,2-6.2,3.2-10c0.5,0.5,0.9,0.9,1,0.9c2.7,2.5,11,5.6,12.7,6.2c0.4,0.1,0.7,0.2,1.1,0.2
			c1.3,0,2.5-0.8,3-2.1c0.6-1.7-0.3-3.5-1.9-4.1c-4.1-1.5-9.3-3.7-10.5-4.8c-0.7-0.6-1.9-1.9-3.1-3.4c0.5-1.7,0.8-3,0.9-3.6
			c0.5-3.6-6.2-7.7-10.7-4.7c-2.8,1.8-8.7,14.5-8.7,24.8c0,4.2-0.5,11.9-1,13.3c-1,2.1-5.7,11-8.1,15.5c-1,1.8-0.3,4.1,1.5,5
			c0.6,0.3,1.2,0.4,1.7,0.4c1.3,0,2.6-0.7,3.3-2c0.3-0.5,7-13,8.3-15.8c0.9-1.9,1.4-6.4,1.7-10.8c1.5,2.5,3.5,5.9,4.6,7.9
			c0.2,2.1-0.8,10-1.9,16.4c-0.3,2,1,3.9,3.1,4.3c2,0.3,3.9-1,4.3-3.1c2.9-17.7,1.8-19.8,1.3-20.8C29.6,51.3,26.8,46.7,25.1,44z"/>
		<ellipse cx="31.8" cy="9.4" rx="7.7" ry="7.7"/>
	</g>
</g>
</svg>
