<?xml version="1.0" encoding="utf-8"?>
<!-- Generator: Adobe Illustrator 22.1.0, SVG Export Plug-In . SVG Version: 6.00 Build 0)  -->
<svg version="1.1" id="Layer_1" xmlns="http://www.w3.org/2000/svg" xmlns:xlink="http://www.w3.org/1999/xlink" x="0px" y="0px"
	 viewBox="0 0 100 54" style="enable-background:new 0 0 100 54;" xml:space="preserve">
<style type="text/css">
	.st0{display:none;}
	.st1{display:inline;}
	.st2{stroke:#FFFFFF;stroke-width:7;stroke-miterlimit:10;}
	.st3{fill:none;stroke:#000000;stroke-width:5;stroke-miterlimit:10;}
	.st4{display:inline;fill:none;stroke:#000000;stroke-width:12;stroke-miterlimit:10;}
	.st5{stroke:#FFFFFF;stroke-width:5;stroke-miterlimit:10;stroke-dasharray:12.5631,12.5631;}
</style>
<g class="st0">
	<g class="st1">
		<circle cx="26" cy="22.2" r="8"/>
		<polygon points="18,34.2 18,54.2 24,54.2 28,54.2 34,54.2 34,34.2 		"/>
	</g>
	<g class="st1">
		<polyline points="33,43.5 51,17.3 45,17.3 29,37.3 		"/>
		<polyline points="19,43.5 1,17.3 7,17.3 23,37.3 		"/>
	</g>
	<g class="st1">
		<path d="M2.2,48c5.7-1.5,6.6,5.9,12.5,5.9s5.9-6,11.7-6c5.9,0,5.9,6,11.7,6c5.9,0,5.9-6,11.7-6c5.9,0,5.9,6,11.8,6
			c5.9,0,5.9-6,11.7-6c5.9,0,5.9,6,11.8,6s6.8-7.4,12.5-5.9c1.7,0.4-4.1,2-5.3,3.2c-1.2,1.2,2.9,5.5,1.7,6.7
			c-1.2,1.2-5.4-3.1-6.7-1.9c-1.2,1.2,2.9,5.5,1.7,6.7s-5.4-3.1-6.7-1.9c-1.3,1.2,2.9,5.5,1.7,6.7c-1.3,1.2-5.4-3.1-6.7-1.9
			c-1.3,1.2,2,7,0.3,7.5c-3.3,0.9-4.1-5.9-7.5-5.9s-3.4,6-6.7,6s-3.4-6-6.7-6c-3.4,0-3.4,6-6.7,6c-3.4,0-3.4-6-6.7-6
			c-3.4,0-3.4,6-6.8,6c-3.4,0-3.4-6-6.8-6s-4.2,6.8-7.5,5.9c-1.7-0.4,1.6-6.3,0.3-7.5c-1.2-1.2-5.4,3.1-6.7,1.9
			c-1.2-1.2,2.9-5.5,1.7-6.7c-1.2-1.2-5.4,3.1-6.7,1.9s2.9-5.5,1.7-6.7s-5.4,3.1-6.7,1.9c-1.3-1.2,2.9-5.5,1.7-6.7
			C5.2,48.8,0.6,48.5,2.2,48z"/>
		<path class="st2" d="M2.2,48c5.7-1.5,6.6,5.9,12.5,5.9s5.9-6,11.7-6c5.9,0,5.9,6,11.7,6c5.9,0,5.9-6,11.7-6c5.9,0,5.9,6,11.8,6
			c5.9,0,5.9-6,11.7-6c5.9,0,5.9,6,11.8,6s6.8-7.4,12.5-5.9c1.7,0.4-4.1,2-5.3,3.2c-1.2,1.2,2.9,5.5,1.7,6.7
			c-1.2,1.2-5.4-3.1-6.7-1.9c-1.2,1.2,2.9,5.5,1.7,6.7s-5.4-3.1-6.7-1.9c-1.3,1.2,2.9,5.5,1.7,6.7c-1.3,1.2-5.4-3.1-6.7-1.9
			c-1.3,1.2,2,7,0.3,7.5c-3.3,0.9-4.1-5.9-7.5-5.9s-3.4,6-6.7,6s-3.4-6-6.7-6c-3.4,0-3.4,6-6.7,6c-3.4,0-3.4-6-6.7-6
			c-3.4,0-3.4,6-6.8,6c-3.4,0-3.4-6-6.8-6s-4.2,6.8-7.5,5.9c-1.7-0.4,1.6-6.3,0.3-7.5c-1.2-1.2-5.4,3.1-6.7,1.9
			c-1.2-1.2,2.9-5.5,1.7-6.7c-1.2-1.2-5.4,3.1-6.7,1.9s2.9-5.5,1.7-6.7s-5.4,3.1-6.7,1.9c-1.3-1.2,2.9-5.5,1.7-6.7
			C5.2,48.8,0.6,48.5,2.2,48z"/>
	</g>
	<g class="st1">
		<path class="st3" d="M3,43.9c5.9,0,5.9,6,11.7,6s5.9-6,11.7-6c5.9,0,5.9,6,11.7,6c5.9,0,5.9-6,11.7-6c5.9,0,5.9,6,11.8,6
			c5.9,0,5.9-6,11.7-6c5.9,0,5.9,6,11.8,6s5.9-6,11.8-6"/>
	</g>
	<circle class="st4" cx="74" cy="20.2" r="12"/>
	<g class="st1">
		<circle class="st5" cx="74" cy="20.2" r="12"/>
	</g>
</g>
<g>
	<g>
		<circle cx="26" cy="22.2" r="8"/>
		<path d="M89.3,45.2c-1.4,1.5-2.3,2.2-4.1,2.2s-2.6-0.8-4.1-2.2c-1.6-1.6-3.7-3.8-7.7-3.8c-4,0-6.1,2.2-7.7,3.8
			c-1.4,1.5-2.3,2.2-4.1,2.2c-1.8,0-2.6-0.8-4.1-2.2c-1.5-1.6-3.7-3.8-7.7-3.8c-4,0-6.1,2.2-7.7,3.8c-1.4,1.5-2.3,2.2-4.1,2.2
			c-1.8,0-2.6-0.8-4.1-2.2c0-0.1-0.1-0.1-0.2-0.2v-3l17-24.7h-6L31.5,34.2l-10.9,0L7,17.3H1L18,42v4c-1,0.9-1.8,1.4-3.2,1.4
			c-1.8,0-2.6-0.8-4.1-2.2C9.1,43.6,7,41.4,3,41.4v5c1.8,0,2.6,0.8,4.1,2.2c1.5,1.6,3.7,3.8,7.7,3.8s6.1-2.2,7.7-3.8
			c1.4-1.5,2.3-2.2,4.1-2.2s2.6,0.8,4.1,2.2c1.5,1.6,3.7,3.8,7.7,3.8c4,0,6.1-2.2,7.7-3.8c1.4-1.5,2.3-2.2,4.1-2.2
			c1.8,0,2.6,0.8,4.1,2.2c1.5,1.6,3.7,3.8,7.7,3.8c4,0,6.1-2.2,7.7-3.8c1.4-1.5,2.3-2.2,4.1-2.2c1.8,0,2.6,0.8,4.1,2.2
			c1.6,1.6,3.7,3.8,7.7,3.8s6.1-2.2,7.7-3.8c1.4-1.5,2.3-2.2,4.1-2.2v-5C93,41.4,90.9,43.6,89.3,45.2z"/>
	</g>
	<path d="M74,2.2c-9.9,0-18,8.1-18,18s8.1,18,18,18s18-8.1,18-18S83.9,2.2,74,2.2z M81.2,7.7L78.7,12c-2.9-1.7-6.6-1.6-9.5,0
		l-2.5-4.3C71.1,5.2,76.8,5.1,81.2,7.7z M66.8,32.8c-4.5-2.6-7.3-7.4-7.3-12.5l5,0c0,3.4,1.8,6.5,4.8,8.2L66.8,32.8z M74,26.2
		c-3.3,0-6-2.7-6-6s2.7-6,6-6s6,2.7,6,6S77.3,26.2,74,26.2z M81.3,32.8l-2.5-4.3c2.9-1.7,4.7-4.8,4.7-8.2l5,0v0
		C88.5,25.4,85.7,30.2,81.3,32.8z"/>
</g>
</svg>
