<svg xmlns="http://www.w3.org/2000/svg" viewBox="0 0 64 65.3"><path d="M26.8 33v8.5l2.6 2.3c1.1 1 1.5 2.5.9 3.9-.5 1.3-1.6 2.1-3 2.2v2.7c.3.3.8.5 1.3.5h28.9c1 0 1.8-.8 1.8-1.8V32.8L43.2 18.3 26.8 33zm22.3 3.4v8.3h-12v-8.3c0-3.3 2.7-6 6-6 1.7 0 3.2.7 4.2 1.8 1.1 1.1 1.8 2.6 1.8 4.2z"/><path d="M63.2 27.8L45.1 11.6c-1.1-1-2.7-1-3.8 0l-7.7 6.8v-4.1c0-.4-.3-.7-.7-.7h-2.4c.1.6 0 1.2-.2 1.8-.5 1.3-1.6 2.1-3 2.2V29c0 .5-.1 1.1-.4 1.5L43.2 16l17 15.2c.4.4 1 .6 1.5.6 1.4 0 2.3-1.1 2.3-2.3 0-.6-.2-1.2-.8-1.7zM3 16.6v12.6c0 .7.6 1.3 1.3 1.3h19.9c.7 0 1.3-.6 1.3-1.3V16.4L14.3 6.5 3 16.6zm15.3 2.3v5.7H10v-5.7c0-2.3 1.8-4.1 4.1-4.1 1.1 0 2.2.5 2.9 1.2.9.8 1.3 1.8 1.3 2.9z"/><path d="M1.6 15.8c.4 0 .8-.1 1.1-.4L14.3 5 26 15.4c.3.3.7.4 1.1.4 1.5 0 2.1-1.8 1.1-2.8L15.6 1.9c-.7-.7-1.9-.7-2.6 0L7.7 6.6V3.8c0-.3-.2-.5-.5-.5H2.4c-.3 0-.5.2-.5.5v8L.5 13c-1.1 1-.4 2.8 1.1 2.8zm1.4 33v12.6c0 .7.6 1.3 1.3 1.3h19.9c.7 0 1.3-.6 1.3-1.3V48.7l-11.1-9.9L3 48.8zm15.3 2.4v5.7H10v-5.7c0-2.3 1.8-4.1 4.1-4.1 1.1 0 2.2.5 2.9 1.2.9.7 1.3 1.7 1.3 2.9z"/><path d="M28.1 45.3L15.6 34.1c-.7-.7-1.9-.7-2.6 0l-5.3 4.7V36c0-.3-.2-.5-.5-.5H2.4c-.3 0-.5.2-.5.5v8L.6 45.2C-.5 46.2.2 48 1.7 48c.4 0 .8-.1 1.1-.4l11.7-10.4L26 47.6c.3.3.7.4 1.1.4 1.4 0 2.1-1.8 1-2.7z"/></svg>