<?xml version="1.0" encoding="utf-8"?>
<!-- Generator: Adobe Illustrator 22.1.0, SVG Export Plug-In . SVG Version: 6.00 Build 0)  -->
<svg version="1.1" id="Layer_1" xmlns="http://www.w3.org/2000/svg" xmlns:xlink="http://www.w3.org/1999/xlink" x="0px" y="0px"
	 viewBox="0 0 64 64.9" style="enable-background:new 0 0 64 64.9;" xml:space="preserve">
<title>Associate-hand-handshake-partner</title>
<g>
	<path d="M46,32H29.7l-0.4,1.4C28.4,36.7,25.4,39,22,39c-0.6,0-1-0.4-1-1v-9.6l-0.5,0.5C18.9,30.5,18,32.7,18,35
		c0,0.3-0.1,0.5-0.3,0.7L16.4,37L27,47.6l1.3-1.3c0.2-0.2,0.4-0.3,0.7-0.3h5c0.6,0,1-0.4,1-1s-0.4-1-1-1h-3v-2h7c0.6,0,1-0.4,1-1
		s-0.4-1-1-1h-4v-2h8c0.6,0,1-0.4,1-1s-0.4-1-1-1h-4v-2h8c0.6,0,1-0.4,1-1S46.6,32,46,32z"/>
	<rect x="9.2" y="45.5" transform="matrix(0.7071 -0.7071 0.7071 0.7071 -34.2557 23.3017)" width="3.7" height="15"/>
	<path d="M6.4,43L21,57.6l6.6-6.6L13,36.4L6.4,43z M22,50.6l1.4,1.4L22,53.4L20.6,52L22,50.6z"/>
	<path d="M35.7,17.7C35.5,17.9,35.3,18,35,18h-4.5c-4.2,0-7.5,3.4-7.5,7.5l0,0v11.4c2.1-0.4,3.8-1.9,4.4-4l1.7-6.2
		c0.1-0.4,0.5-0.7,1-0.7h1c1.7,0,3-1.3,3-3h2c0,2.8-2.2,5-5,5h-0.2l-0.5,2H46v-1c0-0.3,0.1-0.5,0.3-0.7l1.3-1.3L37,16.4L35.7,17.7z"
		/>
	<path d="M36.4,13L51,27.6l6.6-6.6L43,6.4L36.4,13z M42,13.4L40.6,12l1.4-1.4l1.4,1.4L42,13.4z"/>
	<polygon points="59.6,15 49,4.4 46.4,7 57,17.6 	"/>
</g>
</svg>
