<?xml version="1.0" encoding="utf-8"?>
<!-- Generator: Adobe Illustrator 22.1.0, SVG Export Plug-In . SVG Version: 6.00 Build 0)  -->
<svg version="1.1" id="Layer_1" xmlns="http://www.w3.org/2000/svg" xmlns:xlink="http://www.w3.org/1999/xlink" x="0px" y="0px"
	 viewBox="0 0 100 96.9" style="enable-background:new 0 0 100 96.9;" xml:space="preserve">
<g>
	<path d="M95.1,56c-0.2-0.7-0.6-1.2-1.2-1.6c-0.4-0.2-0.8-0.4-1.3-0.4c-0.9,0-1.8,0.5-2.2,1.3L78.6,75.7c-0.7,1.2-0.3,2.8,0.9,3.5
		c0.4,0.2,0.8,0.4,1.3,0.4c0.9,0,1.8-0.5,2.2-1.3L94.8,58C95.2,57.4,95.3,56.7,95.1,56z"/>
	<path d="M9.6,68.6c-0.5-0.8-1.3-1.3-2.2-1.3c-0.4,0-0.9,0.1-1.3,0.3c-1.2,0.7-1.7,2.3-0.9,3.5l11.7,20.3c0.5,0.8,1.3,1.3,2.2,1.3
		c0.5,0,0.9-0.1,1.3-0.3c1.2-0.7,1.6-2.3,0.9-3.5L9.6,68.6z"/>
	<path d="M26.9,12.4h23.5c1.4,0,2.6-1.1,2.6-2.6c0-1.4-1.2-2.6-2.6-2.6H26.9c-1.4,0-2.6,1.2-2.6,2.6C24.3,11.2,25.5,12.4,26.9,12.4z
		"/>
	<path d="M50.4,14H28.5c-2.2,0-4,1.8-4,4v5.6c0,0.1,0,0.1,0,0.2v19.9c0,1.6,1.3,2.9,2.9,2.9c1.6,0,2.9-1.3,2.9-2.9V32.7
		c0-0.4,0.4-0.8,0.8-0.8s0.8,0.4,0.8,0.8v19.9c0,1.6,1.3,2.9,2.9,2.9c0.5,0,1.1-0.2,1.5-0.4c-0.7-1.4-0.7-3,0.1-4.4
		c0.3-0.6,0.8-1,1.3-1.4V34.6c0-0.1,0-0.2,0-0.2v-0.7c0-0.4,0.4-0.8,0.8-0.8c0.5,0,0.8,0.4,0.8,0.8v14.9c0.8-0.2,1.6-0.1,2.3,0.1
		c-0.2-1.1-0.1-2.2,0.5-3.2c0.1-0.1,0.2-0.2,0.2-0.4c0.7-0.9,1.6-1.6,2.8-1.8v-8.9c0-0.4,0.4-0.8,0.8-0.8c0.5,0,0.8,0.4,0.8,0.8v8.9
		c0.1,0,0.2,0,0.2,0v0c-0.3-1.1-0.1-2.3,0.5-3.3c0.6-1,1.6-1.8,2.8-2.1c0.8-0.2,1.6-0.2,2.4,0v-7.5c0-2,1.6-3.6,3.6-3.6
		c1,0,1.9,0.4,2.6,1.1l0,0l4.2,4.1c0.6,0.6,1.3,0.9,2.1,0.9c0.8,0,1.5-0.3,2.1-0.9c1.1-1.1,1.1-3,0-4.1L52.7,13.3
		C52,13.7,51.2,14,50.4,14z"/>
	<path d="M88.2,56c0.5-0.9,0.7-2,0.4-3.1s-0.9-1.9-1.9-2.5l-4.8-2.8c-0.1,0-0.1,0-0.2-0.1l-17.3-10c-1.4-0.8-3.2-0.3-4,1.1
		c-0.4,0.7-0.5,1.5-0.3,2.2c0.2,0.8,0.7,1.4,1.4,1.8l9.6,5.5c0.4,0.2,0.5,0.7,0.3,1.1c-0.2,0.4-0.7,0.5-1.1,0.3l-0.8-0.5h0l-8.8-5.1
		L53,39.7c-0.7-0.4-1.5-0.5-2.2-0.3c-0.8,0.2-1.4,0.7-1.8,1.4c-0.4,0.7-0.5,1.5-0.3,2.2c0,0,0,0,0,0v0c0.2,0.6,0.5,1.1,1,1.5l16,9.2
		c0.1,0,0.1,0.1,0.2,0.2l0.6,0.3c0.4,0.2,0.5,0.7,0.3,1.1c-0.2,0.2-0.4,0.4-0.7,0.4c-0.1,0-0.3,0-0.4-0.1l-16.5-9.5
		c-0.2-0.1-0.3-0.2-0.5-0.3c0,0,0,0,0,0l-1.1-0.6c-0.5-0.3-1-0.4-1.6-0.4c0,0-0.1,0-0.2,0h0c-0.8,0.1-1.6,0.5-2.1,1.2
		c-0.1,0.1-0.1,0.2-0.2,0.2c-0.4,0.7-0.5,1.5-0.3,2.2c0.2,0.8,0.7,1.4,1.4,1.8l1.7,1l0.5,0.3c0,0,0,0,0,0l6.8,3.9c0,0,0,0,0,0
		l0.1,0.1l8.2,4.8c0.4,0.2,0.5,0.7,0.3,1.1c-0.2,0.2-0.4,0.4-0.7,0.4c-0.1,0-0.3,0-0.4-0.1l-2.2-1.3c0,0,0,0,0,0L53,56.9
		c0,0,0,0,0,0l-6.9-4c0,0,0,0,0,0l-1-0.6l-1.1-0.6c0,0,0,0,0,0l-2-1.2c-0.9-0.5-2-0.5-2.9,0c0,0,0,0,0,0c-0.5,0.2-0.8,0.6-1.1,1.1
		c-0.6,1-0.5,2.3,0.2,3.3c0.2,0.3,0.5,0.5,0.8,0.7l8,4.6l15,8.6c0,0,0,0,0,0c0.8,0.5,1.4,1.3,1.7,2.2c0.2,0.9,0.1,1.9-0.4,2.7
		c-0.5,0.8-1.3,1.4-2.2,1.7c0,0,0,0,0,0L55.3,77c-0.8,0.2-1.4,0.7-1.8,1.4c-0.4,0.7-0.5,1.5-0.3,2.2c0.2,0.8,0.7,1.4,1.4,1.8
		c0.7,0.4,1.5,0.5,2.2,0.3l19.9-5.3c-0.1-0.8,0.1-1.6,0.6-2.4L88.2,56L88.2,56z"/>
	<path d="M36.4,74.3l9.6-5.5c0,0,0,0,0,0l6.3-3.6l-5.8-3.4l-11.4,6.6c-0.1,0-0.2,0.1-0.2,0.1l-0.6,0.3c-0.1,0.1-0.3,0.1-0.4,0.1
		c-0.3,0-0.5-0.2-0.7-0.4c-0.2-0.4-0.1-0.9,0.3-1.1l11.4-6.6L39,57.5l-5.6,3.2c0,0,0,0,0,0L31.2,62c-0.1,0.1-0.3,0.1-0.4,0.1
		c-0.3,0-0.5-0.1-0.7-0.4c-0.2-0.4-0.1-0.9,0.3-1.1l7.1-4.1c0,0-0.1,0-0.1-0.1c-0.7,0.5-1.6,0.8-2.5,0.8c-2.1,0-3.9-1.5-4.4-3.4
		L24,57.5c-0.5,0.3-1.2,0.5-1.8,0.5c-0.3,0-0.6,0-1-0.1c-0.9-0.2-1.7-0.8-2.2-1.7c-0.5-0.8-0.6-1.9-0.4-2.8c0,0,0,0,0,0l1.5-5.7
		c0.2-0.8,0.1-1.5-0.3-2.2c-0.4-0.7-1-1.2-1.8-1.4c-1.6-0.4-3.2,0.5-3.6,2.1L9.2,66.1c0.7,0.4,1.4,0.9,1.8,1.7l10.9,18.9v0
		c0.5,0.9,1.4,1.6,2.5,1.9s2.1,0.1,3.1-0.4l4.8-2.8c0-0.1,0.1-0.1,0.2-0.1l17.3-10c1.4-0.8,1.9-2.6,1.1-4c-0.4-0.7-1-1.2-1.8-1.4
		c-0.8-0.2-1.5-0.1-2.2,0.3c0,0,0,0,0,0L38,75.2l-0.8,0.5c-0.1,0.1-0.3,0.1-0.4,0.1c-0.3,0-0.5-0.1-0.7-0.4
		C35.9,75,36,74.6,36.4,74.3z"/>
</g>
</svg>
