<?xml version="1.0" encoding="utf-8"?>
<!-- Generator: Adobe Illustrator 22.1.0, SVG Export Plug-In . SVG Version: 6.00 Build 0)  -->
<svg version="1.1" id="Layer_1" xmlns="http://www.w3.org/2000/svg" xmlns:xlink="http://www.w3.org/1999/xlink" x="0px" y="0px"
	 viewBox="0 0 100 97.9" style="enable-background:new 0 0 100 97.9;" xml:space="preserve">
<g>
	<g>
		<g>
			<circle cx="10.7" cy="10" r="3"/>
			<path d="M14.8,14.4H6.6c-1.6,0-3.2,1.2-3.2,2.7v11.4c0,0.7,0.6,1.3,1.3,1.3c0.7,0,1.3-0.6,1.3-1.3c0,0,0,0,0,0h0V19h0
				c0-0.2,0.1-0.3,0.3-0.3c0.2,0,0.3,0.1,0.3,0.3c0,0,0,0,0,0v0v26.1c0,0,0,0,0,0c0,1.1,0.9,1.9,1.9,1.9c1.1,0,1.9-0.9,1.9-1.9v0V30
				h0c0,0,0,0,0,0c0-0.2,0.1-0.3,0.3-0.3c0.2,0,0.3,0.1,0.3,0.3c0,0,0,0,0,0h0v15.1c0,0,0,0,0,0c0,1.1,0.9,1.9,1.9,1.9
				c1.1,0,1.9-0.9,1.9-1.9h0V19h0c0-0.2,0.1-0.3,0.3-0.3c0.2,0,0.3,0.1,0.3,0.3c0,0,0,0,0,0v9.5c0,0,0,0,0,0c0,0.7,0.6,1.3,1.3,1.3
				s1.3-0.6,1.3-1.3v0V17.3C18.1,15.6,16.5,14.4,14.8,14.4z"/>
		</g>
		<g>
			<circle cx="30.3" cy="10" r="3"/>
			<path d="M34.5,14.4h-8.2c-1.6,0-3.2,1.2-3.2,2.7v11.4c0,0.7,0.6,1.3,1.3,1.3c0.7,0,1.3-0.6,1.3-1.3c0,0,0,0,0,0h0V19h0
				c0-0.2,0.1-0.3,0.3-0.3c0.2,0,0.3,0.1,0.3,0.3c0,0,0,0,0,0v0v26.1c0,0,0,0,0,0c0,1.1,0.9,1.9,1.9,1.9c1.1,0,1.9-0.9,1.9-1.9v0V30
				h0c0,0,0,0,0,0c0-0.2,0.1-0.3,0.3-0.3c0.2,0,0.3,0.1,0.3,0.3c0,0,0,0,0,0h0v15.1c0,0,0,0,0,0c0,1.1,0.9,1.9,1.9,1.9
				c1.1,0,1.9-0.9,1.9-1.9l0,0V19h0c0-0.2,0.1-0.3,0.3-0.3s0.3,0.1,0.3,0.3c0,0,0,0,0,0v9.5c0,0,0,0,0,0c0,0.7,0.6,1.3,1.3,1.3
				c0.7,0,1.3-0.6,1.3-1.3v0V17.3C37.7,15.6,36.1,14.4,34.5,14.4z"/>
		</g>
		<g>
			<circle cx="50" cy="10" r="3"/>
			<path d="M54.1,14.4h-8.2c-1.6,0-3.2,1.2-3.2,2.7v11.4c0,0.7,0.6,1.3,1.3,1.3c0.7,0,1.3-0.6,1.3-1.3c0,0,0,0,0,0h0V19h0
				c0-0.2,0.1-0.3,0.3-0.3c0.2,0,0.3,0.1,0.3,0.3c0,0,0,0,0,0v0v26.1c0,0,0,0,0,0c0,1.1,0.9,1.9,1.9,1.9c1.1,0,1.9-0.9,1.9-1.9v0V30
				h0c0,0,0,0,0,0c0-0.2,0.1-0.3,0.3-0.3s0.3,0.1,0.3,0.3c0,0,0,0,0,0h0v15.1c0,0,0,0,0,0c0,1.1,0.9,1.9,1.9,1.9s1.9-0.9,1.9-1.9
				l0,0V19h0c0-0.2,0.1-0.3,0.3-0.3c0.2,0,0.3,0.1,0.3,0.3c0,0,0,0,0,0v9.5c0,0,0,0,0,0c0,0.7,0.6,1.3,1.3,1.3
				c0.7,0,1.3-0.6,1.3-1.3v0V17.3C57.4,15.6,55.8,14.4,54.1,14.4z"/>
		</g>
		<g>
			<circle cx="69.6" cy="10" r="3"/>
			<path d="M73.7,14.4h-8.2c-1.6,0-3.2,1.2-3.2,2.7v11.4c0,0.7,0.6,1.3,1.3,1.3s1.3-0.6,1.3-1.3c0,0,0,0,0,0h0V19h0
				c0-0.2,0.1-0.3,0.3-0.3c0.2,0,0.3,0.1,0.3,0.3c0,0,0,0,0,0v0v26.1c0,0,0,0,0,0c0,1.1,0.9,1.9,1.9,1.9c1.1,0,1.9-0.9,1.9-1.9v0V30
				h0c0,0,0,0,0,0c0-0.2,0.1-0.3,0.3-0.3c0.2,0,0.3,0.1,0.3,0.3c0,0,0,0,0,0h0v15.1c0,0,0,0,0,0c0,1.1,0.9,1.9,1.9,1.9
				c1.1,0,1.9-0.9,1.9-1.9l0,0V19h0c0-0.2,0.1-0.3,0.3-0.3c0.2,0,0.3,0.1,0.3,0.3c0,0,0,0,0,0v9.5c0,0,0,0,0,0
				c0,0.7,0.6,1.3,1.3,1.3c0.7,0,1.3-0.6,1.3-1.3v0V17.3C77,15.6,75.4,14.4,73.7,14.4z"/>
		</g>
		<g>
			<path d="M89.3,13.1c1.7,0,3-1.4,3-3c0-1.7-1.4-3-3-3s-3,1.4-3,3C86.2,11.7,87.6,13.1,89.3,13.1z"/>
			<path d="M93.4,14.4h-8.2c-1.6,0-3.2,1.2-3.2,2.7v11.4c0,0.7,0.6,1.3,1.3,1.3c0.7,0,1.3-0.6,1.3-1.3c0,0,0,0,0,0h0V19h0
				c0-0.2,0.1-0.3,0.3-0.3c0.2,0,0.3,0.1,0.3,0.3c0,0,0,0,0,0v0v26.1c0,0,0,0,0,0c0,1.1,0.9,1.9,1.9,1.9c1.1,0,1.9-0.9,1.9-1.9v0V30
				h0c0,0,0,0,0,0c0-0.2,0.1-0.3,0.3-0.3c0.2,0,0.3,0.1,0.3,0.3c0,0,0,0,0,0h0v15.1c0,0,0,0,0,0c0,1.1,0.9,1.9,1.9,1.9
				c1.1,0,1.9-0.9,1.9-1.9l0,0V19h0c0-0.2,0.1-0.3,0.3-0.3c0.2,0,0.3,0.1,0.3,0.3c0,0,0,0,0,0v9.5c0,0,0,0,0,0
				c0,0.7,0.6,1.3,1.3,1.3c0.7,0,1.3-0.6,1.3-1.3v0V17.3C96.6,15.6,95.1,14.4,93.4,14.4z"/>
		</g>
	</g>
	<g>
		<g>
			<circle cx="20.5" cy="56" r="3"/>
			<path d="M24.6,60.4h-8.2c-1.6,0-3.2,1.2-3.2,2.7v11.4c0,0.7,0.6,1.3,1.3,1.3c0.7,0,1.3-0.6,1.3-1.3c0,0,0,0,0,0h0V65h0
				c0-0.2,0.1-0.3,0.3-0.3c0.2,0,0.3,0.1,0.3,0.3v0v0v26.1c0,0,0,0,0,0c0,1.1,0.9,1.9,1.9,1.9c1.1,0,1.9-0.9,1.9-1.9l0,0V76h0
				c0,0,0,0,0,0c0-0.2,0.1-0.3,0.3-0.3c0.2,0,0.3,0.1,0.3,0.3c0,0,0,0,0,0h0v15c0,0,0,0,0,0c0,1.1,0.9,1.9,1.9,1.9
				c1.1,0,1.9-0.9,1.9-1.9h0V65h0c0-0.2,0.1-0.3,0.3-0.3c0.2,0,0.3,0.1,0.3,0.3c0,0,0,0,0,0v9.5l0,0c0,0.7,0.6,1.3,1.3,1.3
				s1.3-0.6,1.3-1.3l0,0V63.3C27.9,61.6,26.3,60.4,24.6,60.4z"/>
		</g>
		<g>
			<circle cx="40.2" cy="56" r="3"/>
			<path d="M44.3,60.4h-8.2c-1.6,0-3.2,1.2-3.2,2.7v11.4c0,0.7,0.6,1.3,1.3,1.3c0.7,0,1.3-0.6,1.3-1.3c0,0,0,0,0,0l0,0V65h0
				c0-0.2,0.1-0.3,0.3-0.3c0.2,0,0.3,0.1,0.3,0.3v0v0v26.1c0,0,0,0,0,0c0,1.1,0.9,1.9,1.9,1.9c1.1,0,1.9-0.9,1.9-1.9l0,0V76h0
				c0,0,0,0,0,0c0-0.2,0.1-0.3,0.3-0.3c0.2,0,0.3,0.1,0.3,0.3c0,0,0,0,0,0h0v15c0,0,0,0,0,0c0,1.1,0.9,1.9,1.9,1.9s1.9-0.9,1.9-1.9
				h0V65h0c0-0.2,0.1-0.3,0.3-0.3c0.2,0,0.3,0.1,0.3,0.3c0,0,0,0,0,0v9.5l0,0c0,0.7,0.6,1.3,1.3,1.3s1.3-0.6,1.3-1.3l0,0V63.3
				C47.5,61.6,46,60.4,44.3,60.4z"/>
		</g>
		<g>
			<circle cx="59.8" cy="56" r="3"/>
			<path d="M63.9,60.4h-8.2c-1.6,0-3.2,1.2-3.2,2.7v11.4c0,0.7,0.6,1.3,1.3,1.3s1.3-0.6,1.3-1.3c0,0,0,0,0,0h0V65h0
				c0-0.2,0.1-0.3,0.3-0.3c0.2,0,0.3,0.1,0.3,0.3v0v0v26.1c0,0,0,0,0,0c0,1.1,0.9,1.9,1.9,1.9c1.1,0,1.9-0.9,1.9-1.9l0,0V76h0
				c0,0,0,0,0,0c0-0.2,0.1-0.3,0.3-0.3s0.3,0.1,0.3,0.3c0,0,0,0,0,0h0v15c0,0,0,0,0,0c0,1.1,0.9,1.9,1.9,1.9c1.1,0,1.9-0.9,1.9-1.9
				l0,0V65h0c0-0.2,0.1-0.3,0.3-0.3c0.2,0,0.3,0.1,0.3,0.3c0,0,0,0,0,0v9.5l0,0c0,0.7,0.6,1.3,1.3,1.3c0.7,0,1.3-0.6,1.3-1.3l0,0
				V63.3C67.2,61.6,65.6,60.4,63.9,60.4z"/>
		</g>
		<g>
			<path d="M79.4,59.1c1.7,0,3-1.4,3-3c0-1.7-1.4-3-3-3s-3,1.4-3,3C76.4,57.7,77.7,59.1,79.4,59.1z"/>
			<path d="M83.5,60.4h-8.2c-1.6,0-3.2,1.2-3.2,2.7v11.4c0,0.7,0.6,1.3,1.3,1.3c0.7,0,1.3-0.6,1.3-1.3c0,0,0,0,0,0h0V65h0
				c0-0.2,0.1-0.3,0.3-0.3c0.2,0,0.3,0.1,0.3,0.3v0v0v26.1c0,0,0,0,0,0c0,1.1,0.9,1.9,1.9,1.9c1.1,0,1.9-0.9,1.9-1.9l0,0V76h0
				c0,0,0,0,0,0c0-0.2,0.1-0.3,0.3-0.3c0.2,0,0.3,0.1,0.3,0.3c0,0,0,0,0,0h0v15c0,0,0,0,0,0c0,1.1,0.9,1.9,1.9,1.9
				c1.1,0,1.9-0.9,1.9-1.9l0,0V65h0c0-0.2,0.1-0.3,0.3-0.3c0.2,0,0.3,0.1,0.3,0.3c0,0,0,0,0,0v9.5l0,0c0,0.7,0.6,1.3,1.3,1.3
				c0.7,0,1.3-0.6,1.3-1.3l0,0V63.3C86.8,61.6,85.2,60.4,83.5,60.4z"/>
		</g>
	</g>
</g>
</svg>
