<?xml version="1.0" encoding="utf-8"?>
<!-- Generator: Adobe Illustrator 22.1.0, SVG Export Plug-In . SVG Version: 6.00 Build 0)  -->
<svg version="1.1" xmlns="http://www.w3.org/2000/svg" xmlns:xlink="http://www.w3.org/1999/xlink" x="0px" y="0px"
	 viewBox="0 0 100 78.3" style="enable-background:new 0 0 100 78.3;" xml:space="preserve">
<g id="Layer_2">
</g>
<g id="Layer_1">
	<g>
		<path d="M30.3,31.2c-0.1-0.3-0.3-0.7-0.4-1.1c-1.1-3-3.1-8.5-8.2-8.5h-7.8c-5.1,0-7.1,5.5-8.2,8.5c-0.1,0.4-0.3,0.8-0.4,1.1
			c-1.1,2.6-2.5,9.6-2.6,10.4C2.4,43.2,3.4,44.7,5,45c0.2,0,0.4,0.1,0.6,0.1c1.4,0,2.6-1,2.9-2.3c0.5-2.8,1.6-7.7,2.3-9.3
			c0.1-0.3,0.3-0.8,0.5-1.2l0.2,11.3L8.1,70.4c-0.2,1.9,1.1,3.6,3,3.8c1.9,0.2,3.6-1.1,3.8-3l2.8-24.4l2.8,24.4c0.2,1.7,1.7,3,3.4,3
			c0.1,0,0.3,0,0.4,0c1.9-0.2,3.2-1.9,3-3.8l-3.1-26.9l0.2-11.3c0.2,0.5,0.3,0.9,0.5,1.2c0.7,1.6,1.8,6.5,2.3,9.3
			c0.3,1.6,1.8,2.6,3.4,2.3c1.6-0.3,2.6-1.8,2.3-3.4C32.7,40.8,31.4,33.8,30.3,31.2z"/>
		<circle cx="17.7" cy="13.1" r="6.8"/>
		<path d="M97.4,41.6c-0.2-0.8-1.5-7.8-2.6-10.4c-0.1-0.3-0.3-0.7-0.4-1.1c-1.1-3-3.1-8.5-8.2-8.5h-7.8c-5.1,0-7.1,5.5-8.2,8.5
			c-0.1,0.4-0.3,0.8-0.4,1.1c-1.1,2.6-2.5,9.6-2.6,10.4c-0.3,1.6,0.7,3.1,2.3,3.4c1.6,0.3,3.1-0.7,3.4-2.3c0.5-2.8,1.6-7.7,2.3-9.3
			c0.1-0.3,0.3-0.8,0.5-1.2l0.2,11.3l-3.1,26.9c-0.2,1.9,1.1,3.6,3,3.8c0.1,0,0.3,0,0.4,0c1.7,0,3.2-1.3,3.4-3l2.8-24.4l2.8,24.4
			c0.2,1.9,1.9,3.2,3.8,3s3.2-1.9,3-3.8l-3.1-26.9L89,32.2c0.2,0.5,0.3,0.9,0.5,1.2c0.7,1.6,1.8,6.5,2.3,9.3
			c0.3,1.4,1.5,2.3,2.9,2.3c0.2,0,0.4,0,0.6-0.1C96.7,44.7,97.8,43.2,97.4,41.6z"/>
		<circle cx="82.3" cy="13.1" r="6.8"/>
		<circle cx="48.5" cy="13.1" r="6.8"/>
		<path d="M61,31.2c-0.1-0.3-0.3-0.7-0.4-1.1c-1.1-3-3.1-8.5-8.2-8.5h-7.9c-4.1,0-6.2-1.3-6.8-2.5c-0.4-1-1.3-6.5-1.9-11
			c-0.2-1.6-1.7-2.7-3.3-2.5c-1.6,0.2-2.7,1.7-2.5,3.3c0.5,4,1.5,11,2.5,12.9c0.8,1.5,3.1,4.8,9.2,5.6L42,43.5l-3.1,26.9
			c-0.2,1.9,1.1,3.6,3,3.8c0.1,0,0.3,0,0.4,0c1.7,0,3.2-1.3,3.4-3l2.8-24.4l2.8,24.4c0.2,1.9,1.9,3.2,3.8,3c1.9-0.2,3.2-1.9,3-3.8
			L55,43.5l0.2-11.3c0.2,0.5,0.3,0.9,0.5,1.2c0.7,1.6,1.8,6.5,2.3,9.3c0.3,1.4,1.5,2.3,2.9,2.3c0.2,0,0.4,0,0.6-0.1
			c1.6-0.3,2.6-1.8,2.3-3.4C63.5,40.8,62.1,33.8,61,31.2z"/>
	</g>
</g>
</svg>
