<?xml version="1.0" encoding="utf-8"?>
<!-- Generator: Adobe Illustrator 22.1.0, SVG Export Plug-In . SVG Version: 6.00 Build 0)  -->
<svg version="1.1" id="Layer_1" xmlns="http://www.w3.org/2000/svg" xmlns:xlink="http://www.w3.org/1999/xlink" x="0px" y="0px"
	 viewBox="0 0 312.1 254.9" style="enable-background:new 0 0 312.1 254.9;" xml:space="preserve">
<g>
	<rect x="116" y="173.5" width="18.2" height="3.4"/>
	<rect x="176.2" y="173.5" width="15" height="3.4"/>
	<rect x="231.2" y="173.5" width="15" height="3.4"/>
	<rect x="287.2" y="173.5" width="15" height="3.4"/>
	<path d="M140.9,99.8v87.9c0,3.7,3,6.7,6.7,6.7c3.7,0,6.7-3,6.7-6.7v-49.1h2.5v49.1c0,3.7,3,6.7,6.7,6.7s6.7-3,6.7-6.7V99.8
		c2.4-1.8,7.3-5.7,13.1-12.1c5.8,6.4,10.7,10.3,13.1,12.1v87.9c0,3.7,3,6.7,6.7,6.7c3.7,0,6.7-3,6.7-6.7v-49.1h2.5v49.1
		c0,3.7,3,6.7,6.7,6.7c3.7,0,6.7-3,6.7-6.7V99.8c2.4-1.8,7.3-5.7,13.1-12.1c5.8,6.4,10.7,10.3,13.1,12.1v87.9c0,3.7,3,6.7,6.7,6.7
		c3.7,0,6.7-3,6.7-6.7v-49.1h2.5v49.1c0,3.7,3,6.7,6.7,6.7c3.7,0,6.7-3,6.7-6.7V99.8c4.7-3.4,18.6-14.9,29.9-36.4
		c1.1-2.1,0.3-4.8-1.8-5.9c-2.1-1.1-4.8-0.3-5.9,1.8c-6.3,12.1-13.6,20.7-19.2,26.3c-2.8,2.8-5.2,4.8-6.9,6.1
		c-0.6,0.5-1.1,0.8-1.5,1.1h-18.9c-2-1.5-7-5.4-12.7-11.9c3.7-4.9,7.6-10.7,11.2-17.5c1.1-2.1,0.3-4.8-1.8-5.9
		c-2.1-1.1-4.8-0.3-5.9,1.8c-2.9,5.6-6.1,10.4-9.1,14.6c-3.1-4.2-6.2-9-9.1-14.6c-1.1-2.1-3.8-2.9-5.9-1.8s-2.9,3.8-1.8,5.9
		c3.6,6.8,7.5,12.7,11.2,17.5c-1.5,1.7-3,3.3-4.4,4.7c-2.8,2.8-5.2,4.8-6.9,6.1c-0.6,0.5-1.1,0.8-1.5,1.1h-18.9
		c-2-1.5-7-5.4-12.7-11.9c3.7-4.9,7.6-10.7,11.2-17.5c1.1-2.1,0.3-4.8-1.8-5.9c-2.1-1.1-4.8-0.3-5.9,1.8c-2.9,5.6-6.1,10.4-9.1,14.6
		c-3.1-4.2-6.2-9-9.1-14.6c-1.1-2.1-3.8-2.9-5.9-1.8c-2.1,1.1-2.9,3.8-1.8,5.9c3.6,6.8,7.5,12.7,11.2,17.5c-1.5,1.7-3,3.3-4.4,4.7
		c-2.8,2.8-5.2,4.8-6.9,6.1c-0.6,0.5-1.1,0.8-1.5,1.1h-18.9c-2.8-2-11-8.6-19.5-20.4c-2.4,2.2-4.6,4.1-6.6,5.8
		C129,90.3,137.5,97.2,140.9,99.8z"/>
	<circle cx="155.6" cy="77.5" r="12.2"/>
	<circle cx="211.3" cy="77.5" r="12.2"/>
	<circle cx="266.9" cy="77.5" r="12.2"/>
	<path d="M80.7,240v-90.3h4.6V240c0,6.8,5.5,12.4,12.4,12.4c6.8,0,12.4-5.5,12.4-12.4V78.6c8.6-6.3,34.2-27.3,55-66.8
		c2.1-3.9,0.6-8.7-3.4-10.8c-3.9-2.1-8.7-0.6-10.8,3.4c-11.7,22.2-24.9,38-35.2,48.3c-5.1,5.1-9.5,8.8-12.6,11.3
		c-1.1,0.9-2,1.6-2.7,2.1H65.7c-6.8-5-31-24.3-50.6-61.6C13,0.4,8.2-1.1,4.3,0.9C0.4,3-1.1,7.8,0.9,11.7
		c20.8,39.6,46.5,60.6,55,66.9V240c0,6.8,5.5,12.4,12.4,12.4C75.1,252.4,80.7,246.8,80.7,240z"/>
	<path d="M86.7,59.9c10.7-1.8,18.8-11,18.8-22.2c0-12.4-10.1-22.5-22.5-22.5c-12.4,0-22.5,10.1-22.5,22.5c0,11.2,8.2,20.4,18.8,22.2
		c1.2,0.2,2.4,0.3,3.7,0.3C84.2,60.2,85.5,60.1,86.7,59.9z"/>
</g>
</svg>
