<?xml version="1.0" encoding="utf-8"?>
<!-- Generator: Adobe Illustrator 22.1.0, SVG Export Plug-In . SVG Version: 6.00 Build 0)  -->
<svg version="1.1" xmlns="http://www.w3.org/2000/svg" xmlns:xlink="http://www.w3.org/1999/xlink" x="0px" y="0px"
	 viewBox="0 0 100 91.8" style="enable-background:new 0 0 100 91.8;" xml:space="preserve">
<g id="Layer_2">
</g>
<g id="Layer_1">
	<g>
		<circle cx="83.7" cy="12.6" r="7"/>
		<path d="M78.9,20.4L78.9,20.4L78.9,20.4z"/>
		<path d="M98.9,46c0,0-0.9-3.7-2.2-9.3c-0.7-2.8-1.4-6-2.3-9.5c-0.1-0.5-1.7-6.3-5.9-6.9c-1.4,0.9-3.1,1.4-4.8,1.4
			c-1.8,0-3.5-0.5-4.9-1.4c-4.2,0.6-5.8,6.3-5.9,6.9c-0.8,3.5-1.6,6.7-2.3,9.5c-1.3,5.6-2.2,9.3-2.2,9.3c-0.2,1,0.4,2.1,1.4,2.4
			c1.1,0.3,2.2-0.3,2.5-1.4c0,0,1-3.7,2.5-9.2c0.4-1.5,0.9-3.1,1.3-4.9l0.2,8.6l-4.9,15.9c-0.4,1.6,0.8,3.2,2.5,3.3l2.5,0.1
			l-0.1,22.9c0,1.3,1,2.4,2.3,2.4c1.3,0.1,2.5-1,2.5-2.3L82,61c0.9,0,1.9,0,2.8,0l0.9,22.8c0.1,1.3,1.1,2.4,2.5,2.4s2.4-1.1,2.4-2.5
			l-0.1-22.9l2.6-0.1c1.7-0.1,2.9-1.6,2.5-3.3l-4.9-15.9l0.2-8.5c0.5,1.7,0.9,3.3,1.3,4.8c1.5,5.5,2.5,9.2,2.5,9.2
			c0.3,1.1,1.4,1.7,2.5,1.4C98.6,48.2,99.2,47.1,98.9,46z"/>
		<circle cx="16.3" cy="12.6" r="7"/>
		<path d="M11.4,20.4L11.4,20.4L11.4,20.4z"/>
		<path d="M29.3,36.8c-0.7-2.8-1.4-6-2.3-9.5c-0.1-0.5-1.7-6.3-5.9-6.9c-1.4,0.9-3.1,1.4-4.8,1.4c-1.8,0-3.5-0.5-4.9-1.4
			c-4.2,0.6-5.8,6.3-5.9,6.9c-0.8,3.5-1.6,6.7-2.3,9.5C1.9,42.4,1,46.1,1,46.1c-0.2,1,0.4,2.1,1.4,2.4c1.1,0.3,2.2-0.3,2.5-1.4
			c0,0,1-3.7,2.5-9.2c0.4-1.5,0.9-3.1,1.3-4.9l0.2,8.6L4,57.5c-0.4,1.6,0.8,3.2,2.5,3.3L9,60.9L8.9,83.8c0,1.3,1,2.4,2.3,2.4
			c1.3,0.1,2.5-1,2.5-2.3l0.9-22.8c0.9,0,1.9,0,2.8,0l0.9,22.8c0.1,1.3,1.1,2.4,2.5,2.4s2.4-1.1,2.4-2.5l-0.1-22.9l2.6-0.1
			c1.7-0.1,2.9-1.6,2.5-3.3l-4.9-15.9l0.2-8.5c0.5,1.7,0.9,3.3,1.3,4.8c1.5,5.5,2.5,9.2,2.5,9.2c0.3,1.1,1.4,1.7,2.5,1.4
			c1-0.3,1.7-1.4,1.4-2.4C31.5,46,30.6,42.3,29.3,36.8z"/>
		<path d="M63.4,36.9c-0.6-2.9-1.2-6.3-1.9-9.9c-0.3-1.3-0.8-2.5-1.6-3.6s-1.8-2-3-2.6c-0.6-0.3-1.1-0.5-1.8-0.7
			c-1.5,1-3.3,1.7-5.2,1.7s-3.8-0.6-5.2-1.7c-0.6,0.2-1.2,0.4-1.8,0.7c-1.2,0.6-2.2,1.6-3,2.6c-0.8,1.1-1.3,2.3-1.6,3.6
			c-0.7,3.6-1.3,7-1.9,9.9c-1.1,5.8-1.9,9.7-1.9,9.7c-0.2,1.2,0.5,2.3,1.7,2.5c1.1,0.2,2.2-0.5,2.5-1.6c0,0,0.9-3.8,2.2-9.6
			c0.4-1.7,0.8-3.5,1.2-5.4l-1.5,16c0,0.5,0.4,1,1,1h0.3c0,11.3,0,22.6,0,33.9c0,1.5,1.2,2.8,2.8,2.9s3-1.2,3-2.8
			c0.5-10.4,0.9-20.8,1.3-31.2c0.6,0,1.2,0,1.7,0L52,83.5c0.1,1.5,1.3,2.8,2.9,2.8c1.6,0,2.9-1.3,2.9-2.9V49.5h0.3c0.5,0,1-0.4,1-1
			l-1.5-15.8c0.4,1.9,0.8,3.6,1.2,5.2c1.3,5.8,2.2,9.6,2.2,9.6c0.3,1.1,1.4,1.9,2.5,1.6c1.2-0.2,1.9-1.4,1.7-2.5
			C65.3,46.6,64.6,42.7,63.4,36.9z"/>
		<circle cx="50" cy="12.6" r="6.9"/>
	</g>
</g>
</svg>
