<?xml version="1.0" encoding="utf-8"?>
<!-- Generator: Adobe Illustrator 22.1.0, SVG Export Plug-In . SVG Version: 6.00 Build 0)  -->
<svg version="1.1" id="Layer_1" xmlns="http://www.w3.org/2000/svg" xmlns:xlink="http://www.w3.org/1999/xlink" x="0px" y="0px"
	 viewBox="0 0 100 87.8" style="enable-background:new 0 0 100 87.8;" xml:space="preserve">
<circle cx="12.3" cy="43.4" r="4.3"/>
<path d="M16,79.3V64.7c0-0.1,0-0.1,0-0.2h0.7c1.5,0,2.8-1.2,2.8-2.8l0,0V51.7c0-1.5-1.2-2.8-2.8-2.8H7.8c-1.5,0-2.8,1.2-2.8,2.8
	v10.1c0,1.5,1.2,2.8,2.8,2.8h0.7c0,0.1,0,0.1,0,0.2v14.5c0,1.2,1,2.2,2.1,2.2h3.3C15.1,81.4,16,80.5,16,79.3z"/>
<circle cx="31.1" cy="43.4" r="4.3"/>
<path d="M34.9,79.3V64.7c0-0.1,0-0.1,0-0.2h0.7c1.5,0,2.8-1.2,2.8-2.8l0,0V51.7c0-1.5-1.2-2.8-2.8-2.8h-8.9c-1.5,0-2.8,1.2-2.8,2.8
	v10.1c0,1.5,1.2,2.8,2.8,2.8h0.7c0,0.1,0,0.1,0,0.2v14.5c0,1.2,1,2.2,2.1,2.2h3.3C34,81.4,34.9,80.5,34.9,79.3z"/>
<circle cx="50" cy="43.4" r="4.3"/>
<path d="M53.8,79.3V64.7c0-0.1,0-0.1,0-0.2h0.7c1.5,0,2.8-1.2,2.8-2.8l0,0V51.7c0-1.5-1.2-2.8-2.8-2.8h-8.9c-1.5,0-2.8,1.2-2.8,2.8
	v10.1c0,1.5,1.2,2.8,2.8,2.8h0.7c0,0.1,0,0.1,0,0.2v14.5c0,1.2,1,2.2,2.2,2.2h3.3C52.8,81.4,53.8,80.5,53.8,79.3z"/>
<circle cx="68.9" cy="43.4" r="4.3"/>
<path d="M72.7,79.3V64.7c0-0.1,0-0.1,0-0.2h0.7c1.5,0,2.8-1.2,2.8-2.8h0V51.7c0-1.5-1.2-2.8-2.8-2.8h-8.9c-1.5,0-2.8,1.2-2.8,2.8
	v10.1c0,1.5,1.2,2.8,2.8,2.8h0.7c0,0.1,0,0.1,0,0.2v14.5c0,1.2,1,2.2,2.2,2.2h3.3C71.7,81.4,72.7,80.5,72.7,79.3z"/>
<circle cx="87.8" cy="43.4" r="4.3"/>
<path d="M92.2,48.9h-8.9c-1.5,0-2.8,1.2-2.8,2.8v10.1c0,1.5,1.2,2.8,2.8,2.8H84c0,0.1,0,0.1,0,0.2v14.5c0,1.2,1,2.1,2.1,2.1h3.3
	c1.2,0,2.2-1,2.2-2.1V64.7c0-0.1,0-0.1,0-0.2h0.7c1.5,0,2.8-1.2,2.8-2.8l0,0V51.7C95,50.2,93.8,48.9,92.2,48.9z"/>
<circle cx="31.1" cy="26" r="4.3"/>
<circle cx="50" cy="26" r="4.3"/>
<circle cx="50" cy="8.6" r="4.3"/>
<circle cx="68.9" cy="26" r="4.3"/>
<circle cx="21.7" cy="34.7" r="4.3"/>
<circle cx="40.6" cy="34.7" r="4.3"/>
<circle cx="59.4" cy="34.7" r="4.3"/>
<circle cx="40.6" cy="17.3" r="4.3"/>
<circle cx="59.4" cy="17.3" r="4.3"/>
<circle cx="78.3" cy="34.7" r="4.3"/>
</svg>
