<?xml version="1.0" encoding="utf-8"?>
<!-- Generator: Adobe Illustrator 22.1.0, SVG Export Plug-In . SVG Version: 6.00 Build 0)  -->
<svg version="1.1" id="Layer_1" xmlns="http://www.w3.org/2000/svg" xmlns:xlink="http://www.w3.org/1999/xlink" x="0px" y="0px"
	 viewBox="0 0 100 76.8" style="enable-background:new 0 0 100 76.8;" xml:space="preserve">
<circle cx="50.3" cy="15.5" r="4.9"/>
<g>
	<path d="M61.8,27.8v14.9c0,2.9-3.8,2.9-3.8,0V28.1h-1.2l0,39.6c0,1.5-1.2,2.7-2.7,2.7c-1.5,0-2.7-1.2-2.7-2.7l0-23H50v23
		c0,1.5-1.2,2.7-2.7,2.7c-1.5,0-2.7-1.2-2.7-2.7V28.1c-3.1-0.3-4.4-2.4-5.2-5.7l-3-11.8c-0.7-2.8,3-3.8,3.7-0.9c0,0,2.4,9.6,2.4,9.7
		c0.1,0.6,0.9,2,2.7,2h10.8C59.9,21.4,61.8,24.6,61.8,27.8z"/>
</g>
<circle cx="22.8" cy="16.9" r="4.6"/>
<path d="M17.4,66.4c0,1.4,1.2,2.6,2.6,2.6c1.4,0,2.6-1.2,2.6-2.6l0-21.8h1.2l0,21.8c0,1.4,1.2,2.6,2.6,2.6c1.4,0,2.6-1.2,2.6-2.6
	l0-37.5H30v13.8c0,2.8,3.6,2.8,3.6,0V28.6c0-3.1-1.8-6.1-5.4-6.1l-10.4,0c-3.3,0-5.3,2.7-5.3,6v14.2c0,2.8,3.6,2.8,3.6,0V28.9h1.2
	L17.4,66.4z"/>
<circle cx="79.9" cy="16.9" r="4.6"/>
<path d="M74.4,66.4c0,1.4,1.2,2.6,2.6,2.6c1.4,0,2.6-1.2,2.6-2.6l0-21.8h1.2l0,21.8c0,1.4,1.2,2.6,2.6,2.6c1.4,0,2.6-1.2,2.6-2.6
	l0-37.5h1.1v13.8c0,2.8,3.6,2.8,3.6,0V28.6c0-3.1-1.8-6.1-5.4-6.1l-10.4,0c-3.3,0-5.3,2.7-5.3,6v14.2c0,2.8,3.6,2.8,3.6,0V28.9h1.2
	L74.4,66.4z"/>
</svg>
