<svg width="105" height="76" xmlns="http://www.w3.org/2000/svg"><g fill="#DB1750"><path d="M34.756 24.35h-.002z"/><path d="M105 59.767v-1.858h-9.963V22.086l4.166 2.505.993-3.873L66.976.738l-33.218 19.98.994 3.873 4.165-2.505v35.823H26.62v1.858H105zM41.353 20.62L66.976 5.208l25.625 15.413v37.288H41.353V20.62z"/><path d="M7.3 71.348a3.922 3.922 0 0 0 3.93 3.914 3.922 3.922 0 0 0 3.931-3.914V42.774h1.474v28.574a3.922 3.922 0 0 0 3.93 3.914 3.922 3.922 0 0 0 3.931-3.914V23.882c.19.385.379.826.566 1.34.897 2.474 1.65 6.53 1.647 12.864a98.29 98.29 0 0 1-.18 5.768 2.536 2.536 0 0 0 2.542 2.68 2.54 2.54 0 0 0 2.537-2.385c.128-2.195.188-4.209.188-6.062-.013-9.554-1.545-14.842-3.636-18.02-1.043-1.58-2.265-2.592-3.394-3.153-1.081-.542-2.03-.667-2.605-.675-.04-.002-.08-.006-.122-.006H9.757c-.044 0-.087.004-.13.007-.576.008-1.522.134-2.598.674-1.71.844-3.553 2.691-4.843 5.964C.88 26.163.004 30.914 0 38.086c0 1.853.06 3.87.189 6.064a2.54 2.54 0 0 0 2.688 2.38 2.537 2.537 0 0 0 2.39-2.677 98.023 98.023 0 0 1-.18-5.767C5.075 30.42 6.198 26.114 7.3 23.866v47.482zm9.744-57.423c3.334-.546 5.879-3.434 5.879-6.915 0-3.872-3.145-7.01-7.025-7.01-3.88 0-7.025 3.138-7.025 7.01 0 3.481 2.545 6.369 5.88 6.915a7.087 7.087 0 0 0 2.29 0zm56.9 39.806c0 .888.662 1.608 1.479 1.608.816 0 1.478-.72 1.478-1.608v-7.476a14.453 14.453 0 0 1-2.957-.508v7.984zm3.697 0c0 .888.662 1.608 1.479 1.608.816 0 1.479-.72 1.479-1.608v-7.984c-.934.272-2.059.454-2.958.508v7.476z"/><ellipse cx="78.011" cy="23.98" rx="4.067" ry="4.058"/><path d="M86.506 39.95c-.55-4.644-1.888-7.337-3.221-8.894-.783-.92-1.556-1.417-2.103-1.681-.375-.217-1.346-.599-3.541-.599-2.192 0-3.163.381-3.54.598-.547.264-1.32.762-2.105 1.682-1.332 1.557-2.67 4.25-3.22 8.894-.078.66.414 1.256 1.1 1.331.047.006.095.008.142.008.626 0 1.167-.453 1.24-1.067.35-2.948 1.022-4.911 1.715-6.213-.549 2.948-1.14 6.731-1.14 9.363 0 .019.005.037.007.056.148.9 3.843 1.581 5.8 1.581 1.958 0 5.653-.68 5.801-1.581.003-.019.007-.037.007-.056 0-2.63-.59-6.41-1.139-9.359.692 1.302 1.365 3.265 1.714 6.209.073.613.613 1.067 1.24 1.067.048 0 .095-.003.143-.007.686-.076 1.178-.672 1.1-1.332z"/><ellipse cx="58.415" cy="22.874" rx="4.437" ry="4.427"/><path d="M53.979 40.582V53.38c0 1.083.908 1.96 2.028 1.96s2.028-.877 2.028-1.96v-8.288h.76v8.288c0 1.083.909 1.96 2.028 1.96 1.12 0 2.03-.877 2.03-1.96V40.582h-8.874z"/><path d="M62.085 28.153c-.045-.015-.09-.021-.136-.031a1.208 1.208 0 0 0-.431-.083h-6.204a1.2 1.2 0 0 0-.44.086c-.043.01-.085.015-.127.029v-.001c-.282.084-1.492.647-2.524 2.536-1.038 1.888-1.94 5.028-1.941 10.384 0 .353.003.717.012 1.094.019.761.626 1.367 1.365 1.367l.034-.001c.753-.02 1.348-.661 1.33-1.435a44.83 44.83 0 0 1-.012-1.025c0-3.846.501-6.3 1.062-7.83v6.613h8.686v-6.611c.56 1.528 1.061 3.986 1.06 7.828 0 .332-.004.674-.01 1.028-.018.773.58 1.414 1.334 1.431h.03c.74.001 1.348-.606 1.364-1.37.008-.372.012-.735.012-1.09-.002-5.355-.902-8.496-1.941-10.383-1.03-1.889-2.242-2.452-2.523-2.536z"/></g></svg>