<?xml version="1.0" encoding="utf-8"?>
<!-- Generator: Adobe Illustrator 22.1.0, SVG Export Plug-In . SVG Version: 6.00 Build 0)  -->
<svg version="1.1" xmlns="http://www.w3.org/2000/svg" xmlns:xlink="http://www.w3.org/1999/xlink" x="0px" y="0px"
	 viewBox="0 0 100 79.4" style="enable-background:new 0 0 100 79.4;" xml:space="preserve">
<g id="Layer_2">
</g>
<g id="Layer_1">
	<g>
		<path d="M96.8,33.9l-46-29c-0.5-0.3-1.1-0.3-1.6,0l-46,29c-0.7,0.4-0.9,1.3-0.5,2l1.9,2.9c0.4,0.7,1.3,0.9,2,0.5l11.2-7.1v37.3
			c0,0.8,0.6,1.4,1.4,1.4h3.5c0.8,0,1.4-0.6,1.4-1.4V28.2L50,11.9l25.9,16.3v41.3c0,0.8,0.6,1.4,1.4,1.4h3.5c0.8,0,1.4-0.6,1.4-1.4
			V32.2l11.2,7.1c0.7,0.4,1.6,0.2,2-0.5l1.9-2.9C97.7,35.2,97.5,34.3,96.8,33.9z"/>
		<circle cx="40.1" cy="32.1" r="4.6"/>
		<circle cx="59.9" cy="32.1" r="4.6"/>
		<path d="M65.6,39.1c-0.3-0.5-0.9-0.9-1.5-0.9h-8.4c-0.6,0-1.2,0.3-1.5,0.9l-4.2,7l-4.2-7c-0.3-0.5-0.9-0.9-1.5-0.9h-8.4
			c-0.6,0-1.2,0.3-1.5,0.9l-5.7,9.4c-0.4,0.7-0.4,1.7,0.3,2.3c0.9,0.8,2.1,0.5,2.7-0.4l3.3-5.5v24c0,1,0.7,1.9,1.6,2.1
			c1.3,0.3,2.5-0.7,2.5-2V55H41v13.9c0,1,0.7,1.9,1.6,2.1c1.3,0.3,2.5-0.7,2.5-2V45l3.3,5.5c0.2,0.3,0.5,0.6,0.8,0.7
			c0.9,0.4,1.8,0,2.2-0.7l3.3-5.5v4.8l0,0l-3.5,6.7c-0.6,1.1,0.2,2.4,1.5,2.4h2V69c0,1,0.7,1.9,1.6,2.1c1.3,0.3,2.5-0.7,2.5-2V58.8
			h1.9v10.1c0,1,0.7,1.9,1.6,2.1c1.3,0.3,2.5-0.7,2.5-2V58.8h2c1.2,0,2.1-1.3,1.5-2.4L65,49.6l0,0v-4.8l3.3,5.5
			c0.3,0.5,0.9,0.9,1.5,0.9c0.3,0,0.7-0.1,1-0.3c0.8-0.5,0.9-1.6,0.4-2.4L65.6,39.1z"/>
	</g>
</g>
</svg>
