<?xml version="1.0" encoding="utf-8"?>
<!-- Generator: Adobe Illustrator 22.1.0, SVG Export Plug-In . SVG Version: 6.00 Build 0)  -->
<svg version="1.1" id="Layer_1" xmlns="http://www.w3.org/2000/svg" xmlns:xlink="http://www.w3.org/1999/xlink" x="0px" y="0px"
	 viewBox="0 0 66 65.5" style="enable-background:new 0 0 66 65.5;" xml:space="preserve">
<g>
	<g>
		<g>
			<path d="M28.5,11.4c-4-4-1.2-10.9,4.5-10.9c3.6,0,6.4,2.9,6.4,6.4c0,3.6-2.9,6.4-6.4,6.4C31.3,13.3,29.7,12.6,28.5,11.4z"/>
		</g>
		<g>
			<path d="M3.4,23.4C3,23,3,22.4,3.4,22l7.2-7.2c0.4-0.4,1-0.4,1.4,0l7.2,7.2c0.4,0.4,0.4,1,0,1.4L12,30.6c-0.4,0.4-1,0.4-1.4,0
				L3.4,23.4z"/>
		</g>
		<g>
			<path d="M24.4,25.3c0-4.7,3.9-8.6,8.6-8.6l0,0c4.7,0,8.6,3.9,8.6,8.7c0,4.7-3.9,8.6-8.6,8.6l0,0C28.2,34,24.4,30.1,24.4,25.3z"/>
		</g>
		<g>
			<path d="M46.6,28.4l7.2-12.5c0.4-0.6,1.4-0.6,1.7,0l7.2,12.5c0.4,0.7-0.1,1.5-0.9,1.5H47.5C46.7,29.9,46.2,29.1,46.6,28.4z"/>
		</g>
		<g>
			<path d="M64.3,40.3l-8.6,9.6c-1.2,1.2-3.2,1.2-4.4,0L47,45.7v18.8c0,0.6-0.4,1-1,1H20c-0.6,0-1-0.4-1-1V45.7L14.7,50
				c-1.2,1.2-3.2,1.1-4.4,0l-8.7-9.7c-1.1-1.1-1.2-3.1,0-4.3s3.2-1.2,4.3,0l6.5,7.4l5.7-5.7c0.8-0.8,1.9-1.3,3.1-1.3h23.3
				c1.2,0,2.3,0.5,3.1,1.3l5.7,5.7l6.5-7.4c1.2-1.2,3.2-1.2,4.4,0C65.5,37.2,65.5,39.2,64.3,40.3z"/>
		</g>
	</g>
</g>
</svg>
