<?xml version="1.0" encoding="UTF-8"?>
<svg width="182px" height="100px" viewBox="0 0 182 100" version="1.1" 
    xmlns="http://www.w3.org/2000/svg" 
    xmlns:xlink="http://www.w3.org/1999/xlink">
    <!-- Generator: Sketch 50 (54983) - http://www.bohemiancoding.com/sketch -->
    <title>Group 11</title>
    <desc>Created with Sketch.</desc>
    <defs></defs>
    <g id="Page-1" stroke="none" stroke-width="1" fill="none" fill-rule="evenodd">
        <g id="Homepage" transform="translate(-1071.000000, -2275.000000)" fill="#EC2A81">
            <g id="Group-11" transform="translate(1067.000000, 2275.000000)">
                <g id="Group-3" transform="translate(55.000000, 0.000000)" fill-rule="nonzero">
                    <path d="M45.1782114,48.9718863 L49.3865927,44.7778205 C49.8816964,44.284401 49.8816964,43.6676266 49.5103687,43.1742071 L46.1684188,38.8567864 C47.406178,36.8831083 48.2726094,34.6627205 48.8914891,32.4423327 L54.3376296,31.7022035 C54.9565092,31.5788486 55.4516129,31.0854291 55.4516129,30.4686547 L55.4516129,24.5476206 C55.4516129,23.9308462 54.9565092,23.4374267 54.3376296,23.3140718 L48.8914891,22.5739426 C48.3963854,20.2301999 47.406178,18.133167 46.1684188,16.1594889 L49.5103687,11.8420682 C49.8816964,11.3486487 49.8816964,10.6085195 49.3865927,10.1150999 L45.3019873,6.04438899 C44.8068836,5.55096948 44.188004,5.55096948 43.6929003,5.92103411 L39.3607431,9.2516158 C37.3803283,8.01806703 35.1523618,7.15458289 32.9243952,6.5378085 L32.1817396,1.1101939 C32.0579637,0.493419509 31.56286,0 30.9439804,0 L25.0027362,0 C24.3838566,0 23.8887529,0.493419509 23.764977,1.1101939 L23.0223214,6.5378085 C20.6705789,7.03122801 18.5663882,8.01806703 16.5859735,9.2516158 L15.5957661,8.51148654 C14.234231,7.52464752 12.625144,6.16774387 12.1300403,5.92103411 C11.6349366,5.55096948 10.8922811,5.67432436 10.3971774,6.04438899 L5.94124424,10.1150999 C5.44614055,10.6085195 5.44614055,11.2252938 5.81746832,11.7187133 L9.1594182,16.0361341 C7.92165899,18.0098121 7.05522753,20.2301999 6.43634793,22.4505877 L0.990207373,23.1907169 C0.495103687,23.4374267 0,23.9308462 0,24.5476206 L0,30.4686547 C0,31.0854291 0.495103687,31.5788486 1.11398329,31.7022035 L6.56012385,32.4423327 C7.05522753,34.7860754 7.92165899,36.8831083 9.28319412,38.8567864 C8.16921083,40.21369 5.94124424,43.1742071 5.94124424,43.1742071 C5.56991647,43.6676266 5.56991647,44.4077558 6.06502016,44.7778205 L10.2734015,48.9718863 C10.5209533,49.2185961 10.7685052,49.3419509 11.1398329,49.3419509 C11.3873848,49.3419509 11.6349366,49.2185961 11.8824885,49.0952412 L14.234231,47.3682729 L14.234231,64.2678911 C14.234231,65.0080204 14.7293347,65.5014399 15.4719902,65.5014399 L19.4328197,65.5014399 L19.4328197,77.8369276 C19.4328197,79.8106056 21.0419067,81.414219 23.0223214,81.414219 L32.4292915,81.414219 C34.4097062,81.414219 36.0187932,79.8106056 36.0187932,77.8369276 L36.0187932,65.5014399 L39.9796227,65.5014399 C40.7222782,65.5014399 41.2173819,65.0080204 41.2173819,64.2678911 L41.2173819,47.4916278 L43.4453485,49.2185961 C43.9404522,49.5886607 44.6831077,49.4653058 45.1782114,48.9718863 Z M11.1398329,46.6281436 L8.41676267,43.9143363 C9.40697005,42.6807876 11.1398329,40.3370449 11.5111607,39.8436254 C11.8824885,39.3502059 11.8824885,38.7334315 11.6349366,38.240012 C10.1496256,36.1429791 9.1594182,33.6758815 8.66431452,31.0854291 C8.54053859,30.5920096 8.16921083,30.0985901 7.55033122,30.0985901 L2.47551843,29.3584608 L2.47551843,25.5344596 L7.79788306,24.7943303 C8.29298675,24.6709755 8.78809044,24.3009108 8.91186636,23.8074913 C9.40697005,21.2170389 10.3971774,18.7499414 11.8824885,16.6529084 C12.1300403,16.1594889 12.1300403,15.6660694 11.8824885,15.1726499 L8.54053859,11.101939 L11.1398329,8.51148654 C11.8824885,9.00490605 12.8726959,9.86839019 13.7391273,10.4851646 L15.2244384,11.5953585 C15.7195421,11.9654231 16.3384217,11.9654231 16.8335253,11.7187133 C18.937716,10.2384548 21.4132344,9.2516158 24.0125288,8.75819629 C24.5076325,8.63484141 24.8789603,8.26477678 25.0027362,7.77135727 L25.7453917,2.46709755 L29.5824453,2.46709755 L30.3251008,7.64800239 C30.4488767,8.1414219 30.8202045,8.63484141 31.3153082,8.63484141 C33.9146025,9.12826092 36.390121,10.1150999 38.4943116,11.5953585 C38.9894153,11.8420682 39.484519,11.8420682 39.9796227,11.5953585 L44.188004,8.38813166 L46.9110743,11.101939 L43.6929003,15.2960048 C43.3215726,15.6660694 43.3215726,16.2828438 43.6929003,16.7762633 C45.1782114,18.9966511 46.1684188,21.3403938 46.6635225,23.9308462 C46.7872984,24.4242657 47.1586262,24.9176852 47.7775058,24.9176852 L53.0998704,25.6578145 L53.0998704,29.4818157 L47.7775058,30.2219449 C47.2824021,30.3452998 46.7872984,30.7153645 46.6635225,31.208784 C46.1684188,33.7992364 45.1782114,36.1429791 43.6929003,38.3633669 C43.4453485,38.8567864 43.4453485,39.3502059 43.6929003,39.8436254 L46.9110743,44.0376912 L44.188004,46.7514985 L41.2173819,44.5311107 C41.2173819,41.5705937 39.7320709,39.1034961 37.6278802,37.6232376 C40.3509505,35.0327852 41.8362615,31.4554937 41.8362615,27.7548474 C41.8362615,19.9834901 35.5236895,13.8157463 27.7258065,13.8157463 C19.9279234,13.8157463 13.6153514,19.8601353 13.6153514,27.5081376 C13.6153514,31.208784 15.1006624,34.7860754 17.8237327,37.3765278 C15.7195421,38.8567864 14.234231,41.3238839 14.234231,44.284401 L11.1398329,46.6281436 Z M20.1754752,36.3896888 C17.452405,34.169301 15.9670939,30.9620742 15.9670939,27.5081376 C15.9670939,21.2170389 21.1656826,16.0361341 27.6020305,16.0361341 C34.0383785,16.0361341 39.2369672,21.2170389 39.2369672,27.5081376 C39.2369672,30.9620742 37.7516561,34.169301 35.0285858,36.3896888 C34.5334821,36.2663339 34.0383785,36.2663339 33.5432748,36.2663339 L21.5370104,36.2663339 C21.1656826,36.2663339 20.6705789,36.2663339 20.1754752,36.3896888 Z M38.6180876,63.1576972 L35.8950173,63.1576972 L35.8950173,53.289307 C35.8950173,52.5491777 35.3999136,52.0557582 34.6572581,52.0557582 C33.9146025,52.0557582 33.4194988,52.5491777 33.4194988,53.289307 L33.4194988,77.9602825 C33.4194988,78.5770569 32.9243952,79.0704764 32.3055156,79.0704764 L28.8397897,79.0704764 L28.8397897,65.0080204 C28.8397897,64.2678911 28.3446861,63.7744716 27.6020305,63.7744716 C26.859375,63.7744716 26.3642713,64.2678911 26.3642713,65.0080204 L26.3642713,78.9471215 L22.8985455,78.9471215 C22.2796659,78.9471215 21.7845622,78.453702 21.7845622,77.8369276 L21.7845622,53.1659521 C21.7845622,52.4258229 21.2894585,51.9324034 20.546803,51.9324034 C19.8041475,51.9324034 19.3090438,52.4258229 19.3090438,53.1659521 L19.3090438,63.0343423 L16.5859735,63.0343423 L16.5859735,44.4077558 C16.5859735,41.200529 18.8139401,38.6100766 21.6607863,38.6100766 L33.6670507,38.6100766 C36.390121,38.6100766 38.7418635,41.200529 38.7418635,44.4077558 L38.7418635,63.1576972 L38.6180876,63.1576972 Z" id="Shape"></path>
                    <path d="M27.7258065,35.8922901 C32.3569302,35.8922901 36.0875576,32.1818489 36.0875576,27.5757839 C36.0875576,22.9697189 32.3569302,19.2592776 27.7258065,19.2592776 C23.0946827,19.2592776 19.3640553,22.9697189 19.3640553,27.5757839 C19.4926976,32.1818489 23.2233251,35.8922901 27.7258065,35.8922901 Z M27.7258065,21.9461489 C30.9418646,21.9461489 33.5147111,24.5050739 33.5147111,27.7037301 C33.5147111,30.9023864 30.9418646,33.4613114 27.7258065,33.4613114 C24.5097483,33.4613114 21.9369018,30.9023864 21.9369018,27.7037301 C21.9369018,24.5050739 24.6383906,21.9461489 27.7258065,21.9461489 Z" id="Shape"></path>
                    <path d="M55.1617083,54.7350762 C54.6641449,54.1231693 53.5446274,54.1231693 53.1714548,54.7350762 L44.2153141,67.5851221 C43.9665324,67.9522663 43.9665324,68.4417918 44.0909232,68.808936 C44.3397049,69.1760801 44.7128775,69.4208429 45.2104408,69.4208429 L49.3153387,69.4208429 L49.3153387,80.1904052 C49.3153387,80.9246935 49.812902,81.414219 50.5592471,81.414219 L57.6495252,81.414219 C58.3958703,81.414219 58.8934336,80.9246935 58.8934336,80.1904052 L58.8934336,69.5432243 L62.9983315,69.5432243 C63.4958948,69.5432243 63.8690674,69.2984615 64.1178491,68.9313174 C64.3666307,68.5641732 64.2422399,68.0746476 63.9934582,67.7075035 L55.1617083,54.7350762 Z M57.773916,67.0955965 C57.027571,67.0955965 56.5300076,67.5851221 56.5300076,68.3194104 L56.5300076,78.9665913 L51.9275464,78.9665913 L51.9275464,68.3194104 C51.9275464,67.5851221 51.429983,67.0955965 50.683638,67.0955965 L47.6982577,67.0955965 L54.2909724,57.6722296 L60.8836871,67.0955965 L57.773916,67.0955965 Z" id="Shape"></path>
                    <path d="M81.5987327,46.6319882 L72.6972869,33.7269203 C72.2027621,33.1123932 71.0900814,33.1123932 70.7191878,33.7269203 L61.8177421,46.6319882 C61.5704797,47.0007045 61.5704797,47.4923261 61.6941109,47.8610423 C61.9413733,48.2297586 62.3122669,48.4755694 62.8067916,48.4755694 L66.8866209,48.4755694 L66.8866209,80.185165 C66.8866209,80.9225974 67.3811457,81.414219 68.1229328,81.414219 L75.1699107,81.414219 C75.9116979,81.414219 76.4062226,80.9225974 76.4062226,80.185165 L76.4062226,48.5984748 L80.6096831,48.5984748 C81.1042079,48.5984748 81.4751015,48.352664 81.7223638,47.9839477 C81.9696262,47.4923261 81.845995,47.0007045 81.5987327,46.6319882 Z M75.2935419,46.1403666 C74.5517548,46.1403666 74.05723,46.6319882 74.05723,47.3694207 L74.05723,78.9561109 L69.4828759,78.9561109 L69.4828759,47.3694207 C69.4828759,46.6319882 68.9883512,46.1403666 68.246564,46.1403666 L65.2794154,46.1403666 L71.8318686,36.6766501 L78.3843217,46.1403666 L75.2935419,46.1403666 Z" id="Shape"></path>
                </g>
            </g>
        </g>
    </g>
</svg>