<?xml version="1.0" encoding="utf-8"?>
<!-- Generator: Adobe Illustrator 22.1.0, SVG Export Plug-In . SVG Version: 6.00 Build 0)  -->
<svg version="1.1" id="Layer_1" xmlns="http://www.w3.org/2000/svg" xmlns:xlink="http://www.w3.org/1999/xlink" x="0px" y="0px"
	 viewBox="0 0 66 65.5" style="enable-background:new 0 0 66 65.5;" xml:space="preserve">
<g>
	<g>
		<path d="M20.5,34v-5.3h4.2c0.5,0,1-0.5,1-1v-5.2l2.9-1.1c0.6-0.2,0.8-0.9,0.5-1.4l-2.4-4.3c0.1-0.7,0.2-1.4,0.2-2.1
			c0-7.2-5.8-13-13-13C2.1,0.5-3.4,15.2,5.1,23c0.6,0.5,1.2,1,1.9,1.5V34c0,0.5,0.4,1,1,1h11.6C20,35,20.5,34.5,20.5,34z"/>
	</g>
	<g>
		<path d="M61.1,34.7c-0.4,1.1-1,2-1.8,2.9c-0.6,0.6-1,1.3-1.3,2.1c1.1,0.4,1.9,1.5,1.9,2.8c0,1.5-1.1,2.7-2.5,3
			c-0.5,1.9-2.3,3.4-4.4,3.4h-2.8c-2.1,0-3.9-1.4-4.4-3.4c-1.4-0.2-2.5-1.5-2.5-3c0-1.3,0.8-2.3,1.9-2.8c-0.3-0.8-0.8-1.6-1.4-2.3
			c-0.5-0.6-1-1.3-1.4-2c-2.1,2.4-3.4,5.5-3.4,8.7c0,0.7,0.1,1.4,0.2,2.1l-2.4,4.3c-0.1,0.3-0.2,0.6-0.1,0.8
			c0.1,0.3,0.3,0.5,0.6,0.6l2.9,1.1v5.2c0,0.6,0.5,1,1,1h4.2v5.3c0,0.6,0.4,1,1,1H58c0.5,0,1-0.4,1-1v-9.6c0.7-0.4,1.3-0.9,1.8-1.4
			c0.7-0.6,1.8-2.1,1.9-2.3c1.4-2.1,2.2-4.6,2.2-7.2C65,40.4,63.6,37.1,61.1,34.7z"/>
	</g>
	<g>
		<path d="M41.8,29.5h-1.5c-0.5,0-1,0.4-1,1c0,0.5,0.5,1,1,1h1.5c0.5,0,1-0.5,1-1C42.8,29.9,42.3,29.5,41.8,29.5z"/>
	</g>
	<g>
		<path d="M44,26.1c0.3-0.5,0.1-1.1-0.4-1.4l-1.3-0.8c-0.5-0.3-1.1-0.1-1.4,0.4c-0.3,0.5-0.1,1.1,0.4,1.4l1.3,0.8
			C43.1,26.7,43.7,26.5,44,26.1z"/>
	</g>
	<g>
		<path d="M50.6,19.1v1.5c0,0.5,0.4,1,1,1c0.5,0,1-0.5,1-1v-1.5c0-0.6-0.5-1-1-1S50.6,18.6,50.6,19.1z"/>
	</g>
	<g>
		<path d="M47.2,22.8c0.5-0.3,0.6-0.9,0.4-1.4l-0.8-1.3c-0.3-0.5-0.9-0.6-1.4-0.4c-0.5,0.3-0.6,0.9-0.4,1.4l0.8,1.3
			C46.1,22.9,46.8,23.1,47.2,22.8z"/>
	</g>
	<g>
		<path d="M56.1,22.8c0.4,0.3,1.1,0.1,1.4-0.4l0.8-1.3c0.3-0.5,0.1-1.1-0.4-1.4s-1.1-0.1-1.4,0.4l-0.8,1.3
			C55.4,21.9,55.6,22.5,56.1,22.8z"/>
	</g>
	<g>
		<path d="M60.7,26.4l1.3-0.8c0.5-0.3,0.6-0.9,0.4-1.4c-0.3-0.5-0.9-0.6-1.4-0.4l-1.3,0.8c-0.5,0.3-0.6,0.9-0.4,1.4
			C59.6,26.5,60.2,26.7,60.7,26.4z"/>
	</g>
	<g>
		<path d="M59.9,30.7c0-4.9-4.2-8.7-9.2-8.2c-3.7,0.4-6.7,3.3-7.3,7c-0.3,2.4,0.3,4.8,1.9,6.6c1.4,1.7,2.2,3.5,2.3,5.4h-1.3
			c-0.5,0-1,0.4-1,1s0.5,1,1,1h1.3v0.8c0,1.4,1.1,2.5,2.5,2.5H53c1.4,0,2.6-1.1,2.6-2.5v-0.8h1.3c0.5,0,1-0.4,1-1s-0.5-1-1-1h-1.3
			c0.1-2,0.9-3.8,2.2-5.3C59.2,34.7,59.9,32.7,59.9,30.7z"/>
	</g>
	<g>
		<path d="M60.5,30.5c0,0.5,0.5,1,1,1H63c0.5,0,1-0.5,1-1c0-0.6-0.5-1-1-1h-1.5C61,29.5,60.5,29.9,60.5,30.5z"/>
	</g>
	<g>
		<path d="M29.1,53.2c-0.4-0.4-1-0.4-1.4,0s-0.4,1,0,1.4l2,2h-6.8c-4.1,0-7.5-3.4-7.5-7.5V38.7c0-0.5-0.4-1-1-1s-1,0.5-1,1v10.5
			c0,5.3,4.3,9.5,9.5,9.5h6.8l-2,2c-0.4,0.4-0.4,1,0,1.4s1.1,0.4,1.4,0l3.7-3.7c0.4-0.4,0.4-1,0-1.4L29.1,53.2z"/>
	</g>
	<g>
		<path d="M38,10.6c0.4-0.4,0.4-1,0-1.4l-2-2h6.8c4.1,0,7.5,3.4,7.5,7.5c0,0.6,0.5,1,1,1s1-0.4,1-1c0-5.3-4.3-9.5-9.5-9.5H36l2-2
			c0.4-0.4,0.4-1,0-1.4s-1-0.4-1.4,0l-3.7,3.7c-0.4,0.4-0.4,1,0,1.4l3.7,3.7C36.9,11,37.6,11,38,10.6z"/>
	</g>
</g>
</svg>
