<?xml version="1.0" encoding="utf-8"?>
<!-- Generator: Adobe Illustrator 22.1.0, SVG Export Plug-In . SVG Version: 6.00 Build 0)  -->
<svg version="1.1" id="Layer_1" xmlns="http://www.w3.org/2000/svg" xmlns:xlink="http://www.w3.org/1999/xlink" x="0px" y="0px"
	 viewBox="0 0 100 96.6" style="enable-background:new 0 0 100 96.6;" xml:space="preserve">
<path d="M83.8,45.9c0.3-1.7-0.9-3.3-2.2-4.6l-7.1-7.1l9.4-9.4c2.2,1.6,6.1,3.8,8,1.9c2.3-2.3-1.2-7.9-5.5-12.2
	c-4.3-4.3-9.9-7.8-12.2-5.5c-1.9,1.9,0.4,5.8,1.9,8l-9.4,9.4l-7.1-7.1c-1.3-1.3-2.9-2.6-4.6-2.2c-1.2,0.2-2.1,1.1-2.8,2.7
	c-1.1,2.9-1.8,4.6,0.3,6.7l3.4,3.4L21.9,63.7c-3.4,3.4-2.2,12.9-2,14l0.1,0.4l0.6,0.6l-13,13l7.2-3.8l7.4-7.4l0.6,0.6l0.4,0.1
	c1.1,0.2,10.5,1.4,14-2L71.1,45l3.4,3.4c2.1,2.1,3.8,1.4,6.7,0.3C82.7,48,83.6,47.1,83.8,45.9z M72.2,32.1l11.1-11.1
	c0.1,0.2,0.2,0.4,0.3,0.5l-11,11L72.2,32.1z M75.8,10.8c0.6-0.4,4.1,0.8,8.8,5.5c4.7,4.7,5.8,8.2,5.5,8.8c-0.3,0.2-1.9,0-4.6-1.9
	l0.6-0.6c0.3-0.3,0.4-0.7,0.3-1.2c-0.1-0.3-0.5-1.7-2.8-4c-2.4-2.4-3.7-2.8-4.2-2.9c-0.4,0-0.7,0.1-1,0.3l-0.6,0.6
	C75.8,12.6,75.6,11.1,75.8,10.8z M79.4,17.1c0.5,0.3,1.2,0.8,2.4,1.9c0.3,0.3,0.6,0.6,0.8,0.9L71.4,31.2l-3-3L79.4,17.1z M38.6,50.3
	l1-1c2.3,1.1,8.5,4.6,11.9,11.9l-1,1c-1.4-3.8-6-9-10.1-11.1l-1.6,1.6c0.8,0.4,1.8,1.2,3,2.3c0.2,0.2,0.2,0.6,0,0.9
	c-0.2,0.2-0.6,0.2-0.9,0c-1.2-1.2-2.3-1.9-3-2.3l-3.1,3.1c0.8,0.4,1.8,1.2,3,2.3c0.2,0.2,0.2,0.6,0,0.9c-0.2,0.2-0.6,0.2-0.9,0
	c-1.2-1.2-2.3-1.9-3-2.3l-3.1,3.1c0.8,0.4,1.8,1.2,3,2.3c0.2,0.2,0.2,0.6,0,0.9s-0.6,0.2-0.9,0c-1.2-1.2-2.3-1.9-3-2.3L27,64.6
	c0.8,0.4,1.8,1.2,3,2.3c0.2,0.2,0.2,0.6,0,0.9c-0.2,0.2-0.6,0.2-0.9,0c-1.2-1.2-2.3-1.9-3-2.3l-1.2,1.2c-1,1-1.4,5.3-1,9.4
	c0,0,0.2,0.7-0.8,1.7l-0.9-0.9c-0.5-3.6-0.5-9.6,1.4-11.5L38.6,50.3z M49.5,55.6l19-19c0.1,0.2,0.3,0.3,0.4,0.5l-19,19
	C49.7,56,49.6,55.8,49.5,55.6z M66.5,34.4c0.4,0.5,0.9,0.9,1.2,1.3l-19,19c-1.3-1.5-2.7-2.7-4-3.7l19-19
	C64.6,32.6,65.5,33.4,66.5,34.4z M52.4,60.3c-0.6-1.1-1.2-2.2-1.8-3.2l19-19c1.3,2,1.7,3.3,1.3,3.7L52.4,60.3z M43.7,50.3
	c-1.2-0.8-2.3-1.5-3.1-1.9l18.5-18.5c0.3-0.3,1.7,0,3.7,1.3L43.7,50.3z M80.2,46.4c-3,1.2-3.2,1.1-4.1,0.3l-3.4-3.4
	c2-2.4-1-7-4.6-10.6c-3.6-3.6-8.2-6.6-10.6-4.6l-3.4-3.4c-0.9-0.9-0.9-1.1,0.3-4c0.3-0.7,0.7-1.2,1-1.2c0.3-0.1,1,0.2,2.4,1.6l22,22
	c1.4,1.4,1.6,2.1,1.6,2.4C81.3,45.8,80.9,46.2,80.2,46.4z"/>
</svg>
