<svg viewBox="0 0 62.5 91.7" xmlns="http://www.w3.org/2000/svg"><path d="m59.5 2.138-9.8 16.9c-2.5 2.2-5.6 4.7-6.4 6.1l-.1 1.2c-1.1-.6-2-1.2-3.9-2.3-.9-.5-2.2-.2-2.7.7l-19 32.9-3.5-2c-.9-.5-2.2-.2-2.8.7-.5.9-.2 2.2.8 2.7 2 1.2 5.2 3 6.9 4l-8.5 14.7-2.6-1.5c-.9-.5-2.2-.2-2.8.7-.5.9-.2 2.2.8 2.7l13.9 8c.9.5 2.2.2 2.8-.7.5-.9.2-2.2-.8-2.7l-2.6-1.5 8.5-14.7c1.8 1 4.9 2.8 6.9 3.9.9.5 2.2.2 2.8-.7.5-.9.2-2.2-.8-2.7l-3.5-2 19.1-32.9c.5-.9.2-2.2-.7-2.7-2-1.2-2.8-1.6-3.9-2.2l1-.6c.9-1.5 1.4-5.4 2.1-8.6l9.3-16.1-.5-1.3zm-11.8 31.3-18 31.2c-2.6-1.5-6.1-3.5-8.7-5.1l2-3.4 4.3 2.5 2-3.5-4.3-2.5 2-3.5 4.3 2.5 2-3.5-4.3-2.5 2-3.5 4.3 2.5 2-3.5-4.3-2.5 2-3.5 4.3 2.5 2-3.5-4.3-2.5 2-3.4c2.8 1.9 5 3.1 8.7 5.2z"/></svg>