<?xml version="1.0" encoding="utf-8"?>
<!-- Generator: Adobe Illustrator 22.1.0, SVG Export Plug-In . SVG Version: 6.00 Build 0)  -->
<svg version="1.1" id="Layer_1" xmlns="http://www.w3.org/2000/svg" xmlns:xlink="http://www.w3.org/1999/xlink" x="0px" y="0px"
	 viewBox="0 0 96 93.6" style="enable-background:new 0 0 96 93.6;" xml:space="preserve">
<g>
	<path d="M25.3,58.9c0.1-0.5,0.4-0.9,0.8-1.1c2.2-1.2,4,1.7,5.2,3.6l0-13.2c0-0.5,0.3-1.3,0.9-1.7c0.1-0.2,0.2-0.4,0.3-0.6
		c0.4-0.7,0.9-2.8,1.1-3.6l0-11.3c0-0.1,0-0.4-0.1-0.5c0,0-0.1-0.1-0.4-0.1c-0.6,0-0.6,0.5-0.6,0.6l0,7.5h-2.2V28.2
		c0-0.1,0-0.4-0.1-0.5c0,0-0.1-0.1-0.4-0.1c-0.5,0-0.6,0.4-0.6,0.6l0,9.6h-2.2V27.1c0-0.1,0-0.4-0.1-0.5c0,0-0.1-0.1-0.4-0.1
		c-0.6,0-0.6,0.5-0.6,0.6l0,12h-2.2v-9.7c0,0,0,0,0,0c0-0.1,0-0.3-0.1-0.5c0,0-0.1-0.1-0.4-0.1c-0.5,0-0.6,0.4-0.6,0.6l0,12.2
		c0,0.6-0.3,0.8-0.5,0.8c-0.5,0.2-0.8-0.3-1.4-1.2c-0.7-1.1-2-3.4-3-2.8c0,0-0.1,0-0.1,0.2c-0.3,1.6,3.4,7,5.8,10.1l0.1,0.2v31.7
		h8.3l0-9.8C29.3,67.9,24.8,61.5,25.3,58.9z"/>
	<path d="M48.7,64l0-0.1l0-13.6c0-0.1,0-0.9,0.5-1.5c0.2-0.3,0.7-0.6,1.4-0.6c1.5,0,2,1.2,2,2l0.1,7.7V46.8c0,0,0-0.6,0.3-1.2v-3.3
		l0.1-0.2C56,38.5,60.5,32,60.1,30c0-0.2-0.1-0.2-0.2-0.3c-1.3-0.7-2.9,2-3.8,3.4c-0.7,1.1-1,1.6-1.5,1.4c-0.3-0.1-0.5-0.4-0.5-0.9
		l0-14.6c0-0.3-0.1-0.9-0.9-0.9c-0.3,0-0.4,0.1-0.6,0.2c-0.2,0.2-0.2,0.5-0.2,0.6c0,0,0,0,0,0l0,11.5h-2.4l0-14.2
		c0-0.3-0.1-0.9-0.9-0.9c-0.3,0-0.4,0.1-0.6,0.2c-0.2,0.2-0.2,0.5-0.2,0.6l0,12.7h-2.4l0-11.3c0-0.3-0.1-0.9-0.9-0.9
		c-0.3,0-0.4,0.1-0.6,0.2c-0.2,0.2-0.2,0.5-0.2,0.6l0,12.4h-2.4l0-8.9c0-0.3-0.1-0.9-0.9-0.9c-0.3,0-0.4,0.1-0.6,0.2
		c-0.2,0.2-0.2,0.5-0.2,0.6l0,7.3l0,6.2c0.2,1,0.8,3.4,1.3,4.3c0.7,1.3,1.2,3.5,1.2,3.6l0,0.1v2.9c0.4,0.6,0.3,1.2,0.3,1.3l0,11.1
		l0-7.7c0-0.8,0.5-2,2-2c0.7,0,1.2,0.3,1.4,0.6c0.6,0.6,0.5,1.4,0.5,1.5l0,13.6l0,0.1c0,0.1-0.8,3.4-1.5,4.7c-0.6,1-1,2.8-1,3.2v8.4
		h6.5v-8.4c-0.1-0.3-0.5-2.2-1-3.2C49.5,67.4,48.8,64.1,48.7,64z"/>
	<path d="M69.6,59.2c0-0.2-0.1-0.2-0.2-0.3c-1.3-0.7-2.9,2-3.8,3.4c-0.5,0.8-0.7,1.2-1,1.4c-0.1,0.1-0.3,0.1-0.5,0.1
		c-0.3-0.1-0.5-0.4-0.5-0.9l0-1.1l0-13.5c0-0.2-0.1-0.7-0.6-0.8c-0.1,0-0.1,0-0.2,0c-0.3,0-0.4,0.1-0.6,0.2
		c-0.2,0.2-0.2,0.5-0.2,0.6c0,0,0,0,0,0l0,10.4v1h-2.4l0-14.2c0-0.3-0.1-0.9-0.9-0.9c-0.4,0-0.5,0.1-0.6,0.2
		c-0.2,0.2-0.2,0.6-0.2,0.6l0,12.7h-2.4l0-11.3c0-0.3-0.1-0.9-0.9-0.9c-0.2,0-0.4,0.1-0.5,0.1c0,0-0.1,0.1-0.1,0.1
		c-0.2,0.2-0.2,0.6-0.2,0.6l0,12.4H53h-1.5l0-8.9c0-0.3-0.1-0.9-0.9-0.9c-0.3,0-0.4,0.1-0.6,0.2c-0.2,0.2-0.2,0.5-0.2,0.6l0,7.3
		l0,6.2c0.2,1,0.8,3.4,1.3,4.3c0.7,1.3,1.2,3.5,1.2,3.6l0,0.1v8.5H53h1.2h8.3v-8.8l0.1-0.2c0.2-0.3,0.5-0.6,0.7-0.9
		c0.4-0.5,0.8-1,1.2-1.6C67.1,65.1,69.9,60.7,69.6,59.2z"/>
	<path d="M46.1,63.8l0-13.5c0-0.1,0-0.5-0.2-0.7c-0.1-0.1-0.3-0.2-0.6-0.2c-0.8,0-0.9,0.7-0.9,0.9l0,8.9h-1.5h-0.8V46.8
		c0-0.1,0-0.5-0.2-0.7c0,0-0.1-0.1-0.1-0.1C41.7,46,41.5,46,41.3,46c-0.8,0-0.9,0.7-0.9,0.9l0,11.3h-2.4V45.5c0-0.1,0-0.5-0.2-0.7
		c-0.1-0.1-0.3-0.2-0.6-0.2c-0.8,0-0.9,0.7-0.9,0.9l0,14.2h-2.4v-1V48.2c0,0,0,0,0,0c0-0.2,0-0.5-0.2-0.6c-0.1-0.1-0.3-0.2-0.6-0.2
		c-0.1,0-0.2,0-0.2,0c-0.5,0.1-0.6,0.6-0.6,0.8l0,13.5l0,1.1c0,0.5-0.2,0.8-0.5,0.9c-0.2,0.1-0.3,0-0.5,0c-0.3-0.2-0.6-0.6-1.1-1.4
		c-0.9-1.4-2.5-4.1-3.8-3.4c-0.1,0-0.1,0.1-0.2,0.3c-0.3,1.5,2.4,6,5,9.6c0.4,0.5,0.8,1.1,1.2,1.6c0.2,0.3,0.5,0.6,0.7,0.9l0.1,0.2
		v8.8h8.3h1.2h0.7l0-8.6c0-0.1,0.5-2.3,1.2-3.6C45.3,67.2,45.9,64.7,46.1,63.8z"/>
	<path d="M78.6,38.4c-1-0.5-2.4,1.7-3,2.8c-0.6,1-0.8,1.4-1.4,1.2c-0.2-0.1-0.5-0.3-0.5-0.8l0-12.2c0-0.2-0.1-0.6-0.6-0.6
		c-0.3,0-0.4,0.1-0.4,0.1c-0.1,0.1-0.1,0.4-0.1,0.4c0,0,0,0,0,0l0,9.7h-2.2l0-12c0-0.2-0.1-0.6-0.6-0.6c-0.3,0-0.4,0.1-0.4,0.1
		c-0.1,0.1-0.1,0.4-0.1,0.5l0,10.7H67l0-9.6c0-0.2-0.1-0.6-0.6-0.6c-0.3,0-0.4,0.1-0.4,0.1c-0.1,0.1-0.1,0.4-0.1,0.5l0,10.5h-2.2
		l0-7.5c0-0.2-0.1-0.6-0.6-0.6c-0.3,0-0.4,0.1-0.4,0.1c-0.1,0.1-0.1,0.4-0.1,0.5l0,6.1l0,5.2c0.2,0.8,0.7,2.8,1.1,3.6
		c0.1,0.2,0.2,0.4,0.3,0.6c0.6,0.4,0.9,1.1,0.9,1.7l0,13.2c1.2-1.9,3-4.8,5.2-3.6c0.4,0.2,0.7,0.6,0.8,1.1c0.5,2.5-4,9-6.2,11.8v9.8
		h8.3V48.8l0.1-0.2c2.4-3,6.1-8.5,5.8-10.1C78.7,38.4,78.6,38.4,78.6,38.4z"/>
</g>
<g>
	<path d="M28.2,86.2c-1.2,0-2.2,1-2.2,2.2s1,2.2,2.2,2.2s2.2-1,2.2-2.2S29.5,86.2,28.2,86.2z"/>
	<path d="M8.5,27.8l-1,2l-2.2,0.3l1.6,1.6l-0.4,2.2l2-1l2,1l-0.4-2.2l1.6-1.6l-2.2-0.3L8.5,27.8z"/>
	<path d="M26.9,11l1.4-0.7l1.4,0.7l-0.3-1.5l1.1-1.1L29,8.2l-0.7-1.4l-0.7,1.4l-1.5,0.2l1.1,1.1L26.9,11z"/>
	<path d="M87.1,69.9l1.4,0.7l-0.3-1.5l1.1-1.1l-1.5-0.2l-0.7-1.4l-0.7,1.4l-1.5,0.2l1.1,1.1l-0.3,1.5L87.1,69.9z"/>
	<path d="M87.1,14.1l-0.9,2.8h-2.9l2.4,1.7l-0.9,2.8l2.4-1.7l2.4,1.7l-0.9-2.8l2.4-1.7H88L87.1,14.1z"/>
	<path d="M79.1,5.3c-1.2,0-2.2,1-2.2,2.2s1,2.2,2.2,2.2s2.2-1,2.2-2.2S80.4,5.3,79.1,5.3z"/>
	<path d="M88.6,47.2c-1,0-1.8,0.8-1.8,1.8s0.8,1.8,1.8,1.8s1.8-0.8,1.8-1.8S89.6,47.2,88.6,47.2z"/>
	<path d="M15,19.5c1.3,0,2.4-1.1,2.4-2.4s-1.1-2.4-2.4-2.4s-2.4,1.1-2.4,2.4S13.7,19.5,15,19.5z"/>
	<path d="M22,88.5c0.3,0.1,0.7,0.2,1,0.2l0.1-0.5c-0.3-0.1-0.6-0.1-1-0.2L22,88.5z"/>
	<path d="M6.9,71.8c0.1,0.7,0.2,1.3,0.4,1.9l0.5-0.1c-0.2-0.6-0.3-1.3-0.4-1.9L6.9,71.8z"/>
	<path d="M18.2,87.2c0.6,0.3,1.2,0.5,1.8,0.8l0.2-0.5c-0.6-0.2-1.2-0.5-1.8-0.7L18.2,87.2z"/>
	<path d="M7.1,68.9c0-0.3,0-0.7,0-1l-0.5,0c0,0.3,0,0.7,0,1c0,0.3,0,0.7,0,1l0.5,0C7.2,69.5,7.1,69.2,7.1,68.9z"/>
	<path d="M11.9,82.4c0.4,0.5,0.9,1,1.4,1.4l0.3-0.4c-0.5-0.4-0.9-0.9-1.4-1.4L11.9,82.4z"/>
	<path d="M7.8,75.7c0.2,0.6,0.5,1.2,0.8,1.8L9,77.3c-0.3-0.6-0.5-1.2-0.7-1.8L7.8,75.7z"/>
	<path d="M9.5,79.3c0.3,0.6,0.7,1.1,1.1,1.7l0.4-0.3c-0.4-0.5-0.7-1.1-1.1-1.6L9.5,79.3z"/>
	<path d="M14.8,85.1c0.5,0.4,1.1,0.8,1.7,1.1l0.3-0.4c-0.6-0.3-1.1-0.7-1.6-1.1L14.8,85.1z"/>
	<path d="M7.5,64.9L7,64.9c-0.1,0.3-0.1,0.7-0.2,1l0.5,0.1C7.4,65.6,7.5,65.3,7.5,64.9z"/>
	<path d="M89.2,77l0.5,0c0-0.3,0.1-0.7,0.1-1l-0.5,0C89.2,76.3,89.2,76.7,89.2,77z"/>
	<path d="M85.8,84.7l0.4,0.3c0.5-0.6,0.9-1.2,1.3-1.8L87.1,83C86.7,83.6,86.3,84.2,85.8,84.7z"/>
	<path d="M82.5,87.4l0.3,0.4c0.6-0.4,1.3-0.8,1.8-1.3l-0.3-0.4C83.7,86.7,83.1,87.1,82.5,87.4z"/>
	<path d="M88.1,81.1l0.5,0.2c0.3-0.7,0.5-1.4,0.7-2.1l-0.5-0.1C88.6,79.8,88.4,80.5,88.1,81.1z"/>
	<path d="M78.5,89l0.1,0.5c0.7-0.2,1.4-0.4,2.1-0.6l-0.2-0.5C79.9,88.6,79.2,88.8,78.5,89z"/>
	<path d="M75.4,89.3l0,0.5c0.1,0,0.2,0,0.3,0c0.2,0,0.5,0,0.7,0l0-0.5C76.1,89.3,75.7,89.3,75.4,89.3z"/>
	<rect x="88.4" y="36.4" width="0.5" height="2"/>
	<rect x="88.4" y="28.4" width="0.5" height="2"/>
	<rect x="88.4" y="40.4" width="0.5" height="2"/>
	<rect x="88.4" y="32.4" width="0.5" height="2"/>
</g>
</svg>
