<?xml version="1.0" encoding="utf-8"?>
<!-- Generator: Adobe Illustrator 22.1.0, SVG Export Plug-In . SVG Version: 6.00 Build 0)  -->
<svg version="1.1"
	 id="Layer_1" shape-rendering="geometricPrecision" image-rendering="optimizeQuality" text-rendering="geometricPrecision"
	 xmlns="http://www.w3.org/2000/svg" xmlns:xlink="http://www.w3.org/1999/xlink" x="0px" y="0px" viewBox="0 0 6553.6 5594.2"
	 style="enable-background:new 0 0 6553.6 5594.2;" xml:space="preserve">
<style type="text/css">
	.st0{enable-background:new    ;}
</style>
<g>
	<path d="M3767.7,5192.9c198-40.4,387.5-104.8,565.2-190l124.6-972.2c0,0-33.1-27.1-99.7-77.3c-66.6-50-123.2-162.9-135.6-199.9
		c-12.2-36.8-37.9-138.7-130.7-246.9c-92.9-108.2-112.6-70.6-130.8-128.2c-18.1-57.1,63.2-72.9,63.2-72.9s214.3,4.8,340.1,259.3
		c44.9-0.5,64.7-129.9,68.4-166c3.6-37.3-4.5-75.7-4.5-75.7l-84.8-453c0,0-18.3-76.9,51.1-96c69.7-19,91,44.7,91,44.7
		s104.7,412.9,115.5,463.8c10.8,50.3,52.2-2.8,52.2-2.8l42.6-511.8c0,0-1.9-85.6,89.6-84.7c91.5,1.2,70.4,132.1,70.4,132.1
		s-35.3,441.1-38.2,492.5c-3.4,51.1,34.7,9.1,34.7,9.1s156.5-397.3,172.3-439.5c16.4-42,40.6-87.5,104.5-70.9
		c63.8,16.3,24.6,153.4,24.6,153.4s-141.3,406.7-150.5,437.7c-8.8,30.7,13.5,26.9,13.5,26.9s227-287.6,244.8-307.5
		c17.8-20,53.9-64.1,111.8-24.6c57.9,39.2-35.9,165-35.9,165s-175.6,246.6-191.8,270.9c-16.6,24.2-16.1,40.1-16.1,40.1l-29.6,199.4
		c-66,267.5-203.3,329.4-203.3,329.4l-35.3,563.2c214.7-181.9,397.6-399.7,539.2-642.9h-316.4c30.2-42.4,60.5-96.9,85.9-166.1h318.9
		c144.6-298.9,230.4-631.3,242.1-981.8h-464.4c4-53.6-1.7-122.6-46.3-166.3h510.7c-10.4-306.8-77.4-599.8-191-868.4h-978.4
		c19.8-34.5,52.5-97.8,69.4-166.3H5462C5073.6,913.7,4319.5,405.6,3468.8,339.2c191.4,185.6,380.5,388.3,553,607
		c-63.6,0.5-111.9,24.8-149.9,61.9c-136.9-177-292-353-464.4-523.4v292.4c-193.5,36.1-215.7,224-214.7,253.4l-1.7,1.2v-553
		c-173.7,169.5-330.2,339.4-468.8,509.6c-58.5,32.5-86.7,79.9-99.2,126c-140.1,184.4-258.9,369.2-355.1,554.5h455.5l40.4,166.3
		h-576.2c-13,29.1-25.4,58.2-37.3,87.5c-67,28-186.9,101.2-129.1,252.7c8.5,22.3,16.7,39.6,25.2,53.7c-7.9,29.3-15.3,58.5-22,87.8
		c-47.5,9.6-80.8,35.1-105,69.2c-13.2,18.6-22,37.9-28.2,57.1c-5.4-29.1-16.9-71.1-40.3-107.4c34.5-167.7,86.9-334.4,156.5-500.5
		h-993.6c-113.6,268.8-180.7,561.5-191,868.4h363l70.6,166.3H822.8c11.8,350.5,97.5,682.9,242.1,981.8h409.3
		c27.6,15.3,59,28.3,87.6,41.6l11.1,124.5h-419.7c150.6,258.8,347.7,488.3,580.1,676.7l-74.3-829.7c0,0-40.3-20.1-120.3-57
		c-79.7-36.5-163.2-139.5-184.5-174.8c-20.9-35.3-70.3-133.9-190.4-224.3c-119.8-90.6-131.3-47.4-163-102.3
		c-31.7-54.8,47.8-89.3,47.8-89.3s221.7-43,409,190c46-11.9,37-148.8,32.4-186.2c-4.6-39.2-21.7-76.9-21.7-76.9l-189.8-446.5
		c0,0-36.2-75.2,31-110.5c67-35.1,103.6,25.5,103.6,25.5s201.1,401,223.9,450.7c22.8,49.5,52.9-14.6,52.9-14.6l-72.5-536
		c0,0-20.9-87.5,73.2-107.1c94.3-19.5,102.5,119.8,102.5,119.8s63.5,461.3,71.8,514.9c8.7,53.4,38.1,1.9,38.1,1.9
		s70.8-443.7,77.9-490.8c7.1-47.1,21.7-98.9,91.2-96.8c69.7,2.2,60.1,151.9,60.1,151.9s-53.3,450.4-55.6,484.1
		c-2.2,33.9,20.1,24.9,20.1,24.9s168.3-346.8,182.1-371.4c13.8-24.6,41-78.2,109.5-50.6c68.1,27.4,0.3,178,0.3,178
		S2264,3165,2252.7,3193.3c-11.3,28.5-7.3,44.7-7.3,44.7l14.7,211.9c-7.3,290-134.4,384.6-134.4,384.6l162.1,1199.3
		c187.3,83,386.9,143,595.1,176.8l144-1963.7c0,0-59.3-43.3-177.7-123.1c-118.7-79.6-225.7-267.1-250.2-329.3
		c-24.3-61.9-77.9-233.6-246.5-410.4c-168.7-176.5-198.8-110.2-235.3-206.7c-36.7-96.3,100.5-130.8,100.5-130.8
		s367.1-11,606.1,412.6c78.8-6.3,97.5-216.6,100.9-290.3c2.6-63.9-14.7-129.3-14.7-129.3l-186.9-766.6c0,0-38.4-130.2,78.8-169.2
		c117-38.9,159.8,68.1,159.8,68.1s216.9,696.7,240.4,782.4c23.2,85.6,88.7-9.6,88.7-9.6l25.1-879c0,0-10.4-146.1,146-152.8
		c156.4-6.7,132.7,219.2,132.7,219.2s-19.5,757.4-20.3,845.6c-0.5,87.9,60.4,12.7,60.4,12.7s230.8-694,254.4-767.4
		c23.7-73.5,61.2-153,172-131.4c111,22,56.5,259.9,56.5,259.9s-204.4,708.6-216.9,762.3c-12.5,53.6,25.1,45.2,25.1,45.2
		s362-512.1,390.8-548c28.8-36.1,86.5-114.7,189-52.8c102.2,62.1-46.8,285.8-46.8,285.8S4182,2282.2,4156.3,2325
		c-25.5,43-23.4,70.1-23.4,70.1l-32,344c-88.2,463.2-317.5,581.8-317.5,581.8L3767.7,5192.9z M3097.8,338.2
		C2241.7,400.5,1482.2,909.3,1091.6,1669h991.1C2328.7,1164.9,2696.6,726.2,3097.8,338.2z M2237.1,3851.7h639.4l-12.2,166.1h-560.1
		c130.4,231.1,299.3,464,508.9,698.7l-16.6,226.2c-194.3-205.1-358.9-409.5-494.8-613.1L2237.1,3851.7z M4231.1,1233.4
		c38.7,57.7,75.9,116.4,111.3,176c-47.2,24.6-80.5,66.4-103.7,95.4l-2.8,3.6l0.3,0.2c-2.8,3.4-7.9,10.2-14.9,20
		c-12.8-22.4-25.9-44.7-39.3-67.2l34.7-120.6l1.2-5.6C4217.9,1334.8,4228,1291.1,4231.1,1233.4z M4559.7,1837.9
		c97.5,234.1,161.3,469.4,189,706.3c-326.3,41.5,27.2,351.4-298.5-532.9C4486.5,1954,4526.2,1896.1,4559.7,1837.9z M4322.1,4240.5
		c-122.9,195.8-272.2,392.5-449,589.8l2-235.6c154.4-196.5,282.8-392.5,386.7-576.8H3880l1.4-166.1H4175
		c50.6,86.1,94.1,124.9,173.2,185.2L4322.1,4240.5z M3276.8,5408.7c-1443.2,0-2621.6-1178.3-2621.6-2621.6
		S1833.5,165.4,3276.8,165.4c1443.2,0,2621.6,1178.3,2621.6,2621.6C5898.4,4230.3,4720.1,5408.7,3276.8,5408.7z"/>
</g>
<text transform="matrix(1 0 0 1 0 6063.895)" style="font-family:'HelveticaNeue-Bold'; font-size:6.553600e-03px;">Created by abeldb</text>
<text transform="matrix(1 0 0 1 0 6063.9019)" style="font-family:'HelveticaNeue-Bold'; font-size:6.553600e-03px;">from the Noun Project</text>
</svg>
