<?xml version="1.0" encoding="utf-8"?>
<!-- Generator: Adobe Illustrator 22.1.0, SVG Export Plug-In . SVG Version: 6.00 Build 0)  -->
<svg version="1.1" id="Layer_1" xmlns="http://www.w3.org/2000/svg" xmlns:xlink="http://www.w3.org/1999/xlink" x="0px" y="0px"
	 viewBox="0 0 605.5 342.9" style="enable-background:new 0 0 605.5 342.9;" xml:space="preserve">
<g>
	<ellipse transform="matrix(0.2263 -0.974 0.974 0.2263 -72.7297 185.6662)" cx="80.5" cy="138.6" rx="22.5" ry="22.5"/>
	<path d="M69.4,270.8c0.7,0.8,1.4,1.5,2.1,2.4c11,12.8,23.2,31.2,29.1,54.7c1.4,5.7,6.5,9.4,12.1,9.4c1,0,2-0.1,3.1-0.4
		c6.7-1.7,10.8-8.5,9.1-15.2l0,0c-7.4-29.3-22.5-51.4-35.6-66.3c-6.3-7.2-12.2-12.7-16.7-16.5c-1.9-16.9,2.7-36.4,5.4-50.1
		c0-0.1,0.1-0.3,0.1-0.4c8.7,4.1,21,8.1,36.4,8.1c8.4,0,17.6-1.2,27.5-4.1c4.2-1.3,6.7-5.7,5.4-9.9c-1.2-4.2-5.7-6.7-9.9-5.4
		c-8.4,2.5-16.1,3.5-23,3.5c-13,0-23.2-3.5-30.2-6.9c-3.5-1.7-6.1-3.4-7.9-4.7c-0.9-0.6-1.5-1.1-1.9-1.4c-0.2-0.2-0.3-0.3-0.4-0.3
		c0,0-0.1,0-0.1-0.1c0,0,0,0,0,0c-1.3-1.1-2.8-1.8-4.4-2c-0.4-0.1-0.7-0.3-1.1-0.3c-7.3-1.8-17.4,1.3-23.3,11.4
		c6.7-3.2,12-4.6,13.8-5.1l0,0l0.1,0c0.8-0.2,1.6-0.3,2.3-0.3c4.6,0,8.6,3.2,9.7,7.7c1.3,5.4-2,10.8-7.4,12.1l-0.2,0.1
		c-0.2,0.1-0.5,0.1-1,0.3c-0.8,0.3-2.2,0.7-4,1.4c-3.1,1.2-7.9,3.3-13.1,6.5c-3.2,2-6.2,4.3-8.9,6.7c-1.4,9.7-1.2,19.4,0.2,32.1
		c1.5,7.8,4.9,12.2,9,14.6c0.1,1,0.1,2.1,0.1,3.3c0,6.8-1.3,16.4-6.7,26.7c-5.4,10.2-14.9,21.5-32.9,31.7c-6,3.4-8.1,11-4.7,17
		c3.4,6,11,8.1,17,4.7c21.6-12.3,35-27.3,42.7-41.8C65.6,285.7,68,277.9,69.4,270.8z"/>
	<path d="M62,189c0.5-0.1,0.8-0.2,1-0.3c0.1,0,0.2-0.1,0.2-0.1l0,0c4.3-1,6.9-5.3,5.9-9.6c-1-4.3-5.3-6.9-9.6-5.9
		c-0.5,0.1-11.2,2.7-23.6,10.5c-12.4,7.8-26.8,21.1-33.2,42.5c-1.3,4.2,1.1,8.7,5.4,10c0.8,0.2,1.5,0.3,2.3,0.3
		c3.4,0,6.6-2.2,7.7-5.7c5-16.6,16.1-27,26.3-33.5c5.1-3.2,10-5.4,13.5-6.7C59.6,189.7,61,189.3,62,189z"/>
	<rect x="431.6" y="192.1" width="173.9" height="144"/>
	<path d="M401,24.2c5.6-4,10.6-7.9,14.4-11.2c-3.5,4.1-8.9,9.5-15.3,15c-2.5,2.2-4.9,4.4-7.1,6.6c2.7,4.4,7,7.8,12.3,9.5
		c11.9,3.7,24.5-2.9,28.2-14.7c3.7-11.9-2.9-24.5-14.7-28.2c-11.9-3.7-24.5,2.9-28.2,14.8c-0.7,2.1-1,4.2-1,6.3
		c-0.7,0.5-1.3,1-2,1.5c-8.7,6.9-14.2,12.7-13.2,14.1c0.6,0.9,3.7,0,8.1-2.2C387.3,33.2,393.9,29.1,401,24.2z"/>
	<rect x="519" y="117.4" width="64.5" height="64.5"/>
	<path d="M390.9,119.9c2.5,0,4.8,0.9,6.7,2.5c2,1.8,3.2,4.2,3.3,6.9c0.1,1.2-0.1,2.4-0.4,3.5l8.6,3.4l5.4-13.7
		c-0.8-0.6-1.4-1.3-2-2.1c-1.5-2.2-2.1-4.8-1.6-7.5c0.5-2.6,1.9-4.9,4.1-6.4c2.9-2.1,5.6-4.3,7.9-6.8l-2.8-1.1
		c4.4-3.5,8.1-7.2,11.2-10.9c0.8-1.6,1.5-3.2,2.2-4.9c3.3-8.7,3.8-16.9,3.8-21c0-3-0.2-4.8-0.2-4.8c-0.8-5.5,3-10.5,8.5-11.3
		c0.5-0.1,1-0.1,1.4-0.1c4.9,0,9.2,3.7,9.9,8.6c0,0.1,0.4,3,0.4,7.6c0,5.5-0.6,13.6-3.2,22.4c4.7,4.5,9.3,9.5,13.3,14.7L441,119.3
		c-2.7,2.1-4.5,5.3-4.8,8.7c-0.3,3.5,0.8,6.8,3.1,9.5l39,44c2.5,2.8,5.9,4.2,9.4,4.2c2.9,0,5.9-1,8.3-3.1c5.2-4.6,5.6-12.5,1.1-17.6
		l-30.1-34l20.6-16c1.3-0.7,2.8-1.7,4.4-2.9c7.4-5.4,15.3-13.3,8.1-28.1c-11.2-19.3-20.3-29-37.8-41.1c-12.1-8.2-24-5.4-30,0.7
		c-1.7,1.3-2.9,3.3-3.2,5.5c-0.4,1.7-0.5,3.5-0.2,5.4c-0.4,3.7-1.6,9.5-5,15.9c-3.8,7-10.1,14.7-21.7,21.2l-14.9-5.9l-14.3,36.3
		l8.7,3.4c0.7-0.7,1.3-1.4,2-2.1C385.3,121.1,388,119.9,390.9,119.9z"/>
	<path d="M445.7,47.6c-4.4,0.6-7.4,4.7-6.8,9h0v0h0h0l0,0h0c0,0.3,0.3,2.1,0.3,5.1c0,5.1-0.7,13.3-3.9,21.8
		c-3.3,8.5-8.9,17.3-19.2,24.6c-3.6,2.5-4.5,7.5-2,11.1c1.6,2.2,4,3.4,6.6,3.4c1.6,0,3.2-0.5,4.6-1.4c13.2-9.2,20.9-21.1,25-32
		c4.1-10.9,4.9-21,4.9-27.4c0-4.3-0.4-7.1-0.4-7.4C454.1,50.1,450.1,47,445.7,47.6z"/>
	<path d="M318.2,105.2l-14.3,19.1c1.5,8.6,8,15.8,17,17.9c12.1,2.8,24.2-4.7,27-16.8c2.8-12.1-4.7-24.2-16.8-27
		c-3.7-0.9-7.5-0.8-11,0.2C320.3,101,319.6,103.3,318.2,105.2z"/>
	<path d="M334.9,175.3c-5.8,1.1-10,1.3-11.6,1.3c-0.4,0-0.7,0-0.8,0c-5.5-0.2-9.8-4.8-9.6-10.3c0.2-5.4,4.6-9.7,10-9.7l0.3,0l0.1,0
		c0.6,0,4.5-0.1,10.6-1.5c-1.8-3.2-4.4-5.7-7.8-6.5c-8.5-2.1-20.9,2.5-25.9,17.1c-6.8,20.2-8.3,33.3-5.7,55.5
		c2.1,10.9,7.8,15.2,14.1,16.8c2.5,8.4,5.7,22.2,5.7,38.8c0,13.2-2,28.2-7.8,43.8c-2.4,6.5,0.9,13.7,7.4,16.1
		c1.4,0.5,2.9,0.8,4.3,0.8c5.1,0,9.9-3.1,11.7-8.2c7-18.8,9.3-36.8,9.3-52.5c0-25.1-5.9-44.3-9.1-52.9
		C328,207.7,332.1,189.1,334.9,175.3z"/>
	<path d="M323.1,158.5c-4.4-0.1-8.1,3.3-8.2,7.7c-0.1,4.4,3.3,8.1,7.7,8.3v0c0.1,0,0.3,0,0.7,0c2.8,0,12.7-0.4,26.2-5.5
		c13.5-5.1,30.6-15.1,47.3-33.8c2.9-3.3,2.7-8.3-0.6-11.3c-3.3-2.9-8.4-2.7-11.3,0.6c-15,16.8-29.8,25.2-41.1,29.5
		c-11.3,4.3-19.3,4.5-20.5,4.5C323.2,158.5,323.1,158.5,323.1,158.5L323.1,158.5L323.1,158.5z"/>
	<path d="M240.6,120.8c0.2,10.1,7.2,19.1,17.4,21.5c2.4,0.6,4.9,0.7,7.2,0.5l19.9-26.7c-1.6-8.4-8.1-15.5-17-17.6
		c-4.9-1.1-9.7-0.6-14,1.2c-0.1,2-0.8,3.9-2,5.5L240.6,120.8z"/>
	<path d="M259.9,176.5c-2.2,0-4.2-0.7-6-2c-2.1-1.6-3.5-3.9-3.9-6.6c-0.4-2.6,0.3-5.3,1.9-7.4l9.2-12.4c-8.4-1.1-19.4,3.9-24,17.5
		c-6.8,20.2-8.3,33.3-5.7,55.5c2.1,10.9,7.8,15.2,14.1,16.8c2.5,8.4,5.7,22.2,5.7,38.8c0,13.2-2,28.2-7.8,43.8
		c-2.4,6.5,0.9,13.7,7.4,16.1c1.4,0.5,2.9,0.8,4.3,0.8c5.1,0,9.9-3.1,11.7-8.2c7-18.8,9.3-36.8,9.3-52.5c0-25.1-5.9-44.3-9.1-52.9
		c-2.3-17.2,2.6-37.3,5.3-51.2c0.7-2.4,1-4.9,0.9-7.3l-5.5,7.3C266,175,263,176.5,259.9,176.5z"/>
	<path d="M253.5,161.7c-2.6,3.5-1.9,8.6,1.6,11.2c1.4,1.1,3.1,1.6,4.8,1.6c2.4,0,4.8-1.1,6.4-3.2l50.3-67.3
		c2.6-3.5,1.9-8.6-1.6-11.2c-3.5-2.6-8.6-1.9-11.2,1.6L253.5,161.7z"/>
	<path d="M202.2,98.4c-12.1-2.8-24.2,4.7-27,16.8c-2.8,12.1,4.7,24.2,16.8,27c2.4,0.6,4.9,0.7,7.2,0.5l19.9-26.7
		C217.5,107.6,211.1,100.5,202.2,98.4z"/>
	<path d="M206.4,172.5c0.7-2.4,1-4.9,0.9-7.3l-5.5,7.4c-1.9,2.5-4.9,4-8,4c-2.2,0-4.2-0.7-6-2c-4.4-3.3-5.3-9.6-2-14l9.2-12.4
		c-8.4-1.1-19.4,3.9-24,17.5c-6.8,20.2-8.3,33.3-5.7,55.5c2.1,10.9,7.8,15.2,14.1,16.8c2.5,8.4,5.7,22.2,5.7,38.8
		c0,13.2-2,28.2-7.8,43.8c-2.4,6.5,0.9,13.7,7.4,16.1c1.4,0.5,2.9,0.8,4.3,0.8c5.1,0,9.9-3.1,11.7-8.2c7-18.8,9.3-36.8,9.3-52.5
		c0-25.1-5.9-44.3-9.1-52.9C198.8,206.6,203.7,186.5,206.4,172.5z"/>
	<path d="M189.1,172.9c1.4,1.1,3.1,1.6,4.8,1.6c2.4,0,4.8-1.1,6.4-3.2l50.3-67.3c2.6-3.5,1.9-8.6-1.6-11.2
		c-3.5-2.6-8.6-1.9-11.2,1.6l-50.3,67.3C184.8,165.3,185.5,170.3,189.1,172.9z"/>
</g>
</svg>
