<?xml version="1.0" encoding="UTF-8"?>
<svg width="101px" height="82px" viewBox="0 0 101 82" version="1.1" xmlns="http://www.w3.org/2000/svg" xmlns:xlink="http://www.w3.org/1999/xlink">
    <!-- Generator: Sketch 50 (54983) - http://www.bohemiancoding.com/sketch -->
    <title>Health Icon</title>
    <desc>Created with Sketch.</desc>
    <defs></defs>
    <g id="Page-1" stroke="none" stroke-width="1" fill="none" fill-rule="evenodd">
        <g id="Programmes" transform="translate(-270.000000, -478.000000)" fill="#FFFFFF" fill-rule="nonzero">
            <g id="Group" transform="translate(270.000000, 478.000000)">
                <path d="M92.9249588,8.01523056 C83.2306893,-1.60284237 66.7073455,-1.21811946 55.2896504,8.65643543 C48.826804,2.91765191 42.7732713,0.000169783654 37.2367663,0.000169783654 C29.8917323,-0.0254855213 22.839915,2.85729959 17.6451486,8.00922917 C12.4503821,13.1611588 9.54201368,20.1564262 9.56501257,27.4437379 C9.56173767,30.0317268 9.92431602,32.6073828 10.6421536,35.0954493 L0,35.0954493 L0,39.3701483 L12.3009509,39.3701483 C13.6603477,42.1459066 15.4810228,44.6748171 17.6866561,46.8508717 L55.2681075,82.0102717 L92.9249588,46.8615585 C103.69168,36.1158318 103.69168,18.7609573 92.9249588,8.01523056 Z M13.8735768,27.4437379 C13.853446,21.2938512 16.307664,15.3902423 20.6917755,11.042596 C25.075887,6.69494977 31.0273973,4.2627457 37.2259949,4.28555561 C41.9761869,4.28555561 47.7065773,7.34196546 53.7924243,13.123496 L55.3111932,14.5662069 L56.7976478,13.1021225 C65.2962908,4.76645926 80.3547227,1.60318194 89.8658782,11.0502669 C94.2502654,15.3937449 96.7014916,21.2966344 96.6734097,27.4437379 C96.6679017,30.0491156 96.2237518,32.6352779 95.3592976,35.0954493 L80.7424935,35.0954493 L71.3821377,19.6637856 L62.5064954,45.9959319 L57.0561617,33.3321359 L47.3618922,33.3321359 L43.053328,39.7441845 L36.2673393,19.7492795 L28.3826668,35.0954493 L15.1984603,35.0954493 C14.3289636,32.6362529 13.88113,30.0498417 13.8735768,27.4437379 Z M89.9197353,43.7944619 L55.278879,76.1859942 L20.7026511,43.8372089 C19.3591386,42.495783 18.1870264,40.9954992 17.2127141,39.3701483 L31.0216624,39.3701483 L35.4163979,30.7566297 L41.7392159,49.4584382 L49.6346598,37.606835 L54.1694237,37.606835 L62.9588947,58.0185231 L72.4700502,29.8055091 L78.2758405,39.3701483 L93.3558153,39.3701483 C92.3974952,40.9790289 91.2434825,42.4649413 89.9197353,43.7944619 Z" id="Health-Icon"></path>
            </g>
        </g>
    </g>
</svg>