<?xml version="1.0" encoding="UTF-8"?>
<svg width="78px" height="79px" viewBox="0 0 78 79" version="1.1" xmlns="http://www.w3.org/2000/svg" xmlns:xlink="http://www.w3.org/1999/xlink">
    <!-- Generator: Sketch 50 (54983) - http://www.bohemiancoding.com/sketch -->
    <title>volunteers-icon</title>
    <desc>Created with Sketch.</desc>
    <defs></defs>
    <g id="Page-1" stroke="none" stroke-width="1" fill="none" fill-rule="evenodd">
        <g id="Media-Single" transform="translate(-528.000000, -935.000000)" fill="#50E3C2" fill-rule="nonzero">
            <g id="Group-4" transform="translate(450.000000, 935.000000)">
                <path d="M100.530283,43.3508817 C100.329568,43.8627826 100.401141,44.1552974 100.401141,44.1552974 L100.664093,47.9533222 C100.533395,53.150128 98.2586251,54.8492034 98.2586251,54.8492034 L101.476288,75.5508503 C97.816741,74.2329777 94.3859156,72.4669973 91.2476051,70.3291497 L89.9095054,55.3922229 C89.9095054,55.3922229 89.1906658,55.0296913 87.7607663,54.3715329 C86.3339786,53.7149305 84.83873,51.8695977 84.4575271,51.2378902 C84.084104,50.6046267 83.2003358,48.8339785 81.0515967,47.2126996 C78.9075253,45.5898647 78.7005866,46.3647178 78.1342282,45.3798142 C77.5647578,44.3980225 78.9915455,43.7787624 78.9915455,43.7787624 C78.9915455,43.7787624 82.9560548,43.0054652 86.3059718,47.1846929 C86.3059718,47.1846929 86.4071073,47.1582421 86.5875951,47.1333472 L86.634273,46.9746423 C86.5938189,46.9793101 86.5704799,46.9793101 86.5704799,46.9793101 C86.5922629,46.9761983 86.61249,46.9746423 86.635829,46.9730864 L86.8365439,46.2962569 C86.8365439,46.2962569 86.8443236,46.1904537 86.8552151,46.0224133 C87.9256948,46.0006302 91.8092958,46.1717825 93.4476899,49.6461739 C93.5503813,49.8111025 93.6546286,49.9791429 93.755764,50.1580748 C93.755764,50.1580748 93.4476899,45.2895703 86.856771,46.0099658 C86.8894455,45.4856174 86.9485709,44.3746835 86.8863337,43.8456674 C86.8023135,43.1423871 86.4973512,42.4655576 86.4973512,42.4655576 L83.1023122,34.4602984 C83.1023122,34.4602984 82.4550454,33.1113072 83.6562233,32.4795997 C84.8558452,31.8478921 85.5108917,32.9354871 85.5108917,32.9354871 C85.5108917,32.9354871 89.1082015,40.125439 89.5142992,41.0154309 C89.9203969,41.9038669 90.4618605,40.7555906 90.4618605,40.7555906 L89.1657709,31.1477237 C89.1657709,31.1477237 88.7923478,29.5777905 90.4774198,29.2261503 C92.1624919,28.877622 92.3103052,31.3748895 92.3103052,31.3748895 C92.3103052,31.3748895 93.4445781,39.6462126 93.5970592,40.6062214 C93.7510963,41.5646742 94.2770006,40.6388959 94.2770006,40.6388959 C94.2770006,40.6388959 95.5450834,32.6834265 95.6680019,31.8416684 C95.7955881,30.9983544 96.0569843,30.0663524 97.3017282,30.1068066 C98.5464721,30.1457049 98.3753198,32.8296839 98.3753198,32.8296839 C98.3753198,32.8296839 97.4246467,40.903404 97.3826366,41.5086607 C97.3421824,42.1154733 97.7389445,41.9552126 97.7389445,41.9552126 C97.7389445,41.9552126 100.752781,35.7408287 100.998618,35.2989446 C101.247566,34.8539486 101.731461,33.8939399 102.954421,34.3887256 C104.175826,34.8803995 102.962201,37.5799378 102.962201,37.5799378 C102.962201,37.5799378 100.73411,42.8420926 100.530283,43.3508817 Z M155.663102,39.1343117 C154.629964,38.4263636 153.982697,39.2198879 153.663732,39.5761958 C153.344766,39.9356156 149.283789,45.0904113 149.283789,45.0904113 C149.283789,45.0904113 148.883915,45.1557603 149.045732,44.6049611 C149.207549,44.0510501 151.735935,36.7584068 151.735935,36.7584068 C151.735935,36.7584068 152.439215,34.3000376 151.295607,34.0075228 C150.151998,33.715008 149.717894,34.5287593 149.425379,35.2833853 C149.143756,36.0364553 146.344638,43.1595023 146.344638,43.1595023 C146.344638,43.1595023 145.66314,43.9125723 145.722266,42.9961297 C145.775167,42.0750192 146.408431,34.1677836 146.408431,34.1677836 C146.408431,34.1677836 146.781854,31.8214413 145.146572,31.8012142 C143.508178,31.784099 143.542408,33.3166899 143.542408,33.3166899 L142.781558,42.4920084 C142.781558,42.4920084 142.042492,43.4489052 141.848,42.5417981 C141.653509,41.6315792 139.781726,34.2284648 139.781726,34.2284648 C139.781726,34.2284648 139.398967,33.0833005 138.155779,33.425605 C136.912591,33.7663537 137.23778,35.1495753 137.23778,35.1495753 L138.754812,43.2668615 C138.754812,43.2668615 138.901069,43.9545825 138.83572,44.6251882 C138.787486,45.1168621 138.51831,46.095542 138.376721,46.5887717 C144.412173,47.3433977 143.726008,51.8135842 143.726008,51.8135842 C143.668438,51.6253167 143.604645,51.4463848 143.540852,51.2705647 C142.778446,47.9299833 139.576343,46.8906221 138.368941,46.6136666 C138.322263,46.7785952 138.289589,46.8859543 138.289589,46.8859543 L137.964399,47.4725399 C137.94106,47.469428 137.923945,47.4678721 137.897494,47.4647602 C137.897494,47.4647602 137.923945,47.4678721 137.964399,47.4740958 L137.888159,47.6125736 C137.715451,47.6001261 137.614315,47.6016821 137.614315,47.6016821 C135.359773,43.0396957 131.525962,42.9494518 131.525962,42.9494518 C131.525962,42.9494518 130.072723,43.2357429 130.399468,44.2611006 C130.724658,45.2926821 131.077854,44.6174086 132.736475,46.5576531 C134.398208,48.4994536 134.857207,50.3230034 135.076594,50.9858295 C135.299092,51.6486557 136.30889,53.6698086 137.502288,54.5660242 C138.692575,55.4669076 139.285384,55.9523577 139.285384,55.9523577 L136.990387,73.9077884 C140.413433,72.2989569 143.589086,70.2809158 146.459777,67.925238 L147.133494,57.1504237 C147.133494,57.1504237 149.590307,56.0410457 150.771258,51.2456698 L151.300274,47.670143 C151.300274,47.670143 151.294051,47.3838519 151.588121,46.9513034 C151.87908,46.517199 155.018947,42.0936903 155.018947,42.0936903 C155.018947,42.0936903 156.697795,39.8391479 155.663102,39.1343117 Z M138.824829,10.7448153 C136.945265,9.71478974 135.974365,11.1695842 135.487359,11.8370781 C135.001909,12.5030161 128.93845,21.9630697 128.93845,21.9630697 C128.93845,21.9630697 128.2694,22.1451135 128.453,21.1757692 C128.633488,20.203313 131.726677,7.34822041 131.726677,7.34822041 C131.726677,7.34822041 132.513977,3.04451839 130.514607,2.73955614 C128.515237,2.43770574 127.906869,3.89250017 127.544337,5.227488 C127.18025,6.5609199 123.603167,19.1732874 123.603167,19.1732874 C123.603167,19.1732874 122.571585,20.5689565 122.51246,18.9912436 C122.453335,17.4135307 122.21061,3.83181891 122.21061,3.83181891 C122.21061,3.83181891 122.453335,-0.232269913 119.661996,0.0104551469 C116.872214,0.253180207 117.17562,2.8624746 117.17562,2.8624746 L117.41679,18.627156 C117.41679,18.627156 116.324527,20.3838009 115.839077,18.8698811 C115.355182,17.3528495 110.928562,5.04388828 110.928562,5.04388828 C110.928562,5.04388828 110.079024,3.16276906 108.017417,3.95162551 C105.95581,4.74048195 106.743111,7.04481409 106.743111,7.04481409 L110.685837,20.6280818 C110.685837,20.6280818 111.048369,21.7810259 111.048369,22.9308581 C111.048369,24.0838021 110.502237,26.8735843 110.502237,26.8735843 L110.44778,26.9996147 C121.194587,27.125645 120.751147,35.0251009 120.751147,35.0251009 C120.623561,34.7216946 120.494419,34.4385154 120.359053,34.1553361 C118.403249,28.2552501 112.22154,27.2034415 110.438444,27.0213977 L110.047906,27.9269489 C110.010563,27.9269489 109.976333,27.9253929 109.938991,27.9253929 C109.938991,27.9253929 109.976333,27.9269489 110.04635,27.9316167 L109.938991,28.1790095 C109.643364,28.1883451 109.473768,28.2101281 109.473768,28.2101281 C104.868215,20.8101256 98.3177504,21.2955758 98.3177504,21.2955758 C98.3177504,21.2955758 95.8920558,22.0237509 96.6248987,23.7212704 C97.3530739,25.4187899 97.8369681,24.2082765 100.990838,27.2376719 C104.143152,30.2701793 105.235415,33.3026866 105.720865,34.3933934 C106.206315,35.4872121 108.267922,38.7608885 110.450892,40.0927645 C112.630749,41.4277523 113.724568,42.1559275 113.724568,42.1559275 L112.678983,78.065233 C114.182011,78.2114904 115.706823,78.287731 117.250305,78.287731 C121.14013,78.287731 124.916372,77.8116164 128.516793,76.9200686 L127.30628,42.8841027 C127.30628,42.8841027 131.309687,40.5813265 132.521757,32.2119797 L132.823607,26.0256026 C132.823607,26.0256026 132.764482,25.5401524 133.184583,24.751296 C133.610908,23.9655514 138.218016,15.899611 138.218016,15.899611 C138.218016,15.899611 140.702836,11.7763968 138.824829,10.7448153 Z" id="volunteers-icon"></path>
            </g>
        </g>
    </g>
</svg>