<svg width="97" height="63" xmlns="http://www.w3.org/2000/svg"><g fill="#BD10E0"><path d="M21.488 15c1.305 0 2.513 1.189 2.512 2.5 0 1.31-1.208 2.5-2.512 2.5S19.001 18.81 19 17.5c0-1.311 1.183-2.5 2.488-2.5z"/><path d="M19.0896528 20L24.9103472 20 29 28.2760784 26.987647 29.3161183 24.9103472 25.0674329 24.9103472 41 22.2488588 41 22.2488588 31.0200227 21.751155 31.0200227 21.751155 41 19.0896528 41 19.0896528 25.0674329 16.9907278 29.3161183 15 28.2760784z"/><path d="M34.488 32c1.305 0 2.513 1.189 2.512 2.5 0 1.31-1.208 2.5-2.512 2.5S32.001 35.81 32 34.5c0-1.311 1.183-2.5 2.488-2.5z"/><path d="M31.9660001 38L39.0340009 38 44 47.8524724 41.556428 49.0906159 39.0340009 44.0326586 39.0340009 63 35.8021799 63 35.8021799 51.1190756 35.1978352 51.1190756 35.1978352 63 31.9660001 63 31.9660001 44.0326586 29.4173067 49.0906159 27 47.8524724z"/><path d="M7.488 32c1.305 0 2.513 1.189 2.512 2.5 0 1.31-1.208 2.5-2.512 2.5S5.001 35.81 5 34.5C5 33.189 6.183 32 7.488 32z"/><path d="M4.96599907 38L12.0339999 38 17 47.8524724 14.556428 49.0906159 12.0339999 44.0326586 12.0339999 63 8.80217993 63 8.80217993 51.1190756 8.19783518 51.1190756 8.19783518 63 4.96599907 63 4.96599907 44.0326586 2.41730672 49.0906159 0 47.8524724z"/><path d="M48.488 15c1.305 0 2.513 1.189 2.512 2.5 0 1.31-1.208 2.5-2.512 2.5S46.001 18.81 46 17.5c0-1.311 1.183-2.5 2.488-2.5z"/><path d="M46.0896528 20L51.9103472 20 56 28.2760784 53.9876481 29.3161183 51.9103472 25.0674329 51.9103472 41 49.2488599 41 49.2488599 31.0200227 48.751155 31.0200227 48.751155 41 46.0896528 41 46.0896528 25.0674329 43.9907278 29.3161183 42 28.2760784z"/><path d="M61.488 32c1.305 0 2.513 1.189 2.512 2.5 0 1.31-1.208 2.5-2.512 2.5S59.001 35.81 59 34.5c0-1.311 1.183-2.5 2.488-2.5z"/><path d="M57.9659991 38L65.0339999 38 70 47.8524724 67.556428 49.0906159 65.0339999 44.0326586 65.0339999 63 61.8021799 63 61.8021799 51.1190756 61.1978341 51.1190756 61.1978341 63 57.9659991 63 57.9659991 44.0326586 55.4173056 49.0906159 53 47.8524724z"/><path d="M75.488 15c1.305 0 2.513 1.189 2.512 2.5 0 1.31-1.208 2.5-2.512 2.5S73.001 18.81 73 17.5c0-1.311 1.183-2.5 2.488-2.5z"/><path d="M72.0896525 20L77.9103475 20 82 28.2760784 79.9876472 29.3161183 77.9103475 25.0674329 77.9103475 41 75.2488593 41 75.2488593 31.0200227 74.7511556 31.0200227 74.7511556 41 72.0896525 41 72.0896525 25.0674329 69.9907287 29.3161183 68 28.2760784z"/><path d="M87.488 32c1.305 0 2.513 1.189 2.512 2.5 0 1.31-1.208 2.5-2.512 2.5S85.001 35.81 85 34.5c0-1.311 1.183-2.5 2.488-2.5z"/><path d="M84.9660005 38L92.0340017 38 97 47.8524724 94.5564289 49.0906159 92.0340017 44.0326586 92.0340017 63 88.8021805 63 88.8021805 51.1190756 88.1978357 51.1190756 88.1978357 63 84.9660005 63 84.9660005 44.0326586 82.4173069 49.0906159 80 47.8524724z"/><path d="M35.99 0C37.035 0 38 .95 38 2c0 1.048-.966 2-2.01 2C34.947 4 34 3.048 34 2c0-1.05.946-2 1.99-2z"/><path d="M33.5054158 4L38.4945776 4 42 10.6996813 40.2751248 11.5416191 38.4945776 8.10220837 38.4945776 21 36.2132992 21 36.2132992 12.9209721 35.7867084 12.9209721 35.7867084 21 33.5054158 21 33.5054158 8.10220837 31.7063401 11.5416191 30 10.6996813z"/><path d="M60.99 0C62.035 0 63 .95 63 2c0 1.048-.966 2-2.01 2C59.947 4 59 3.048 59 2c0-1.05.946-2 1.99-2z"/><path d="M58.5054206 4L63.4945706 4 67 10.6996813 65.2751306 11.5416191 63.4945706 8.10220837 63.4945706 21 61.2132919 21 61.2132919 12.9209721 60.7866993 12.9209721 60.7866993 21 58.5054206 21 58.5054206 8.10220837 56.7063299 11.5416191 55 10.6996813z"/></g></svg>