<?xml version="1.0" encoding="UTF-8"?>
<svg width="48px" height="55px" viewBox="0 0 48 55" version="1.1" xmlns="http://www.w3.org/2000/svg" xmlns:xlink="http://www.w3.org/1999/xlink">
    <!-- Generator: Sketch 50 (54983) - http://www.bohemiancoding.com/sketch -->
    <title>Shape</title>
    <desc>Created with Sketch.</desc>
    <defs></defs>
    <g id="Page-1" stroke="none" stroke-width="1" fill="none" fill-rule="evenodd">
        <g id="Homepage" transform="translate(-880.000000, -1699.000000)" fill="#FFFFFF" fill-rule="nonzero">
            <g id="Group-5" transform="translate(194.000000, 1232.000000)">
                <path d="M732.964388,476.579256 C732.53386,475.287671 731.672803,474.426614 731.027011,473.996086 L731.457539,472.919765 L728.874369,471.735812 L726.075934,478.086106 L728.659104,479.270059 L729.843058,476.686888 C730.058322,476.902153 730.165954,477.117417 730.273586,477.440313 C730.48885,478.193738 730.381218,479.162427 729.735425,480.238748 C727.367519,484.651663 722.416443,494.553816 721.985915,495.307241 C721.77065,495.630137 720.156169,497.998043 716.389046,497.136986 C714.451668,496.706458 712.944819,496.921722 711.653234,497.567515 C711.222705,496.383562 710.469281,495.307241 709.39296,494.338552 C709.070063,494.123288 706.379261,491.64775 707.563214,488.741683 C707.993742,487.880626 713.052451,478.086106 715.097461,473.565558 C715.635621,472.381605 716.281414,471.735812 717.034838,471.412916 C717.14247,471.412916 717.357735,471.412916 717.465367,471.305284 L716.60431,473.242661 L719.18748,474.426614 L721.985915,468.076321 L719.510376,467 L718.756952,468.614481 C718.003527,468.506849 717.14247,468.506849 716.281414,468.722114 C714.666932,469.260274 713.482979,470.444227 712.621922,472.381605 C710.469281,477.009785 705.087676,487.450098 705.087676,487.55773 L705.087676,487.665362 C704.334251,489.387476 703.903723,493.477495 707.670846,496.598826 C708.639535,497.459883 709.177695,498.320939 709.285328,499.181996 C709.285328,499.504892 709.285328,499.720157 709.177695,500.043053 C708.747167,500.688845 708.424271,501.44227 708.209007,501.980431 L703.25793,510.268102 L703.150298,510.483366 C702.935034,510.913894 701.751081,513.927593 702.181609,516.833659 C698.952647,518.771037 695.616052,519.309198 692.171825,516.510763 C689.481022,514.358121 688.404701,511.236791 688.942862,507.254403 C689.158126,505.424658 689.696286,503.810176 690.126815,502.733855 C690.557343,502.841487 690.88024,502.841487 691.310768,502.841487 C694.216834,502.841487 696.477108,500.473581 696.477108,497.567515 C696.477108,494.661448 694.109202,492.293542 691.310768,492.293542 C688.404701,492.293542 686.144427,494.661448 686.144427,497.567515 C686.144427,498.966732 686.682588,500.258317 687.651277,501.227006 C685.713899,505.747554 684.314682,513.712329 690.449711,518.663405 C695.077891,522.430528 699.490807,521.46184 703.25793,519.41683 C703.25793,519.524462 703.365562,519.524462 703.365562,519.632094 C704.549515,521.246575 706.486893,522 709.070063,522 C709.715856,522 710.469281,521.892368 711.330337,521.784736 C714.666932,521.354207 718.111159,518.555773 717.680631,514.465753 C717.357735,511.452055 715.097461,509.514677 711.97613,509.729941 C710.576913,509.837573 709.177695,511.021526 707.240318,512.74364 C706.486893,513.389432 705.733468,514.035225 704.980044,514.681018 C705.087676,513.389432 705.518204,512.205479 705.733468,511.452055 L710.576913,503.272016 C710.792177,502.949119 711.330337,502.195695 711.760866,501.119374 C711.760866,501.011742 711.868498,501.011742 711.868498,500.90411 C712.837187,499.827789 714.128772,499.39726 715.743253,499.827789 C720.479065,501.011742 723.492764,498.320939 724.461453,496.706458 L724.461453,496.598826 C724.569085,496.491194 729.735425,486.050881 732.210964,481.530333 C733.287285,479.915851 733.502549,478.086106 732.964388,476.579256 Z M691.203136,495.307241 C692.494721,495.307241 693.571042,496.383562 693.571042,497.675147 C693.571042,498.966732 692.494721,500.043053 691.203136,500.043053 C689.911551,500.043053 688.83523,498.966732 688.83523,497.675147 C688.83523,496.383562 689.911551,495.307241 691.203136,495.307241 Z M709.070063,515.111546 C710.146384,514.142857 711.653234,512.851272 712.083762,512.74364 C714.344036,512.636008 714.774564,514.358121 714.774564,514.896282 C714.989829,516.618395 713.698243,518.663405 710.899809,519.093933 C709.070063,519.309198 706.594525,519.41683 705.518204,518.017613 C705.518204,518.017613 705.518204,518.017613 705.518204,518.017613 C706.809789,517.048924 707.993742,515.972603 709.070063,515.111546 Z" id="Shape"></path>
            </g>
        </g>
    </g>
</svg>