<?xml version="1.0" encoding="UTF-8"?>
<svg width="95px" height="37px" viewBox="0 0 95 37" version="1.1" xmlns="http://www.w3.org/2000/svg" xmlns:xlink="http://www.w3.org/1999/xlink">
    <!-- Generator: Sketch 50 (54983) - http://www.bohemiancoding.com/sketch -->
    <title>glasses-icon</title>
    <desc>Created with Sketch.</desc>
    <defs></defs>
    <g id="Page-1" stroke="none" stroke-width="1" fill="none" fill-rule="evenodd">
        <g id="Media-Single" transform="translate(-1117.000000, -990.000000)" fill="#EC2A81" fill-rule="nonzero">
            <g id="Group-9" transform="translate(1069.000000, 990.000000)">
                <path d="M84.7009075,29.4520981 C87.8768839,25.5088976 89.4245791,20.4794404 89.069117,15.2766678 L91.0914975,15.2027052 C91.0914975,12.7718745 93.0686173,10.7947547 95.4983441,10.7947547 C96.6751223,10.7947547 97.7834575,11.2528813 98.6158128,12.0852366 C99.4481681,12.9186958 99.9073986,14.0248231 99.9073986,15.2016013 L101.927571,15.2766678 C101.574317,20.4794404 103.119804,25.5088976 106.295781,29.4520981 C109.51481,33.4471827 114.014386,35.8515194 118.967673,36.2213324 C119.404825,36.2533461 119.843081,36.2699049 120.276921,36.2699049 C129.028795,36.2699049 136.620449,29.7071035 138.534646,20.7278223 L143,20.7278223 L143,14.9377645 L140.837422,14.9377645 C140.308644,11.5354846 138.496008,8.33522203 135.552959,5.70347796 C131.942038,2.47120167 127.008622,0.470899549 121.663444,0.0723846113 C120.675436,-0.0015779949 119.695156,-0.0181367873 118.72481,0.0193964755 L118.72481,0.00614944157 L72.2729819,0.00614944157 L72.2729819,0.0216043145 C71.3092601,-0.0170328678 70.3278757,-0.0015779949 69.3343482,0.0723846113 C63.98917,0.46979563 59.0579616,2.47120167 55.4448331,5.70347796 C52.5039915,8.33522203 50.688044,11.5354846 50.1603705,14.9377645 L48,14.9377645 L48,20.7278223 L52.4631465,20.7278223 C54.3773429,29.7082074 61.9689973,36.2699049 70.7230789,36.2699049 C71.1547114,36.2699049 71.5918635,36.2533461 72.0323274,36.2213324 C76.9845103,35.8515194 81.4818783,33.4471827 84.7009075,29.4520981 Z M121.234019,5.84588357 C125.310794,6.14946143 129.026587,7.6309214 131.693657,10.0164914 C134.149877,12.2132912 135.389579,14.9123744 135.186458,17.6169771 L134.953531,20.7278223 L136.751816,20.7278223 C134.787943,29.1253379 127.386163,35.1074776 119.097935,34.4892827 C114.628165,34.155899 110.564637,31.9811776 107.651394,28.3636334 C104.73815,24.7482971 103.326237,20.1261862 103.665141,15.3417991 L105.689729,15.4168656 C106.127985,9.53297469 113.098133,5.23762393 121.234019,5.84588357 Z M110.604378,1.74371873 C109.366885,2.25041778 108.187899,2.86198918 107.093914,3.57953685 C105.245953,4.79384829 103.719233,6.23556715 102.555701,7.84728962 C100.723195,6.08764194 98.2349605,5.00469692 95.4983441,5.00469692 C92.8356903,5.00469692 90.3275852,6.01919893 88.4178045,7.86495233 C86.5080238,5.23652001 83.6897173,3.11699458 80.3282824,1.74371873 L110.604378,1.74371873 Z M71.9020649,34.4881788 C63.605006,35.1141011 56.2098493,29.1264418 54.2481843,20.7267184 L56.0442614,20.7267184 L55.8113343,17.6158732 C55.610421,14.9112705 56.8501226,12.2121873 59.3041356,10.0153875 C61.9712051,7.62981748 65.6858942,6.14835751 69.7659807,5.84477965 C73.8405475,5.54009787 77.7351755,6.45414321 80.7279013,8.418016 C83.4810765,10.2262361 85.1093578,12.7111589 85.3091672,15.4157617 L87.3337555,15.3406951 C87.6748667,20.1250822 86.2596419,24.7471932 83.3497101,28.3625295 C80.4342587,31.9800737 76.3696271,34.155899 71.9020649,34.4881788 Z" id="glasses-icon"></path>
            </g>
        </g>
    </g>
</svg>