<?xml version="1.0" encoding="UTF-8"?>
<svg width="93px" height="93px" viewBox="0 0 93 93" version="1.1" xmlns="http://www.w3.org/2000/svg" xmlns:xlink="http://www.w3.org/1999/xlink">
    <!-- Generator: Sketch 50 (54983) - http://www.bohemiancoding.com/sketch -->
    <title>Icon</title>
    <desc>Created with Sketch.</desc>
    <defs>
        <polygon id="path-1" points="0 0.00345199569 42.5649429 0.00345199569 42.5649429 50 0 50"></polygon>
        <polygon id="path-3" points="0.00839463774 0.00345199569 42.5733054 0.00345199569 42.5733054 50 0.00839463774 50"></polygon>
    </defs>
    <g id="Page-1" stroke="none" stroke-width="1" fill="none" fill-rule="evenodd">
        <g id="Media-Single" transform="translate(-712.000000, -338.000000)">
            <g id="Icon" transform="translate(712.000000, 338.000000)">
                <circle id="Oval" fill="#F7F7F7" cx="46.5" cy="46.5" r="46.5"></circle>
                <g transform="translate(15.000000, 21.000000)">
                    <g id="Group-3">
                        <mask id="mask-2" fill="white">
                            <use xlink:href="#path-1"></use>
                        </mask>
                        <g id="Clip-2"></g>
                        <path d="M40.8776746,29.8047033 L27.6042554,3.97940669 C26.9812862,2.76737864 25.4991192,2.29256742 24.2937857,2.91899676 C23.0883986,3.54542611 22.6162636,5.03582524 23.2392329,6.24790723 L29.1676863,17.7825351 C29.5298603,18.4871737 29.2553869,19.3536785 28.5545867,19.717918 C27.8537865,20.0821036 26.9920677,19.8060518 26.6298401,19.1014132 L17.5010924,1.34014024 C16.8781231,0.128058252 15.3960097,-0.346699029 14.1906226,0.279730313 C12.9852355,0.906159655 12.5131542,2.39655879 13.1360698,3.60864078 L22.2648175,21.3699137 C22.6269915,22.0745523 22.3525181,22.9411111 21.6517179,23.3052427 C20.9509176,23.6694822 20.0891989,23.3934304 19.7270249,22.6887918 L9.23422441,2.27352751 C8.61125511,1.06149946 7.12908811,0.586688242 5.92370099,1.21311758 C4.71831387,1.83954693 4.24617889,3.32994606 4.86920182,4.54202805 L15.3620023,24.9572384 C15.7241763,25.661931 15.4497029,26.5284358 14.7489027,26.8926753 C14.0480488,27.2568608 13.1863837,26.9808091 12.8242097,26.2761704 L4.63978563,10.3522762 C4.01681633,9.14014024 2.53470297,8.66543689 1.32926221,9.29186624 C0.123928729,9.91829558 -0.348206258,11.4086947 0.274763038,12.6207228 L9.11493013,29.8205609 L11.5519877,34.5622006 C12.2943586,36.0065372 10.5270976,37.4319417 9.28609382,36.3898166 L4.55294326,32.415383 C3.51142485,31.5408954 1.96215481,31.6809169 1.0924974,32.7281661 C0.22278635,33.7754153 0.361980884,35.3332902 1.40349929,36.2078317 L12.4109172,45.4508198 C12.4109172,45.4508198 21.9321452,54.0075081 34.1644214,47.6504423 C47.6147973,40.6603668 40.8776746,29.8047033 40.8776746,29.8047033" id="Fill-1" fill="#ED7023" mask="url(#mask-2)"></path>
                    </g>
                    <g id="Group-6" transform="translate(17.472727, 0.000000)">
                        <mask id="mask-4" fill="white">
                            <use xlink:href="#path-3"></use>
                        </mask>
                        <g id="Clip-5"></g>
                        <path d="M1.69566299,29.8047033 L14.9690821,3.97940669 C15.5920514,2.76737864 17.0742184,2.29256742 18.2795519,2.91899676 C19.484939,3.54542611 19.957074,5.03582524 19.3341047,6.24790723 L13.4056513,17.7825351 C13.0434773,18.4871737 13.3179507,19.3536785 14.0188045,19.717918 C14.7195511,20.0821036 15.5813235,19.8060518 15.9434975,19.1014132 L25.0721915,1.34014024 C25.6951608,0.128058252 27.1773278,-0.346699029 28.382715,0.279730313 C29.5881021,0.906159655 30.0601834,2.39655879 29.4372678,3.60864078 L20.3085201,21.3699137 C19.9463461,22.0745523 20.2208195,22.9411111 20.9215661,23.3052427 C21.62242,23.6694822 22.4841387,23.3934304 22.8463127,22.6887918 L33.3391132,2.27352751 C33.9620825,1.06149946 35.4441958,0.586688242 36.6495829,1.21311758 C37.8549701,1.83954693 38.3271051,3.32994606 37.7041358,4.54202805 L27.2113353,24.9572384 C26.8491613,25.661931 27.1236347,26.5284358 27.8244886,26.8926753 C28.5252351,27.2568608 29.3869539,26.9808091 29.7491279,26.2761704 L37.933552,10.3522762 C38.5565212,9.14014024 40.0386883,8.66543689 41.2440217,9.29186624 C42.4494089,9.91829558 42.9215438,11.4086947 42.2985745,12.6207228 L33.4584074,29.8205609 L31.0212962,34.5622006 C30.2789254,36.0065372 32.04624,37.4319417 33.2872438,36.3898166 L38.020448,32.415383 C39.0619127,31.5408954 40.6111291,31.6809169 41.4808402,32.7281661 C42.3505512,33.7754153 42.2113031,35.3332902 41.1698383,36.2078317 L30.1624203,45.4508198 C30.1624203,45.4508198 20.6411924,54.0075081 8.40891614,47.6504423 C-5.04145975,40.6603668 1.69566299,29.8047033 1.69566299,29.8047033" id="Fill-4" fill="#8AC53F" mask="url(#mask-4)"></path>
                    </g>
                    <path d="M29.4852782,44.4443023 C29.4852782,44.4443023 29.7196073,44.5277316 33.5231345,40.6516247 C37.3266103,36.775626 37.0888866,35.1085013 37.106631,34.9274673 C37.3719228,32.218721 35.2928437,30 32.9859675,30 C30.6790913,30 29.4852782,31.8894946 29.4852782,31.8894946 C29.4852782,31.8894946 28.2914137,30 25.9845375,30 C23.6777127,30 21.5985307,32.218721 21.8638225,34.9274673 C21.8815669,35.1085013 21.6438947,36.775626 25.4474219,40.6516247 C29.2509491,44.5277316 29.4852782,44.4443023 29.4852782,44.4443023" id="Fill-7" fill="#F9FBFC"></path>
                </g>
            </g>
        </g>
    </g>
</svg>