<?xml version="1.0" encoding="UTF-8"?>
<svg width="86px" height="86px" viewBox="0 0 86 86" version="1.1" xmlns="http://www.w3.org/2000/svg" xmlns:xlink="http://www.w3.org/1999/xlink">
    <!-- Generator: Sketch 50 (54983) - http://www.bohemiancoding.com/sketch -->
    <title>medical-icon</title>
    <desc>Created with Sketch.</desc>
    <defs></defs>
    <g id="Page-1" stroke="none" stroke-width="1" fill="none" fill-rule="evenodd">
        <g id="Homepage" transform="translate(-860.000000, -1687.000000)">
            <g id="Group-5" transform="translate(194.000000, 1232.000000)">
                <g id="medical-icon" transform="translate(666.000000, 455.000000)">
                    <circle id="Oval-2" fill="#9013FE" cx="43" cy="43" r="43"></circle>
                    <path d="M63.7359181,22.811181 C63.3349855,21.6083832 62.5331203,20.806518 61.9317214,20.4055854 L62.332654,19.403254 L59.9270585,18.3006894 L57.3209966,24.214445 L59.7265922,25.3170097 L60.8291568,22.9114141 C61.0296231,23.1118804 61.1298562,23.3123467 61.2300894,23.6130462 C61.4305557,24.3146782 61.3303225,25.2167765 60.7289236,26.219108 C58.5237944,30.328667 53.9130696,39.5501166 53.512137,40.2517486 C53.3116708,40.552448 51.8081735,42.7575773 48.3000134,41.9557121 C46.4958167,41.5547795 45.0925527,41.7552458 43.8897549,42.3566447 C43.4888223,41.2540801 42.7871903,40.2517486 41.7848588,39.3496503 C41.4841594,39.149184 38.9783307,36.8438216 40.0808953,34.1375266 C40.4818279,33.3356614 45.1927858,24.214445 47.0972156,20.0046529 C47.5983814,18.9020882 48.1997802,18.3006894 48.9014123,17.9999899 C49.0016454,17.9999899 49.2021117,17.9999899 49.3023449,17.8997568 L48.5004797,19.7039534 L50.9060752,20.806518 L53.512137,14.8927623 L51.2067747,13.8904309 L50.5051426,15.3939281 C49.8035106,15.2936949 49.0016454,15.2936949 48.1997802,15.4941612 C46.696283,15.995327 45.5937184,17.0978916 44.7918532,18.9020882 C42.7871903,23.2121136 37.7755329,32.9347289 37.7755329,33.034962 L37.7755329,33.1351951 C37.0739009,34.7389255 36.6729683,38.5477851 40.1811285,41.4545464 C41.0832268,42.2564115 41.5843925,43.0582767 41.6846257,43.8601419 C41.6846257,44.1608413 41.6846257,44.3613076 41.5843925,44.6620071 C41.1834599,45.263406 40.8827605,45.965038 40.6822942,46.4662037 L36.0715694,54.1841561 L35.9713363,54.3846224 C35.77087,54.785555 34.6683054,57.5920831 35.069238,60.2983781 C32.0622435,62.1025747 28.955016,62.6037404 25.7475553,59.9976786 C23.2417266,57.9930157 22.2393951,55.0862544 22.7405608,51.377628 C22.9410271,49.6736644 23.4421929,48.1701672 23.8431255,47.1678358 C24.244058,47.2680689 24.5447575,47.2680689 24.9456901,47.2680689 C27.6519851,47.2680689 29.7568811,45.0629397 29.7568811,42.3566447 C29.7568811,39.6503497 27.5517519,37.4452205 24.9456901,37.4452205 C22.2393951,37.4452205 20.134499,39.6503497 20.134499,42.3566447 C20.134499,43.6596756 20.6356647,44.8624734 21.5377631,45.7645717 C19.7335664,49.9743639 18.4305355,57.3916168 24.1438249,62.0023416 C28.4538502,65.5105017 32.5634093,64.6084034 36.0715694,62.7039736 C36.0715694,62.8042067 36.1718026,62.8042067 36.1718026,62.9044399 C37.2743672,64.4079371 39.0785638,65.1095691 41.4841594,65.1095691 C42.0855583,65.1095691 42.7871903,65.009336 43.5890555,64.9091028 C46.696283,64.5081702 49.9037437,61.9021084 49.5028112,58.0932488 C49.2021117,55.2867207 47.0972156,53.482524 44.1904544,53.6829903 C42.8874234,53.7832235 41.5843925,54.8857881 39.7801959,56.4895185 C39.0785638,57.0909173 38.3769318,57.6923162 37.6752998,58.2937151 C37.7755329,57.0909173 38.1764655,55.9883527 38.3769318,55.2867207 L42.8874234,47.6690015 C43.0878897,47.3683021 43.5890555,46.66667 43.9899881,45.6643386 C43.9899881,45.5641054 44.0902212,45.5641054 44.0902212,45.4638723 C44.9923195,44.4615408 46.1951173,44.0606082 47.6986145,44.4615408 C52.108873,45.5641054 54.9154011,43.0582767 55.8174994,41.5547795 L55.8174994,41.4545464 C55.9177326,41.3543132 60.7289236,31.6316979 63.034286,27.4219058 C64.0366175,25.9184085 64.2370838,24.214445 63.7359181,22.811181 Z M24.8454569,40.2517486 C26.0482547,40.2517486 27.0505862,41.2540801 27.0505862,42.4568778 C27.0505862,43.6596756 26.0482547,44.6620071 24.8454569,44.6620071 C23.6426592,44.6620071 22.6403277,43.6596756 22.6403277,42.4568778 C22.6403277,41.2540801 23.6426592,40.2517486 24.8454569,40.2517486 Z M41.4841594,58.6946477 C42.4864908,57.7925494 43.8897549,56.5897516 44.2906875,56.4895185 C46.3955836,56.3892853 46.7965162,57.9930157 46.7965162,58.4941814 C46.9969825,60.0979118 45.7941847,62.0023416 43.1881229,62.4032741 C41.4841594,62.6037404 39.178797,62.7039736 38.1764655,61.4009427 C38.1764655,61.4009427 38.1764655,61.4009427 38.1764655,61.4009427 C39.3792633,60.4988444 40.4818279,59.4965129 41.4841594,58.6946477 Z" id="Shape" fill="#FFFFFF" fill-rule="nonzero"></path>
                </g>
            </g>
        </g>
    </g>
</svg>