<?xml version="1.0" encoding="utf-8"?>
<!-- Generator: Adobe Illustrator 22.1.0, SVG Export Plug-In . SVG Version: 6.00 Build 0)  -->
<svg version="1.1" id="Layer_1" xmlns="http://www.w3.org/2000/svg" xmlns:xlink="http://www.w3.org/1999/xlink" x="0px" y="0px"
	 viewBox="0 0 58 90" style="enable-background:new 0 0 58 90;" xml:space="preserve">
<style type="text/css">
	.st0{fill:#F4A736;}
</style>
<g id="Page-1">
	<g id="Programmes" transform="translate(-691.000000, -840.000000)">
		<path id="Water-and-Sanitation-Icon" class="st0" d="M748.5,896c-0.9-4.7-2.7-9.1-4.6-13.4c-5-11.3-11.1-21.9-17.5-32.4
			c-2.1-3.4-4.2-6.7-6.4-10.2c-0.3,0.5-0.5,0.7-0.7,1c-4.8,7.9-9.7,15.8-14.4,23.8c-4.4,7.5-8.3,15.4-11.4,23.6
			c-2,5.5-3.3,11.9-2.2,17.8c2.4,12.6,15.3,22.6,28.4,23.8h0.1v-30.2h-5.4v22.3c-8.5-2.8-16.1-9.7-17.6-18
			c-0.9-4.8,0.1-10.1,1.8-14.6c2.5-6.6,5.7-13,9.2-19.1c3.8-6.5,7.7-12.9,11.6-19.3c0.1-0.2,0.3-0.4,0.6-0.8
			c1.8,2.8,3.5,5.5,5.2,8.3c5.2,8.5,10.2,17.1,14.2,26.2c1.5,3.5,3,7.1,3.7,10.8c0.9,4.7,0.1,10.2-2,14.4c-2.9,5.9-8.7,10.6-15,12.6
			v7.1c8.5-2.1,16-8.1,20-16.2C748.6,908.4,749.7,901.9,748.5,896z"/>
	</g>
</g>
</svg>
