<?xml version="1.0" encoding="UTF-8"?>
<svg width="58px" height="90px" viewBox="0 0 58 90" version="1.1" xmlns="http://www.w3.org/2000/svg" xmlns:xlink="http://www.w3.org/1999/xlink">
    <!-- Generator: Sketch 50 (54983) - http://www.bohemiancoding.com/sketch -->
    <title>Water-and-Sanitation Icon</title>
    <desc>Created with Sketch.</desc>
    <defs></defs>
    <g id="Page-1" stroke="none" stroke-width="1" fill="none" fill-rule="evenodd">
        <g id="Programmes" transform="translate(-691.000000, -840.000000)" fill="#FFFFFF" fill-rule="nonzero">
            <path d="M748.545325,896.021602 C747.64219,891.346135 745.88969,886.942694 743.970902,882.621262 C738.983247,871.346135 732.852485,860.709071 726.433954,850.234023 C724.356843,846.846685 722.217001,843.517352 720.008453,840 C719.686829,840.451045 719.47872,840.719072 719.304466,841.008101 C714.50401,848.943894 709.596014,856.821682 704.948903,864.849485 C700.579602,872.39924 696.665353,880.20002 693.5935,888.412841 C691.547257,893.874387 690.306567,900.265027 691.41582,906.19562 C693.781694,918.782878 706.734262,928.809881 719.821254,929.990999 C719.852122,929.994999 719.883985,929.997 719.914853,930 L719.914853,899.782978 L714.507993,899.782978 L714.507993,922.131213 C706.054172,919.328933 698.427811,912.414241 696.86948,904.121412 C695.970328,899.323932 696.976024,893.978398 698.627954,889.560956 C701.121283,882.921292 704.281758,876.60366 707.817625,870.490049 C711.582513,863.9974 715.553518,857.626763 719.436899,851.20212 C719.581281,850.966097 719.748565,850.754075 720.000487,850.382038 C721.797795,853.231323 723.535359,855.931593 725.205212,858.665867 C730.399981,867.146715 735.362742,875.760576 739.399466,884.878488 C740.948835,888.379838 742.37075,891.940194 743.101622,895.719572 C744.018697,900.454045 743.17929,905.876588 741.064341,910.117012 C738.15778,915.970597 732.362581,920.711071 726.03765,922.732273 L726.03765,929.79998 C734.58507,927.664766 742.009297,921.69517 746.030089,913.605361 C748.636933,908.356836 749.679471,901.869187 748.545325,896.021602 Z" id="Water-and-Sanitation-Icon"></path>
        </g>
    </g>
</svg>