<?xml version="1.0" encoding="UTF-8"?>
<svg xmlns="http://www.w3.org/2000/svg" xmlns:xlink="http://www.w3.org/1999/xlink" width="97px" height="63px" viewBox="0 0 97 63">
  <!-- Generator: Sketch 50 (54983) - http://www.bohemiancoding.com/sketch -->
  <title>beneficiaries-icon</title>
  <desc>Created with Sketch.</desc>
  <defs></defs>
  <g id="Page-1" stroke="none" stroke-width="1" fill="none" fill-rule="evenodd">
    <g id="Media-Single" transform="translate(-218.000000, -964.000000)" fill="#BD10E0" fill-rule="nonzero">
      <g id="Group-2" transform="translate(164.000000, 964.000000)">
        <g id="beneficiaries-icon" transform="translate(54.000000, 0.000000)">
          <path d="M21.4880461,15 C22.7932318,15 24.0009232,16.1885343 23.9999995,17.5000018 C23.9992054,18.8101634 22.7919205,20 21.4880461,20 C20.1841552,20 19.0009406,18.8101634 19.0000004,17.5000018 C18.9992075,16.1885343 20.1828604,15 21.4880461,15 Z" id="Shape"></path>
          <polygon id="Shape" points="19.0896528 20 24.9103472 20 29 28.2760784 26.987647 29.3161183 24.9103472 25.0674329 24.9103472 41 22.2488588 41 22.2488588 31.0200227 21.751155 31.0200227 21.751155 41 19.0896528 41 19.0896528 25.0674329 16.9907278 29.3161183 15 28.2760784"></polygon>
          <path d="M34.4880496,32 C35.7932314,32 37.0009316,33.1885339 36.9999995,34.5 C36.9992167,35.8101634 35.7919212,37 34.4880496,37 C33.1841505,37 32.0009325,35.8101634 32.0000004,34.5 C31.9992038,33.1885339 33.182854,32 34.4880496,32 Z" id="Shape"></path>
          <polygon id="Shape" points="31.9660001 38 39.0340009 38 44 47.8524724 41.556428 49.0906159 39.0340009 44.0326586 39.0340009 63 35.8021799 63 35.8021799 51.1190756 35.1978352 51.1190756 35.1978352 63 31.9660001 63 31.9660001 44.0326586 29.4173067 49.0906159 27 47.8524724"></polygon>
          <path d="M7.48804958,32 C8.79323143,32 10.0009306,33.1885339 9.99999946,34.5 C9.99921567,35.8101634 8.79192119,37 7.48804958,37 C6.18415048,37 5.0009325,35.8101634 5.0000004,34.5 C4.99920384,33.1885339 6.18285399,32 7.48804958,32 Z" id="Shape"></path>
          <polygon id="Shape" points="4.96599907 38 12.0339999 38 17 47.8524724 14.556428 49.0906159 12.0339999 44.0326586 12.0339999 63 8.80217993 63 8.80217993 51.1190756 8.19783518 51.1190756 8.19783518 63 4.96599907 63 4.96599907 44.0326586 2.41730672 49.0906159 0 47.8524724"></polygon>
          <path d="M48.4880449,15 C49.7932319,15 51.000922,16.1885343 50.9999995,17.5000018 C50.9992054,18.8101634 49.7919194,20 48.4880449,20 C47.1841552,20 46.0009394,18.8101634 46.0000004,17.5000018 C45.9992063,16.1885343 47.1828592,15 48.4880449,15 Z" id="Shape"></path>
          <polygon id="Shape" points="46.0896528 20 51.9103472 20 56 28.2760784 53.9876481 29.3161183 51.9103472 25.0674329 51.9103472 41 49.2488599 41 49.2488599 31.0200227 48.751155 31.0200227 48.751155 41 46.0896528 41 46.0896528 25.0674329 43.9907278 29.3161183 42 28.2760784"></polygon>
          <path d="M61.4880486,32 C62.7932304,32 64.0009306,33.1885339 63.9999995,34.5 C63.9992157,35.8101634 62.7919212,37 61.4880486,37 C60.1841505,37 59.0009315,35.8101634 59.0000004,34.5 C58.9992038,33.1885339 60.182854,32 61.4880486,32 Z" id="Shape"></path>
          <polygon id="Shape" points="57.9659991 38 65.0339999 38 70 47.8524724 67.556428 49.0906159 65.0339999 44.0326586 65.0339999 63 61.8021799 63 61.8021799 51.1190756 61.1978341 51.1190756 61.1978341 63 57.9659991 63 57.9659991 44.0326586 55.4173056 49.0906159 53 47.8524724"></polygon>
          <path d="M75.4880461,15 C76.7932318,15 78.0009232,16.1885343 77.9999995,17.5000018 C77.9992054,18.8101634 76.7919205,20 75.4880461,20 C74.1841552,20 73.0009406,18.8101634 73.0000004,17.5000018 C72.9992075,16.1885343 74.1828592,15 75.4880461,15 Z" id="Shape"></path>
          <polygon id="Shape" points="72.0896525 20 77.9103475 20 82 28.2760784 79.9876472 29.3161183 77.9103475 25.0674329 77.9103475 41 75.2488593 41 75.2488593 31.0200227 74.7511556 31.0200227 74.7511556 41 72.0896525 41 72.0896525 25.0674329 69.9907287 29.3161183 68 28.2760784"></polygon>
          <path d="M87.4880496,32 C88.7932314,32 90.0009316,33.1885339 89.9999995,34.5 C89.9992167,35.8101634 88.7919212,37 87.4880496,37 C86.1841505,37 85.0009325,35.8101634 85.0000004,34.5 C84.9992038,33.1885339 86.182854,32 87.4880496,32 Z" id="Shape"></path>
          <polygon id="Shape" points="84.9660005 38 92.0340017 38 97 47.8524724 94.5564289 49.0906159 92.0340017 44.0326586 92.0340017 63 88.8021805 63 88.8021805 51.1190756 88.1978357 51.1190756 88.1978357 63 84.9660005 63 84.9660005 44.0326586 82.4173069 49.0906159 80 47.8524724"></polygon>
          <path d="M35.9904447,0 C37.0345872,0 38.0007503,0.950828537 37.9999996,2.00000114 C37.9993721,3.04812972 37.0335335,4 35.9904447,4 C34.9473265,4 34.0007522,3.04812972 34.0000003,2.00000114 C33.9993649,0.950828537 34.9462909,0 35.9904447,0 Z" id="Shape"></path>
          <polygon id="Shape" points="33.5054158 4 38.4945776 4 42 10.6996813 40.2751248 11.5416191 38.4945776 8.10220837 38.4945776 21 36.2132992 21 36.2132992 12.9209721 35.7867084 12.9209721 35.7867084 21 33.5054158 21 33.5054158 8.10220837 31.7063401 11.5416191 30 10.6996813"></polygon>
          <path d="M60.990417,0 C62.0345881,0 63.00073,0.950828537 62.9999996,2.00000114 C62.9993778,3.04812972 62.033531,4 60.990417,4 C59.9473177,4 59.0007465,3.04812972 59.0000003,2.00000114 C58.9993627,0.950828537 59.9462764,0 60.990417,0 Z" id="Shape"></path>
          <polygon id="Shape" points="58.5054206 4 63.4945706 4 67 10.6996813 65.2751306 11.5416191 63.4945706 8.10220837 63.4945706 21 61.2132919 21 61.2132919 12.9209721 60.7866993 12.9209721 60.7866993 21 58.5054206 21 58.5054206 8.10220837 56.7063299 11.5416191 55 10.6996813"></polygon>
        </g>
      </g>
    </g>
  </g>
</svg>
