<?xml version="1.0" encoding="UTF-8"?>
<svg xmlns="http://www.w3.org/2000/svg" xmlns:xlink="http://www.w3.org/1999/xlink" width="94px" height="80px" viewBox="0 0 94 80">
  <!-- Generator: Sketch 50 (54983) - http://www.bohemiancoding.com/sketch -->
  <title>Education Icon</title>
  <desc>Created with Sketch.</desc>
  <defs></defs>
  <g id="Page-1" stroke="none" stroke-width="1" fill="none" fill-rule="evenodd">
    <g id="Programmes" transform="translate(-674.000000, -478.000000)" fill="#FFFFFF" fill-rule="nonzero">
      <g id="Group-2" transform="translate(665.000000, 478.000000)">
        <path d="M101.371422,26.9289701 L54.5477866,0.289558818 C53.9098624,-0.096519606 53.1443534,-0.096519606 52.634014,0.289558818 L9.89309385,27.0576629 C9.38275451,27.4437413 9,28.0872054 9,28.7306694 C9,29.3741334 9.38275451,30.0175975 9.89309385,30.4036759 L21.2481443,37.3530875 L21.2481443,53.5683813 C17.6757689,54.469231 14.9964873,57.6865512 14.9964873,61.5473354 C14.9964873,65.0220413 17.1654295,67.9819758 20.2274656,69.1402111 C18.5688627,73.1296882 15.5068267,73.3870738 14.9964873,73.3870738 C13.9758086,73.3870738 13.0827148,74.2879234 13.0827148,75.3174659 C13.0827148,76.3470084 13.9758086,77.247858 14.9964873,77.247858 C15.1240721,77.247858 21.6308988,77.1191652 24.0550107,69.5262895 C26.6067074,69.2689039 28.7756496,67.7245902 30.051498,65.5368125 C38.9824365,68.6254399 51.102996,73.6444594 53.9098624,78.7921717 C54.4202017,79.4356358 55.0581259,79.8217142 55.6960501,79.8217142 C55.8236349,79.8217142 55.8236349,79.8217142 55.9512198,79.8217142 C56.7167288,79.6930214 57.354653,79.1782501 57.6098226,78.4060933 C59.2684255,72.6149169 76.1096239,66.0515837 86.3164108,63.3490348 C87.2095047,63.0916491 87.719844,62.3194923 87.719844,61.5473354 L87.719844,38.1252444 L101.499006,30.2749831 C102.136931,29.8889047 102.519685,29.2454406 102.519685,28.6019766 C102.519685,27.9585125 102.009346,27.3150485 101.371422,26.9289701 Z M83.8922989,60.0030217 C78.406151,61.5473354 61.0546132,67.0811262 55.4408804,74.4166162 C50.2099021,69.0115183 38.9824365,64.50727 31.3273464,61.9334139 C31.3273464,61.8047211 31.3273464,61.6760283 31.3273464,61.4186426 C31.3273464,57.5578584 28.6480648,54.3405382 25.0756894,53.4396885 L25.0756894,39.6695581 L52.634014,56.9143944 C52.8891837,57.17178 53.2719382,57.17178 53.6546927,57.17178 C54.0374472,57.17178 54.2926169,57.0430872 54.5477866,56.9143944 L83.7647141,40.1843293 L83.7647141,60.0030217 L83.8922989,60.0030217 Z M53.6546927,53.0536101 L28.6480648,37.4817803 L52.634014,23.7116499 C53.5271079,23.1968786 53.9098624,22.0386434 53.399523,21.1377937 C52.8891837,20.2369441 51.7409202,19.8508656 50.8478263,20.3656369 L24.9481045,35.1653098 L14.6137328,28.7306694 L53.7822776,4.27903587 L96.6507826,28.7306694 L53.6546927,53.0536101 Z" id="Education-Icon"></path>
      </g>
    </g>
  </g>
</svg>
