<?xml version="1.0" encoding="UTF-8"?>
<svg xmlns="http://www.w3.org/2000/svg" xmlns:xlink="http://www.w3.org/1999/xlink" width="86px" height="83px" viewBox="0 0 86 83">
  <!-- Generator: Sketch 50 (54983) - http://www.bohemiancoding.com/sketch -->
  <title>homelessness icon</title>
  <desc>Created with Sketch.</desc>
  <defs></defs>
  <g id="Page-1" stroke="none" stroke-width="1" fill="none" fill-rule="evenodd">
    <g id="About" transform="translate(-1087.000000, -1096.000000)" fill="#BD10E0" fill-rule="nonzero">
      <g id="Group-4" transform="translate(996.000000, 1096.000000)">
        <g id="homelessness-icon" transform="translate(91.000000, 0.000000)">
          <path d="M70.964,24.074 C72.245,24.491 73.162,25.749 74.133,27.081 C74.631,27.764 75.464,28.907 75.855,29.043 C76.525,29.199 79.073,28.102 81.187,26.739 C81.602,26.473 82.095,26.44 82.523,26.599 C82.83,24.676 83,22.628 83,20.5 C83,20.256 82.986,20.019 82.981,19.777 C81.13,20.711 77.997,22.12 75.925,22.12 C75.647,22.12 75.389,22.095 75.154,22.039 C73.731,21.703 72.702,20.291 71.707,18.927 C71.223,18.261 70.41,17.147 70.033,17.005 C69.301,16.832 66.292,17.971 63.725,19.392 C63.501,19.516 63.26,19.569 63.022,19.573 C63.017,19.882 63,20.187 63,20.5 C63,22.61 63.166,24.643 63.469,26.553 C65.195,25.424 68.78,23.363 70.964,24.074 Z" id="Shape"></path>
          <path d="M70.964,14.153 C72.245,14.57 73.162,15.828 74.133,17.16 C74.631,17.843 75.464,18.986 75.855,19.122 C76.604,19.271 79.615,18.174 82.298,16.753 C82.461,16.667 82.634,16.619 82.807,16.596 C81.898,7.42 77.854,0.5 73,0.5 C68.206,0.5 64.205,7.25 63.23,16.255 C65.402,15.132 69.032,13.522 70.964,14.153 Z" id="Shape"></path>
          <path d="M74.5,60.5 L74.5,40.5 C74.5,40.424 74.488,40.352 74.478,40.278 C77.674,39.33 80.376,35.356 81.835,29.858 C80.319,30.748 77.799,32.04 75.906,32.04 C75.641,32.04 75.39,32.015 75.155,31.959 C73.732,31.623 72.703,30.211 71.708,28.847 C71.224,28.181 70.411,27.067 70.034,26.925 C69.36,26.758 66.846,27.89 64.838,29.243 C64.604,29.401 64.34,29.479 64.077,29.492 C65.513,35.176 68.258,39.308 71.522,40.278 C71.512,40.353 71.5,40.425 71.5,40.5 L71.5,60.5 L52,60.5 L52,30.9 L50.86,29.703 L56.959,35.58 C57.555,36.154 58.506,36.139 59.08,35.541 C59.655,34.944 59.638,33.995 59.041,33.42 L30.49,5.907 L1.949,33.93 C1.358,34.511 1.349,35.46 1.929,36.051 C2.223,36.35 2.611,36.5 3,36.5 C3.379,36.5 3.759,36.357 4.051,36.07 L9,31.211 L9,60.5 L0.5,60.5 L0.5,83 L85.5,83 L85.5,60.5 L74.5,60.5 Z M43,48 L33,48 L33,43 L43,43 L43,48 Z M28,33 L28,25.5 L33,25.5 L33,33 L28,33 Z M18,60.5 L18,43 L25.5,43 L25.5,60.5 L18,60.5 Z" id="Shape"></path>
        </g>
      </g>
    </g>
  </g>
</svg>
