<?xml version="1.0" encoding="UTF-8"?>
<svg xmlns="http://www.w3.org/2000/svg" xmlns:xlink="http://www.w3.org/1999/xlink" width="113px" height="116px" viewBox="0 0 113 116">
  <!-- Generator: Sketch 50 (54983) - http://www.bohemiancoding.com/sketch -->
  <title>Housing-and-Shelter Icon</title>
  <desc>Created with Sketch.</desc>
  <defs></defs>
  <g id="Page-1" stroke="none" stroke-width="1" fill="none" fill-rule="evenodd">
    <g id="Programmes" transform="translate(-1064.000000, -816.000000)" fill="#3a2be0" fill-rule="nonzero">
      <path d="M1086.20956,929.52319 C1085.11949,929.388896 1084.1208,928.58803 1084.1208,927.120592 L1084.11964,909.996281 L1077.6449,909.996281 L1084.59448,885.911161 L1082.88669,885.911161 L1078.84302,899.498829 C1077.88058,902.460333 1073.80441,901.245119 1074.73783,898.071416 L1079.22614,883.310279 C1079.70795,881.627765 1081.80234,878.640751 1085.49075,878.640751 L1094.33503,878.640751 C1097.99209,878.640751 1100.04005,881.650956 1100.59151,883.310279 L1104.89871,897.455693 C1105.81008,896.413252 1107.12197,895.749987 1108.62659,895.749987 L1118.08503,895.754625 C1119.9809,895.754625 1121.45069,896.726332 1122.31561,898.081852 L1122.31561,885.265289 C1122.31561,881.526883 1125.16348,878.530593 1128.84143,878.530593 L1140.7948,878.536391 C1144.83266,878.536391 1147.41118,881.913015 1147.41118,885.358054 L1147.41118,901.194098 C1147.42163,904.315621 1143.34545,904.315621 1143.34545,901.194098 L1143.34545,885.689686 L1141.51692,885.689686 L1141.50299,926.635898 C1141.50299,928.121322 1140.38539,929.350071 1138.9418,929.52319 L1158.0898,929.52319 L1158.0898,932 L1066.97441,932 L1066.97441,929.52319 L1086.20956,929.52319 Z M1086.87213,929.52319 L1093.0115,929.52319 C1091.92288,929.39039 1090.9241,928.596666 1090.9241,927.147262 L1090.9241,909.872209 L1088.95857,909.872209 L1088.96089,927.120592 C1088.96089,928.58803 1087.96221,929.388896 1086.87213,929.52319 Z M1093.67086,929.52319 L1109.53577,929.52319 C1108.73705,929.180247 1108.1773,928.386666 1108.1773,927.46382 L1108.17962,901.264831 L1106.75743,901.264831 L1106.75743,911.339046 C1106.75743,913.725411 1103.60075,913.725411 1103.60075,911.339046 L1103.60075,901.131482 C1102.60695,901.394701 1101.44018,900.932039 1100.97811,899.451287 L1096.93677,885.911161 L1095.19531,885.911161 L1102.19713,909.995122 L1095.74793,909.995122 L1095.74793,927.147262 C1095.74793,928.600495 1094.75546,929.39074 1093.67086,929.52319 Z M1111.30443,929.52319 L1115.50529,929.52319 C1114.70561,929.180247 1114.14585,928.386666 1114.14585,927.46382 L1114.15282,913.814697 L1112.66678,913.814697 L1112.66445,927.46382 C1112.66445,928.387382 1112.10423,929.180428 1111.30443,929.52319 Z M1117.27444,929.52319 L1130.81886,929.52319 C1129.3759,929.350071 1128.2563,928.121322 1128.2563,926.635898 L1128.26095,885.689686 L1126.41616,885.689686 L1126.41616,901.195258 C1126.41616,903.377541 1124.38562,904.015296 1123.18402,903.121279 L1123.18402,911.339046 C1123.19215,913.743964 1120.05288,913.743964 1120.05288,911.339046 L1120.05288,901.264831 L1118.64346,901.264831 L1118.63301,927.46382 C1118.63301,928.387382 1118.07343,929.180428 1117.27444,929.52319 Z M1131.51996,929.52319 L1138.24117,929.52319 C1136.79899,929.350071 1135.6784,928.121322 1135.6784,926.635898 L1135.69001,903.361307 L1134.0867,903.361307 L1134.08322,926.635898 C1134.08322,928.121322 1132.96462,929.350071 1131.51996,929.52319 Z M1164.00437,828.881483 L1165.72977,831.088445 L1159.00003,836.349736 L1157.27463,834.142774 L1164.00437,828.881483 Z M1175.2695,820.08684 L1176.99589,822.294437 L1170.26609,827.557296 L1168.5397,825.349699 L1175.2695,820.08684 Z M1154.45614,839.887846 L1147.71471,845.153713 L1145.99154,842.94769 L1152.73298,837.681823 L1154.45614,839.887846 Z M1141.84789,837.130173 L1136.1916,841.547695 L1134.46728,839.339845 L1140.12358,834.922323 L1141.84789,837.130173 Z M1145.29915,834.445119 L1143.5726,832.236047 L1149.21964,827.822479 L1150.94619,830.031551 L1145.29915,834.445119 Z M1151.87279,854.743479 L1146.56367,858.88541 L1160.09712,867.656285 L1156.28448,873.528272 L1111.42918,844.458224 L1067.96007,874.188059 L1064,868.413474 L1111.32469,836.046811 L1126.2722,845.733735 L1131.01826,842.030116 L1132.74462,844.23559 L1128.759,847.345517 L1135.09211,851.450342 L1141.46236,846.480489 L1143.18872,848.685962 L1137.57891,853.062124 L1144.07803,857.273628 L1150.14643,852.538005 L1151.87279,854.743479 Z M1156.15864,851.409534 L1154.43181,849.200742 L1160.90851,844.137277 L1162.63534,846.346068 L1156.15864,851.409534 Z M1166.92218,843.00747 L1165.19564,840.798398 L1171.67133,835.737183 L1173.39788,837.946255 L1166.92218,843.00747 Z M1148.41131,815.998653 L1150.13714,818.20681 L1141.92285,824.62687 L1140.19701,822.418713 L1148.41131,815.998653 Z M1134.16594,827.1125 L1135.89277,829.321292 L1127.68042,835.741681 L1125.9536,833.532889 L1134.16594,827.1125 Z M1134.78909,877.452207 C1131.91978,877.452207 1129.59374,875.129008 1129.59374,872.263197 C1129.59374,869.397387 1131.91978,867.074188 1134.78909,867.074188 C1137.6584,867.074188 1139.98444,869.397387 1139.98444,872.263197 C1139.98444,875.129008 1137.6584,877.452207 1134.78909,877.452207 Z M1113.08937,894.758567 C1110.61567,894.758567 1108.61034,892.755685 1108.61034,890.285003 C1108.61034,887.814322 1110.61567,885.81144 1113.08937,885.81144 C1115.56307,885.81144 1117.5684,887.814322 1117.5684,890.285003 C1117.5684,892.755685 1115.56307,894.758567 1113.08937,894.758567 Z M1089.94191,877.539173 C1087.04824,877.539173 1084.70245,875.196247 1084.70245,872.306101 C1084.70245,869.415955 1087.04824,867.073028 1089.94191,867.073028 C1092.83559,867.073028 1095.18138,869.415955 1095.18138,872.306101 C1095.18138,875.196247 1092.83559,877.539173 1089.94191,877.539173 Z" id="Housing-and-Shelter-Icon"></path>
    </g>
  </g>
</svg>
