<?xml version="1.0" encoding="UTF-8"?>
<svg xmlns="http://www.w3.org/2000/svg" xmlns:xlink="http://www.w3.org/1999/xlink" width="58px" height="111px" viewBox="0 0 58 111">
  <!-- Generator: Sketch 50 (54983) - http://www.bohemiancoding.com/sketch -->
  <title>reduce-poverty icon</title>
  <desc>Created with Sketch.</desc>
  <defs></defs>
  <g id="Page-1" stroke="none" stroke-width="1" fill="none" fill-rule="evenodd">
    <g id="About" transform="translate(-1094.000000, -620.000000)" fill="#9013FE" fill-rule="nonzero">
      <g id="Group-6" transform="translate(993.000000, 620.000000)">
        <path d="M133.340861,1.5122772 C129.373231,-1.31698676 122.576338,-0.0602212953 120.30084,4.31194119 C119.193308,6.45300582 118.923208,8.83333688 120.705373,11.6626008 C123.175737,15.5401971 128.520999,18.3842611 134.149927,17.3371621 C140.093354,16.2000298 140.122954,6.31857261 133.340861,1.5122772 Z M140.797587,29.0895842 L147.175148,34.0007128 C149.150946,35.3931448 149.331012,35.9925443 149.511079,38.0127423 L150.364545,47.5500999 C150.634644,50.0648642 150.364545,51.3376629 152.22071,52.670895 C153.013742,53.2394611 154.286541,53.4343276 155.25964,53.2246611 C156.247539,53.0001947 156.906138,52.4464285 157.445105,51.7125959 C158.58347,50.1561307 158.028471,48.0150661 157.804004,45.693935 L156.636039,33.6418132 C156.470772,31.8904815 156.172306,30.8717492 154.869907,29.8838501 L141.964319,20.0628261 C141.30572,19.53866 140.452254,19.119327 139.403922,19.0897271 L129.568098,19.1045271 L119.747074,19.0897271 C118.698742,19.119327 117.830476,19.53866 117.171876,20.0628261 L104.266289,29.8838501 C102.96389,30.8717492 102.67899,31.8904815 102.500157,33.6418132 L101.346991,45.693935 C101.107725,48.0150661 100.553959,50.1548974 101.691091,51.7125959 C102.230057,52.4464285 102.888657,53.0001947 103.876556,53.2246611 C104.849655,53.4343276 106.137254,53.2394611 106.915486,52.670895 C108.786451,51.3388963 108.517585,50.0660975 108.771651,47.5500999 L109.639917,38.0127423 C109.819983,35.9913109 109.984017,35.3931448 111.975848,34.0007128 L118.338609,29.0895842 L118.338609,74.5428074 L118.353409,105.533978 C118.353409,109.187108 120.823773,110.969273 123.323737,110.998873 C125.884135,111.028473 128.503732,109.172308 128.503732,105.533978 L128.445766,64.3184839 C128.445766,63.8091177 129.059965,63.1961516 129.568098,63.1961516 C130.076231,63.1961516 130.69043,63.810351 130.69043,64.3184839 L130.64603,105.535211 C130.64603,109.173541 133.250828,111.029706 135.826025,111.000106 C138.325989,110.970506 140.796354,109.188341 140.796354,105.535211 L140.796354,74.5440408 L140.796354,29.0895842 L140.797587,29.0895842 Z M141.980353,54.7663263 L145.379416,52.8349282 C146.382115,52.2515621 146.876681,52.0418956 148.328313,52.1467288 C149.301412,52.2071621 150.408945,52.700495 151.023144,53.4947609 C151.652143,54.2877935 151.801377,55.2917258 151.756977,56.2191916 C151.637343,58.1357898 149.840378,59.4381885 148.19388,61.069887 L141.980353,67.4326476 L141.980353,54.7663263 Z M117.26191,54.1977602 L113.862846,52.2515621 C112.860147,51.6829959 112.365581,51.4733295 110.897916,51.5633627 C109.924817,51.638596 108.817284,52.1319288 108.203085,52.9113948 C107.588885,53.7044273 107.424852,54.7231597 107.484052,55.6358255 C107.603685,57.5672237 109.38585,59.2741554 111.047149,60.9058538 L117.260676,67.2686144 L117.260676,54.1977602 L117.26191,54.1977602 Z" id="reduce-poverty-icon"></path>
      </g>
    </g>
  </g>
</svg>
